<svg width="91" height="124" viewBox="0 0 91 124" fill="none" xmlns="http://www.w3.org/2000/svg">
<g opacity="0.5" clip-path="url(#clip0_973_27257)">
<path d="M36.6359 122.849L1.09728 87.4476C0.39562 86.7424 0 85.807 0 84.8284V3.77115C0 0.389263 4.26971 -1.2729 6.71061 1.15199L42.2492 36.5466C42.9509 37.2518 43.3465 38.1872 43.3465 39.1658V120.23C43.3465 123.612 39.0768 125.274 36.6359 122.849Z" fill="white" style="fill:white;fill-opacity:1;"/>
<path d="M54.3639 122.849L89.9025 87.454C90.6042 86.7489 90.9998 85.8135 90.9998 84.8349V3.77041C90.9998 0.38853 86.7301 -1.27363 84.2892 1.15125L48.7506 36.5459C48.0489 37.2511 47.6533 38.1865 47.6533 39.1651V120.23C47.6533 123.611 51.923 125.274 54.3639 122.849Z" fill="white" style="fill:white;fill-opacity:1;"/>
</g>
<defs>
<clipPath id="clip0_973_27257">
<rect width="91" height="124" fill="white" style="fill:white;fill-opacity:1;"/>
</clipPath>
</defs>
</svg>
