<svg xmlns="http://www.w3.org/2000/svg" width="373" height="120" fill="none" viewBox="0 0 373 120">
  <g clip-path="url(#a)">
    <path fill="#e4ebf8" d="M174.832 106.498v.15c.06 1.276-.565 2.586-1.454 1.763-.817-.754-.757-2.493-.192-2.922.768-.487 1.838 0 1.646 1.009Zm164.592 3.061c-.481-.383-1.106.104-1.262.823l-.048.174c-.204.893-.18 1.971-.144 2.609.072.279.228.696.601.777 1.345-.058 1.621-3.977.841-4.371l.012-.012Zm5.706-44.528c-4.385-3.13-7.689-2.505-11.569-2.957-1.31-.15-2.74.093-4.181.534-1.971-4.024-4.229-7.85-6.812-11.434.084-.058.156-.116.24-.174l3.797-4.824c3.736-9.126 2.835-12.964-3.653-20.49-5.021-3.86-9.13-5.774-15.714-4.823-5.394.788-7.269 3.478-10.344 5.81-.697.52-1.297 1.217-1.826 2.005a73.563 73.563 0 0 0-6.307-2.481 110.503 110.503 0 0 0-8.555-2.273c2.776-7.711 1.55-11.526-4.421-18.46-5.021-3.862-9.13-5.775-15.714-4.824-5.394.788-7.269 3.478-10.344 5.81-2.487 1.89-3.881 5.855-4.722 8.835-.504 1.774-.12 3.537.036 5.3.048.463.12.915.205 1.368-6.308.73-12.471 2.075-18.382 4.047-.456-.592-.949-1.125-1.501-1.554-3.076-2.331-4.95-5.021-10.345-5.81-6.583-.95-10.692.951-15.714 4.824-6.488 7.514-7.376 11.364-3.652 20.49l.553.707a75.136 75.136 0 0 0-9.636 11.805c-1.453-.453-2.931-.708-4.253-.557-3.88.452-7.184-.174-11.569 2.957-5.347 3.815-6.86 7.978-7.581 14.135.865 9.173 2.859 12.663 10.861 16.293a84.589 84.589 0 0 0-.565 4.591c-.373 2.064-.096 8.419.805 8.349.949-.023 1.826-5.52 2.114-8.325.133-1.253.325-2.505.517-3.757l4.914.649c8.806-1.23 13.888-3.827 16.567-11.84 1.85-5.519 1.562-11.711-2.391-16.257-1.189-1.368-2.198-2.864-3.856-3.768a39.357 39.357 0 0 0-2.764-1.392 72.098 72.098 0 0 1 8.386-10.9l1.694 2.145c7.125 5.137 12.615 6.772 20.388 2.934 5.346-2.644 9.683-7.212 10.224-13.126.156-1.775.541-3.526.036-5.3-.529-1.867-1.273-4.128-2.379-6.018a78.303 78.303 0 0 1 17.865-3.989c1.406 4.615 5.178 8.21 9.683 10.436 7.761 3.839 13.264 2.204 20.388-2.933l3.797-4.824c5.118.835 10.139 1.96 14.837 4.07-.937 1.774-1.61 3.792-2.091 5.485-.504 1.774-.12 3.536.036 5.299.541 5.914 4.878 10.483 10.224 13.127 6.872 3.397 11.966 2.504 17.985-1.31a71.312 71.312 0 0 1 2.679 3.918c1.358 2.262 2.535 4.639 3.605 7.062a41.935 41.935 0 0 0-2.944 1.473c-1.658.916-2.679 2.412-3.856 3.769-3.953 4.557-4.241 10.737-2.391 16.257 2.679 8.013 7.761 10.61 16.567 11.84l2.751-.36c.841 3.78.902 7.978 1.658 8.523a.909.909 0 0 0 .277.139.5.5 0 0 0 .348-.023c.216-.151.385-.348.445-.534.48-.788.576-3.919.348-7.688l-.18-.811.565-.07c9.322-3.908 11.509-7.236 12.422-16.976-.721-6.158-2.222-10.32-7.581-14.136l-.024.012Z"/>
    <path fill="#fff" d="M249.942 62.156c-1.442 4.917-5.659 8.94-9.119 12.709-2.162 2.377-5.61 3.2-8.698 2.945-1.309-.324-3.592.766-3.268-1.403.517-2.794 2.631-5.763 4.049-8.453 1.922-3.688 4.253-8.384 8.927-9.23 2.775-.94 8.397-.72 8.133 3.235l-.024.185v.012Zm-1.406-9.532c.817.777 1.178 2.064 2.427 2.32 4.217 1.205 13.564-.592 16.171-4.14 1.238-2.053.072-4.743-1.934-5.914-2.848-1.6-6.32-1.589-9.527-1.508-4.686.128-10.645 4.302-7.245 9.091l.12.163-.012-.012Zm24.977 9.868c-5.598-.811-11.317 2.9-13.816 7.653-2.415 4.5-2.186 9.938-.649 14.657.541 2.065 2.259 5.16.421 6.819-2.235 1.53-6.091 1.009-9.035 1.623-1.117.244-2.342.812-2.102 1.716 2.415 3.815 6.632 6.749 10.621 9.022 5.694 2.806 12.614 3.525 18.501.87 1.994-1.032 7.545-3.92 4.866-6.424-1.214-1.079-3.1-1.578-3.917-2.285-3.472-3.548 5.37-14.506 5.13-19.782.817-6.111-3.28-12.825-9.803-13.834l-.217-.035Zm-13.347 28.549v.023-.023Zm-5.563-61.156c5.383.95 12.363 0 15.45-4.94 1.791-2.876 1.238-6.32 1.154-9.59-.108-2.087-.048-4.244-.252-6.308-.073-.417-.241-.777-.517-1.009-.793-.591-1.91-.348-2.859-.37-3.545.092-7.209.115-10.765.254-1.382.035-2.631.893-2.691 2.296-.048 5.346.036 10.82.3 16.118.325 1.09-.156 1.728-.408 2.725-.012.325.144.58.444.743l.156.07-.012.01Zm86.874 42.568c-4.71-.719-10.368-.07-15.282-.267-.829 0-1.73.174-2.319.73-.552.476-.697 1.137-.673 1.833.397 3.641-.036 7.804 1.418 11.178 1.009 1.01 3.148.081 4.457.081 1.694-.278 3.352-.162 4.626-1.252 1.105-1.009 1.549-2.435 2.919-3.224 1.237-.927 2.835-.846 4.241-1.298 1.97-.835 1.178-3.56 1.358-5.242 0-.823.108-1.878-.601-2.458l-.144-.104v.023Z"/>
    <path fill="#e4ebf8" d="M301.988 120.414c-.456 1.902-2.643 2.748-4.541 2.957-24.436 3.687-49.894 2.818-74.139-2.644-2.727-.614-5.514-1.472-7.532-3.421-4.457-4.696-6.632-13.764-5.707-19.968 1.298-7.224 7.485-12.72 12.975-17.173 3.148-3.456 8.062-5.902 11.63-1.23 2.907 3.398 1.49 8.57 3.268 12.432 1.273 1.67 3.844 1.658 5.346 1.994 4.229-.962 9.659-.533 13.011 3.085 1.694 1.867 2.895 4.255 5.214 5.508 4.505 2.678 10.548 2.991 15.27.939 2.246-1.055 4.697-2.969 7.401-1.937 8.205 3.015 18.958 9.242 17.852 19.249l-.048.209ZM256.299 45.54c-3.448-1.426-7.785 1.438-8.133 4.696-.181 1.74.876 3.19 2.775 2.076 1.141-.812 1.682-2.308 2.775-3.2.757-.859 1.742-1.369 2.211-2.273.216-.383.576-.87.42-1.195l-.06-.104h.012Z"/>
    <path fill="#93b0d8" d="M258.004 78.971c.144.673.06 1.438.072 2.145-.072 1.624.3 2.98-1.226 3.931-1.057.742-2.595.22-2.679-1.101-.072-.348-.144-.603-.336-.696-.18-.093-.505-.023-.721 0-.877.209-1.958.058-2.018-.603 0-.812.733-1.345 1.297-1.763.769-.556 1.934-1.727 2.583-2.516.385-.417 2.271-3.026 2.595-1.38-.168.742.072 1.079.397 1.81l.048.173h-.012Zm28.449-2.493v-.209c-.349-6.11-3.76-12.709-10.404-14.181-1.466-.464-3.689-1.3-4.554.08-.408 1.647 2.019 3.41 3.545 4.291 4.072 1.902 5.802 1.937 4.974 6.726-.433 2.933-1.322 5.972-3.389 8.059-.865.765-1.826 1.588-1.85 2.84.373 3.294 3.989 5.578 7.185 3.897 3.856-2.087 4.625-7.526 4.493-11.515v.012Z"/>
    <path fill="#00519e" d="M213.132 109.386c.384 1.067.769 2.029 1.274 2.934l1.357 2.481 1.19 1.717c.612.892 1.213 1.727 2.186 2.272.264.151.433.453.481.673.048.22-.048.707-.361.823-1.814.638-3.195-2.609-4.709-3.78-.625-.487-.829-1.218-1.226-1.844-1.033-1.6-1.982-3.989-2.607-5.809-.901-2.621-1.658-5.404-1.213-8.164.132-.777-.036-1.565.036-2.365.372-3.804 1.502-6.25 3.424-9.52.793-1.346 1.91-2.39 2.895-3.572l1.55-1.867c.565-.672 1.202-1.217 1.658-1.971.877-1.438 1.898-2.076 2.751-3.282 1.514-2.145 1.802-2.029 4.073-2.875 3.112-1.172 3.496 0 3.7-1.102.145-.812.168-1.612.445-2.377l1.441-3.85c.565-1.496 1.466-2.772 2.343-4.105.336-.51 2.415-4.128 3.22-2.887a.461.461 0 0 1-.036.556c-.973 1.148-3.857 5.624-4.301 7.027l-1.153 3.665c-.157.487-.794 2.933-.121 3.142 1.045.325 2.055.603 2.932 1.194.42.29.745.244 1.189-.023.745-.452 3.22-.66 4.421-1.971.757-.823 1.31-1.797 1.863-2.76.817-1.403 1.093-.51 3.159-2.365 1.166-1.044 3.304-4.349 3.773-5.949.312-1.067.684-2.11.793-3.189.084-.846-1.73-.974-2.091-.51 1.189 2.03 1.225 3.92-.433 5.624-.24.243-.648.174-.852.011-.733-.556.54-1.449.733-2.284.312-1.31-.265-2.574-1.346-3.41-2.499-1.936-3.724-1.762-6.68-.057-.216.128-.661.22-.841-.035-.805-1.194 4.229-3.073 5.803-2.423 1.213.498 1.285 1.252 2.187.382l2.775-2.655c-.757-.708-1.526-1.079-2.031-1.81-1.586-2.272-.408-6.029 1.346-8.023.553-.627 1.321-1.102 2.042-1.508 1.226-.684 2.595-.858 3.941-1.183 1.958-.475 3.844-.556 5.863-.37 3.123.29 5.754.568 7.929 3.06 1.466 1.682.973 3.433.829 5.022-.108 1.09-.709 1.994-1.55 2.655l-1.622 1.264c-1.225.962-5.298 2.099-6.836 2.365-1.465.256-5.55-.023-7.112-.405-.541-.14-.961.116-1.309.452-.589.58-1.262 1.032-1.791 1.681-.528.65.889-.185 1.862.998 1.13 1.38-.264 5.23-1.045 6.667-.636 1.183-1.393 2.238-2.174 3.34-2.151 3.003-3.472 2.122-4.277 3.768-.421.858-.973 1.682-1.586 2.447-1.285 1.589-3.28 1.751-4.746 2.69a20.34 20.34 0 0 1 1.034 1.937c.612 1.264.192 3.63-.421 4.73-.288.511.144 2.911.288 3.677.289 1.635-.252 2.864.577 3.142 1.874.615 2.283 1.53 3.724 1.403l2.908-.278c3.099-.29 6.019-.406 9.179-.406.708 0 1.393.244 1.802.754.192.232.096.545-.072.719-.589.591-1.154-.255-2.463-.186-1.166.058-2.271-.046-3.412.07-.745.07-1.406.382-2.139.51-1.922.348-3.808.464-5.767.696-2.438.29-2.15-.499-4.168-1.23-.217.43-.121.743-.205 1.137-.048.22-.48.267-.624.116-1.13-1.171-.325-3.56-.649-5.972l-.324-2.504c-.121-.951-.145-1.717.216-2.633 1.141-2.876-.168-4.696-2.884-6.076-1.201-.615-4.877-1.913-6.103-1.368-.937.417-1.706 1.067-2.475 1.693-.468.382-.684.95-1.069 1.38l-2.379 2.667-2.643 2.957-1.886 2.18c-.721.834-1.477 1.623-2.018 2.585-1.91 3.41-3.076 6.355-3.052 10.263 0 1.275-.288 2.504-.06 3.768.192 1.044.384 2.064.745 3.073l.913 2.575.012.011Zm48.741-56.02c1.333.012 4.637-2.318 4.769-3.35l.169-1.3c.18-1.321-.289-2.446-1.394-3.176-.565-.371-1.093-.73-1.778-.94-2.679-.777-6.392-1.426-9.071-.498-1.658.174-3.376.65-4.661 1.658-1.574 1.24-2.235 1.554-2.547 4.314-.096.893 1.322 2.168 2.03 2.667 1.875 1.298 2.043 1.16 4.422 1.507 3.015.43 5.25.197 8.049-.881h.012ZM182.52 84.2c-.997.209-2.955.046-2.823-1.322l.204-2.145c.06-.661-.661-.476-1.85-.95-.517-.21-.757.092-.997.451-.421.627-.925 1.137-1.406 1.717-.324.394-.937.405-1.225-.012-.697-1.009-1.634-1.16-1.093-2.053.781-1.287 2.066-1.797 1.73-2.319-.337-.522-.457-.985-.589-1.588-.192-.963-3.256.614-3.64-.986-.181-.754-.216-1.496.096-2.215.697-1.577 3.484-.243 3.76-1.09l.397-1.229c.204-.65-3.797-2.215-2.391-3.757.721-.788 1.946-1.635 2.859-.615l1.478 1.67c.168.197.493.232.745.128l1.79-.766c.288-.127-.084-.672-.108-.904l-.217-2.574c-.048-.522.301-.882.841-.835 1.574.127 2.151-.255 2.403.603.337 1.17.253 2.307.036 3.513 2.367.035 2.391 1.38 3.364.395l1.442-1.461c.504-.51 1.213-.65 1.802-.22.457.335.853.718 1.069 1.24.517 1.206-1.129 2.099-2.006 2.632-.769.464.252.893.613 2.238.252.986 1.309.255 2.847.279 1.057.023.625 1.09.649 2.295.036 1.543-3.172.638-3.412 1.404-.301.927-.709 1.611-.301 2.017.409.406.89.73 1.346 1.113.637.51.625 1.392.096 1.983-.853.951-1.922 1.542-3.064.592-.744-.615-1.081-1.334-1.609-1.125-.601.243-1.166.336-1.826.44-.962.14.528 3.143-1.01 3.468V84.2Zm2.247-11.781c-.469-1.705-3.472-2.273-4.637-1.902-1.358.44-2.151 1.716-2.091 3.085-.348 1.414.337 2.69 1.622 3.316 1.045.51 2.175.638 3.28.209 1.49-.708 2.126-3.224 1.814-4.697l.012-.011Zm149.19 6.088c-.505.37-.913.313-1.43-.047l-1.982-1.415c-.517-.37-.913-.835-1.49-1.136-.48-.244-1.946-.893-2.27-.429-.505.707.636 1.658 1.189 2.122 1.129.95 2.259 1.74 3.484 2.597.661.464 1.586.963 2.427.546 2.511-1.264 5.238-4.082 7.725-5.172.985-.44-.3 4.116 1.406 3.896.432-.058.696-.522.696-.974v-4.766c.012-.812-.504-1.345-1.357-1.322-.949.023-1.826-.15-2.776-.162l-13.491-.151a5.7 5.7 0 0 0-2.427.533c-1.081.488-.781 1.972-.757 3.49l.072 6.181c.012 1.218.156 2.354.277 3.537.12 1.171 1.778.603 3.315.638l4.181.093c.181 0 2.847.568 3.124-.418.084-.29.108-.742-.24-.881-1.622-.65-3.34-.696-5.094-.626l-2.98.104c-.384.012-.589-.14-.601-.51l-.024-7.63c0-1.125-.6-3.247.409-3.19 1.514.094 2.931.233 4.445.256l7.148.093 2.8.15c.228 0 .156.325-.024.441-1.142.73-2.151 1.508-3.304 2.354l-2.439 1.797h-.012Zm-71.844-70.04 8.23.117c.468 0 .468.556.468.893l.072 6.192.18 3.803c.025.464.145.847.373 1.206.324.128.649.116.889-.07.625-.486.18-5.368.144-6.563-.048-2.238-.06-3.49-.06-5.763 0-.568-.36-1.009-.961-1.067-2.343-.22-3.364.024-6.127-.301-1.466-.174-2.823.035-4.253.162-2.583.232-5.166-.394-7.244.58-.289.302-.421.673-.421 1.113l-.036 3.792c0 .986.072 1.902.096 2.864l.12 4.986c.229 1.114.181 2.192.265 3.328l.204 2.621c.036.51.216.905.685 1.113.624-.162.877-.719.829-1.356l-.265-3.549c-.12-1.612-.336-3.13-.228-4.766.084-1.275.12-2.516.096-3.803l-.096-4.766c-.024-1.02 3.16-.65 4.085-.603 1.009.047 1.946-.174 2.955-.162Zm18.814 90.796c.925 1.565-3.099 3.456-4.001 4.174-1.225.975-2.366 2.412-3.4 1.299-.648-.696-3.94 2.331-7.749 1.218a6.109 6.109 0 0 1-2.511-1.473l-1.465-1.461c-1.106-1.102-.601-1.797-1.226-1.6-.973.301-2.078.464-2.643-.545-.564-1.009-.889-2.076-1.093-3.235l-.553-3.004c-.132-.719-.12-1.426.277-2.052.168-.267.588-.302.769-.023 1.261 1.901 1.597 7.514 2.342 7.908.096.046.253.023.445-.058 1.153-.51 4.589-1.67 5.851-1.96 1.117-.255 2.955.824 3.808 1.438l2.811 2.018c.721.522 1.73 2.133 2.079 2.087.084 0 2.367-2.041 2.775-2.4.661-.58 2.655-3.734 3.496-2.32l-.012-.011Zm-8.782 4.186c-1.358-.777-2.535-1.635-3.881-2.435l-2.162-1.276c-1.19.163-2.247.476-3.412.974.252.661.781.986 1.225 1.45l2.007 2.122c1.249 1.31 4.565.023 6.235-.835h-.012Zm4.673-12.489c-1.417 3.073.084 5.3-1.778 5.311h-2.967c-1.286.023-3.004-.463-4.349-.835-1.166-.324-6.476-2.887-6.584-3.293-.096-.348.985-1.507.649-4-.168-1.241-.841-2.25-1.394-3.34l-1.622-3.189c-.132-.243-.288-.464-.468-.498-.156-.035-.409-.058-.553.104a1.57 1.57 0 0 0-.264 1.554c.48 1.299 1.141 2.458 1.838 3.64.913 1.543 1.369 4.454-.216 5.625-.277.197-.505.37-.433.66.048.175.132.43.385.569l2.619 1.484 2.282 1.148c.877.44 1.766.847 2.715 1.16 3.148 1.02 4.602.87 7.701.603.817-.07 1.574-.163 2.379-.302 1.646-.29.685-1.426 1.033-3.64l.361-2.285c.048-.313.072-.812-.204-.963-.457-.255-.962.105-1.142.499l.012-.012Zm1.826-2.122c2.427.673 4.674-.405 5.995-2.365.397-.592.829-1.102 1.142-1.74 1.778-3.687 1.489-5.334 1.598-9.462.072-2.783-.553-5.45-2.079-7.78-1.357-2.076-1.73-2.633-4.265-3.897-.925-.464-3.796-2.191-3.868-1.02-.024.29.132.522.456.66l1.562.639c1.057.429 3.556 2.91 4.457 3.838 1.43 1.472 2.211 3.351 2.319 5.415.228 4.43.36 9.265-2.487 12.848s-5.478.197-5.983 1.983c.349.51.721.754 1.177.881h-.024Zm22.611 24.062c-.817-1.531-3.857-5.937-5.298-6.691-.745-.394-1.286-.963-1.971-1.438l-2.294-1.589c-.709-.487-1.25-1.171-2.019-1.577l-2.871-1.519c-1.31-.695-2.631-1.229-3.989-1.82-.276-.128-.588-.023-.696.104a.56.56 0 0 0 .036.72c.6.648 3.027 1.738 3.976 2.249l2.86 1.542c.768.417 1.309 1.101 2.03 1.589 1.129.765 2.198 1.495 3.244 2.365.865.719.973.104 2.895 2.458 1.634 1.995 2.547 3.966 3.604 6.309.649 1.437.637 6.203 2.583 5.102 1.154-.65-.048-1.624-.336-3.12-.625-3.235-.469-2.226-1.766-4.673l.012-.011Zm-32.21-85.52 2.487-3.095c.421-.522 1.418-1.636.829-2.007-.456-.29-.901.21-1.249.615-1.334 1.53-2.583 3.038-4.181 4.383-.481.406-.541-3.165-.649-4-.036-.348.12-.58.493-.592l2.703-.07c.372 0 .757-.08 1.021-.3.192-.163.144-.488.024-.639-.445-.568-3.7-.278-4.673-.185-1.334.116-.854 2.145-.781 3.444l.168 3.107c.024.383-.301.522-.637.51l-2.967-.057-2.703-.209-3.256-.348c-.493-.046-1.058.197-1.25.638a.95.95 0 0 0 .108.95c.481.662 2.679.43 3.46.418.962-.011 7.029-.278 7.557-.406 1.118-.266 1.91.383 2.559-.626l.961-1.53h-.024Zm73.189 61.632c.457.244 1.046.035 1.442-.232l1.166-.776c.781-.522 1.297-1.357 2.114-1.717l1.045-.452c.589-.255.289-1.23-.24-1.612l-1.694-1.217c-.793-.569-3.388-2.633-3.989-.94-.372 1.02.818 1.264 1.622 1.798.229.278-.024.36-.348.348-2.847-.163-3.965-.302-6.728.255-.288.058-.709.267-.709.545-.024 1.067 2.992 1.136 3.737 1.101 1.177-.046 2.258.058 3.448.105 1.61.07-.637.58-1.226 1.53-.24.395-.036 1.056.385 1.276l-.025-.012Zm-83.329-14.471c.253-1.264.733-2.366 1.334-3.502 1.694-3.189 1.634-3.595 4.565-5.903 1.178-.927 2.379-1.704 3.761-2.33.336-.151.492-.418.468-.72-.024-.22-.312-.486-.673-.451-1.694.185-3.183.88-4.469 1.948-.997.835-2.078 1.577-2.859 2.644-1.55 2.098-2.619 4.43-3.424 6.888-.325.997-.361 2.006-.589 3.014-.252 1.16-.156 3.827.865 3.618.12-.023.288-.162.288-.44l.025-1.786c.012-1.113.504-2.018.696-2.98h.012Zm-4.385 7.467c-.336-.15-.733-.046-1.069.093-1.946.812-3.556.255-3.244-.197.132-.185 3.46-1.194 5.407-5.125.228-.453.468-.974.348-1.461-.048-.232-.409-.313-.505-.244-.06.047-.216.116-.276.255-.541 1.195-1.406 2.088-2.319 3.027-.997 1.02-2.186 1.623-3.664 1.762a.864.864 0 0 0-.685 1.241c.217.406.433.73.589 1.148.481 1.276 2.271 1.52 3.316 1.287 1.045-.232.432.951 1.442 1.357.817.325 4 1.16 3.916-.29-.048-.847-2.006-.36-3.063-.986-.385-.231.744-1.472-.181-1.901l-.012.034Zm26.023-5.171c2.042-3.978.792-10.866-.481-10.112-.24.14-.3.394-.276.684l.3 3.583c.264 3.236-.637 4.72-1.922 7.225-.709 1.368-1.706 2.504-3.04 3.34-.384.243-.793.324-1.213.498-.288.116-.336.417-.216.66.312.673 1.622.36 2.342-.138 2.812-1.937 3.052-2.888 4.518-5.752l-.012.012Zm32.197-34.382c.409.29.937.22 1.214-.116.204-.255.24-.672 0-1.02-.865-1.253-2.607-1.322-2.595-1.74.024-.834.072-5.055-1.142-4.777-.156.035-.456.127-.564.36-.973 2.063.156 3.2-.685 3.884-.949.777-1.826 1.519-2.607 2.435-.325.383-.312 1.067.096 1.368 1.105.835 1.982-.823 3.508-1.96.553-.405.685.186 1.706.697.444.22.697.58 1.081.858l-.012.011Zm-44.692-29.673c-.108-.546-.613-.859-1.249-.859l-4.698.058c-1.309.024-3.832-.37-4.421.545-.228.348-.072.754.12.974.192.22.457.406.853.418 2.824.07 5.538.15 8.494-.035.709-.046.961-.754.889-1.113l.012.011ZM237.064 70.03c-.156.093-.084.464-.048.638.517 2.087-.541 2.83.06 3.687.168.244.553.209.817.14.793-.198.829-2.447.865-3.34.709.232 1.177.487 1.694.185.985-.568.925-1.31 1.129-2.273.709.279 1.562.024 1.754-.765.457-1.797-.528-3.513-2.295-4.14-.54-.185-1.129-.44-1.657-.127-.253.15-.048.615.216.707.781.29 1.406.684 1.874 1.357.601.881.709 2.32-.108 2.412-.132-1.206-3.292-3.142-3.592-2.099-.036.116.024.302.18.43l1.297 1.112c.793.684.962 1.902.181 2.25-.469.209-.457.545-.529 1.148-.54-.128-.336-.51-.517-.835-.288-.522-.852-.788-1.333-.499l.012.012Zm73.286-41.594c-.325-.232-.962-.244-1.25.035-.348.324-.493.765-.889 1.055-.877.65-2.511 1.565-1.934 2.238.144.174.456.301.816.255 2.98-.336 4.049.058 6.921-.383.72-1.414-1.754-1.82-3.652-3.212l-.012.012Zm-5.287 18.414c-2.186-1.206-2.715-2.61-4.181-2.018-.708 1.427-3.099 2.493-2.967 3.19a.674.674 0 0 0 .601.51c2.45.139 4.421.243 6.824-.51.312-.488.144-.928-.277-1.172Zm14.994 1.867c-1.478.046-2.739.011-4.073.104-.312.023-.468-.209-.529-.417-.204-.58 2.019-2.227 2.716-2.888.384-.359.672-.614 1.141-.59 1.321.069 1.237 1.286 3.496 2.631.204.128.348.36.348.499 0 .209-.192.556-.516.556l-2.583.082v.023Zm-109.832-2.969-1.778-1.565c-.433-.383-.925-.673-1.418-.974-.925-.568-1.394.823-1.934 1.472-.541.65-1.622 1.682-.998 2.378.469.522 1.574.301 2.343.046 2.163-.719 2.007-.116 3.797-.545.096-.29.072-.522-.024-.812h.012Zm-1.766-12.535c-1.358-1.101-3.52-3.536-4.421-1.913-.685 1.24-1.562 2.215-1.046 3.038.12.186.397.29.769.29l2.487.058c.432 0 2.259-.14 2.415-.696.06-.232.024-.591-.204-.777Zm11.064-2.273a2.43 2.43 0 0 0 1.214-.405.645.645 0 0 0 .228-.73c-.216-.639-2.451-.314-3.34-.233l-2.474.244-2.271.197c-.421.035-.925.058-1.214.36-.264.278-.072.915.325.997 1.754.382 3.844-.116 5.622-.267l1.898-.15.012-.012Zm2.68 11.4c.024-.175 0-.615-.289-.662-1.009-.15-2.018-.174-3.015.035l-3.592.765-1.658.093c-.325.023-.541.29-.541.487-.024 1.264 4.83.209 6.656.058.6-.046 2.33.116 2.427-.8l.012.023Zm-6.08-14.333c1.37-.174 2.716-.116 4.025-.44.265-.07.24-.453.216-.604-.072-.498-.937-.545-1.441-.452-1.995.325-6.139.174-7.112.707-.265.151-.565.51-.397.777.24.383.769.499 1.358.418l3.339-.406h.012Zm86.321 12.152c-.745-.36-1.513-.104-2.006.302-.541.44-.733 1.043-.661 1.785.108.963.865 1.635 1.922 1.577.637-.034 1.43-.231 1.742-.892.517-1.056-.012-2.285-.997-2.76v-.012Zm9.527-14.077c-.084-1.137-.973-1.867-2.15-1.774-.577.046-1.094.174-1.478.568-.408.8-.264 1.67.276 2.365.349.441.793.731 1.574.731 1.214 0 1.85-.893 1.778-1.89ZM218.31 40.449c.925-.023 1.766-.209 2.691-.232.409-.011.697-.209.733-.475.192-1.241-2.319-.627-3.4-.522-1.79.162-3.508.197-5.19.696-.324.092-.48.556-.396.765.06.15.36.36.648.313l2.595-.475 2.331-.058-.012-.012Zm26.983 24.977c.109-1.148-.312-2.319-1.081-3.188-.624-.708-2.715-1.52-3.592-1.392-.613.58 1.117 1.31 2.115 2.33 1.249 1.276.624 2.737 1.309 3.085.637.325 1.189-.22 1.249-.835Zm75.461-24.513c-.313-.812-1.094-1.055-1.911-.823-1.189.347-1.922 1.53-1.369 2.655.336.684 1.093.986 1.826.916.601-.046 1.358-.417 1.598-1.229.168-.568.012-1.079-.156-1.52h.012Zm-39.827 42.383c-.072-.035-.144.023-.312.058-4.337 2.562-5.094.463-5.911.997-.168.104-.168.406 0 .591 1.465 1.693 3.4 1.52 5.262.487 1.105-.614 1.574-1.855.973-2.122l-.012-.011ZM266.342 17.42c-.072-.73-2.042-.592-2.991-.557l-3.46.116c-.745.023-1.935.081-1.911.707.036.696 2.235.58 2.896.557.024 0 5.322-.348 4.913-.278.313-.047.577-.279.553-.534v-.011Zm-58.784 22.067c-.325-.453-.745-.824-1.274-1.02-.805-.302-1.526.057-1.874.753-.493.997-.144 2.006.889 2.458.853.383 1.682.14 2.09-.811.204-.487.373-.916.181-1.38h-.012Zm-1.046-11.503c.036-1.032-.697-1.67-1.73-1.647-.865.023-1.393.475-1.538 1.276-.144.73-.024 1.46.649 1.913.577.22 1.214.22 1.862-.023.565-.395.745-.916.769-1.508l-.012-.011Zm57.608-8.094c-.481-.163-.961-.174-1.514-.14-1.442.082-4.517-.231-4.529.777 0 .731 1.741.812 2.51.685 1.574-.244 2.235-.012 3.509-.534a1.05 1.05 0 0 0 .024-.788Zm10.86 42.533c-1.333 1.125.361 3.038 1.826 3.722.469.22.877.499 1.43.476.397-.012.649-.244.697-.51.192-1.044-3.22-.812-3.352-3.328-.012-.279-.241-.348-.601-.36Zm-2.355-1.217c-.528-.174-1.009.023-1.261.487-.529.974-.216 2.052.505 2.852.42.476.913.742 1.609.603 1.106-1.24-1.117-1.31-.877-2.84.06-.395.145-.72.024-1.09v-.012Zm-.564 6.25c-.529-.534-1.37-.128-1.646.452-.204.417-.253.858.084 1.16.18.162.541.429 1.021.255.769-.279 1.057-1.322.529-1.856l.012-.011Zm-4.433-.07c-.253-.394-.829-.37-1.166-.209-.348.163-.673.464-.661.974.013.615.445 1.01 1.202.87.625-.36.985-1.067.637-1.635h-.012Zm-8.206-16.396c-2.499.498-6.343.765-8.17-1.264a.677.677 0 0 0-.672-.209c-.204.058-.397.255-.421.568-.084 1.079 2.715 2.134 3.713 2.308 2.39.162 3.58.324 5.935-.163l1.898-.765c.444-.22.648-.66.408-1.136-.312-.337-2.307.545-2.703.672l.012-.011Zm4.373-2.505c-.348-.081-.817 0-.973.475-.096.267-.096.708.132.893.396.313 1.057.267 1.394-.127.144-.696-.072-1.125-.553-1.23v-.011Z"/>
  </g>
  <defs>
    <clipPath id="a">
      <path fill="#fff" d="M0 0h373v120H0z"/>
    </clipPath>
  </defs>
</svg>
