<svg xmlns="http://www.w3.org/2000/svg" width="373" height="120" fill="none" viewBox="0 0 373 120">
  <g clip-path="url(#a)">
    <path fill="#fff" d="M219.613 75.79c-.411-.76.198-1.372.397-2.065 0-3.848-3.973-4.713-6.967-4.3-1.92.2-3.006.08-3.178 2.037-.239 6.324.159 12.982.212 19.972.079 2.344 1.907 1.665 3.708 1.465 4.331-.147 9.073-.2 12.357 1.718 2.212 1.224 2.543 4.22 2.609 7.083.053 5.699.146 11.544.199 17.256 0 1.505-.357 3.049-1.271 4.261-2.941 3.595-8.04 4.354-12.133 6.085-12.41 4.727-21.27 5.938-33.283-.946-1.576-.958-2.384-2.729-2.477-4.513-.199-3.01-.185-5.965-.172-9.121.027-4.74.265-9.627.556-14.42-.755-13.422-1.96-26.776-2.278-40.33-.159-3.077-1.02-5.98-.808-8.802 1.484-2.45 3.841-3.981 5.815-5.06.424-.4.768-.905.927-1.464-.318-8.282-3.523-19.147 6.053-20.306 3.999-.426 8.728 1.611 9.787 5.872 1.258 4.448-.132 8.948 1.192 14.034.941 3.981 5.695 4.754 8.808 5.899 2.49 1.038 5.496 2.889 8.49 3.049.344-.107.516-.426.622-.879.186-1.89.159-4.14.133-6.364.834-11.185 1.311-22.516 1.073-33.554-.173-1.558-.782-3.369 1.019-4.061 28.648-1.651 57.813-4.554 86.607-6.378 2.543-.16 5.125-.36 7.642-.453 1.351-.066 2.251.48 2.278 1.811-.927 18.814-2.278 38.653-1.497 57.68.173 1.825.424 3.183-.781 4.54-2.954 1-6.146.587-9.02 1.106-22.039 2.516-43.535 4.46-65.547 7.31-6.172.745-12.318 1.65-18.238 2.836-1.086 0-2.251-.227-2.715-.839l-.106-.16h-.013Zm133.836 12.968c-.132-1.092-.993-1.451-1.549-2.703-.252-.52-.438-1.079-.689-1.598-.437-1.291-1.616-2.077-2.225-3.195-.583-1.359-.331-3.382-1.06-4.714-1.377-2.037-4.596-.506-5.602 1.265-3.749 6.551-3.179 14.913.583 21.304.755 1.504-.901 2.157-1.934 2.809-4.119 2.184-10.318 5.127-12.172 11.132-.556.506-1.099.545-1.735.146-3.06-2.716-6.609-4.966-8.636-7.736-1.523-3.116-1.192-6.897-3.218-9.853-1.364-2.317-3.165-4.5-5.47-5.885-2.291-1.305-5.708.6-5.351 3.329a58.6 58.6 0 0 0 2.04 11.89c-.053 1.185-1.099 1.225-2.079 1.411-6.119 1.292-10.967 3.635-14.252 7.31-.357.386-.741.866-1.258.866-2.371-.919-4.914-2.371-7.668-2.397-3.788-.107-5.828-4.487-5.139-7.856 1.139-5.233 3.205-11.184 2.198-17.576-1.033-2.995-5.258-5.152-9.139-4.034-7.324 2.77-9.456 12.636-7.708 19.639.503 2.943 2.821 7.59-.689 9.294-2.37.999-5.284 1.332-7.814 2.077-6.265 1.691-12.635 5.42-15.801 11.398-.41.759-.636 1.571-.993 2.303-.676 1.359-2.463 2.876-1.51 4.488.318.466.914.705 1.576.798 12.053.839 24.384-.066 36.198-2.503 5.311-1.438 11.456-1.811 15.8-5.446.424-.319.914-.492 1.391-.173 2.384 2.317 5.96 2.344 9.126 2.157 16.304-.426 36.396-.586 46.316-16.057 1.642-2.57 4.026-4.741 6.238-6.844 1.735-1.824 1.921-4.274 2.093-6.671.225-2.716.437-5.5.159-8.162l-.04-.2.013-.013Zm-91.361 21.903c.199-.333.106-.173 0 0Z"/>
    <path fill="#93b0d8" d="m229.705 29.374-.212 24.273c-.331.066-.662.12-.98.173-.941.146-1.881.266-2.821.346-.212.013-.424.04-.636.053h-.344.092c-.477.014-.953.04-1.43.04-.927 0-1.854-.013-2.781-.08a45.902 45.902 0 0 1-1.351-.106c-.239-.027-.477-.053-.702-.08-.093 0-.186-.027-.278-.04-.186-.08-.477-.067-.689-.107l-.702-.12c-.464-.08-.941-.172-1.404-.266-.927-.2-1.854-.426-2.755-.692-.503-.147-.993-.306-1.497-.466-.265-.093-.543-.186-.807-.28-.08-.026-.186-.08-.265-.093a.12.12 0 0 1 .066.014.31.31 0 0 1-.119-.04c-1.02-.4-2.013-.84-2.994-1.319-.847-.412-1.854-.28-2.702.054a3.68 3.68 0 0 0-1.086.665c-.278.253-.635.64-.649 1.052-.092 1.864-.185 3.728-.264 5.58-.04.851-.04 1.717-.199 2.556-.013.093-.04.186-.066.28-.027.146-.173.372-.239.479v.026l-.026.027c-.04.04-.066.08-.106.12.053-.027.013.04-.066.093-.014 0-.04.026-.053.04-.027.027-.054.066-.08.093.026-.04.04-.053.066-.08l-.159.12s-.026.013-.039.027a9.39 9.39 0 0 1-.822.412c-.039.014-.158.067-.264.107a2.61 2.61 0 0 0-.159.066c-.318.12-.636.24-.941.36-1.708.679-3.536 1.571-4.662 3.089-.582.786-1.046 1.704-1.02 2.716.027.879.265 1.705.384 2.57 0 .2-.013.386-.052.573v.013a.842.842 0 0 0-.093.067l-.106.08c-.199.12-.398.226-.596.332-.199.107-.384.2-.583.293-.04.027-.093.04-.132.067-.199.066-.411.146-.61.2l-.159.04-.556.08h-.159c-.106 0-.212 0-.318-.014.027 0 .053 0 .08.013-.027 0-.053 0-.08-.013h-.026c-.278-.027-.186-.04-.04-.013-.132-.027-.278-.054-.41-.08a1.279 1.279 0 0 1-.212-.067c-.119-.053-.252-.106-.371-.173a6.295 6.295 0 0 1-.702-.453 7.314 7.314 0 0 1-1.497-1.757 8.05 8.05 0 0 1-.914-3.063c0-.213-.026-.426-.04-.625 0 .146.027.293.04.439a8.969 8.969 0 0 1 .371-2.77c.186-.519.384-1.025.636-1.517.132-.267.291-.52.45-.786.066-.107.146-.213.212-.32v-.013c.013-.013.027-.027.04-.053.344-.466.715-.919 1.112-1.345.093-.093.173-.186.265-.28.106-.093.57-.479.08-.08.238-.186.463-.399.702-.585.318-.267.609-.546.728-.959.119-.373.04-.6-.159-.932-1.099-1.837-2.212-3.688-3.708-5.22-1.563-1.584-3.589-2.849-5.801-3.208-2.729-.453-5.364.253-7.616 1.81-1.814 1.265-3.192 3.063-4.397 4.9-2.106 3.223-3.497 6.91-4.212 10.692a30.177 30.177 0 0 0-.517 5.672c0 1.958.133 3.968.543 5.886a28.739 28.739 0 0 0 1.948 5.991c.45.999.98 1.97 1.523 2.916.543.946 1.165 1.824 1.735 2.743.344.626.556 1.252.635 1.957.053.999 0 1.998 0 2.983 0 1.105-.026 2.21-.039 3.315l-.08 6.631c-.053 4.407-.066 8.828-.079 13.235 0 2.131-.12 4.301.119 6.418.225 1.944 1.073 3.688 2.742 4.753 2 1.279 4.86.959 6.648-.559.875-.746 1.444-1.664 1.762-2.756.026-.093.066-.2.079-.293 0-.013 0-.04.014-.053-.093.253-.08.173.066-.24.053-.213.079-.426.106-.639.066-.626.026-1.265-.04-1.904-.119-1.172-.477-2.317-.755-3.449-.291-1.198-.583-2.41-.835-3.621-.49-2.29-.9-4.607-1.112-6.937-.185-2.57-.159-5.206.398-7.723.026-.133.066-.28.105-.413.014-.066.067-.213.08-.28.093-.266.198-.519.318-.772.066-.12.132-.253.199-.372.013-.027.039-.054.065-.094.146-.173.279-.346.438-.506l.198-.16c.093-.066.186-.132.279-.2.198-.106.397-.212.609-.319.04-.013.079-.04.119-.053.026 0 .066-.026.093-.04a17.92 17.92 0 0 1 1.443-.44c.04 0 .093-.026.133-.026h.053c.251-.053.516-.106.768-.146 1.298-.24 2.609-.453 3.907-.68 2.755-.479 5.497-.985 8.238-1.49 3.126-.573 6.252-1.132 9.377-1.718.57-.107 1.206-.293 1.683-.68.344-.279.754-.652.781-1.131.265-4.767.848-9.52 1.55-14.247.172-1.185.37-2.357.569-3.542.106-.586.199-1.171.305-1.77.039-.24.079-.467.132-.706a4.16 4.16 0 0 1 .093-.386c0-.04 0-.054.013-.067 0-.013 0-.027.026-.053.04-.08.08-.173.12-.253l.304-.04c.067 0 .133 0 .199-.014h.172c.384-.013.782-.04 1.166-.066a126.61 126.61 0 0 0 15.748-1.85c2.45-.44 4.874-.96 7.297-1.532 2.212-.52 4.808-.999 6.345-2.836 1.576-1.89 1.205-4.5.463-6.671-.132-.386-.304-.759-.463-1.132-1.113-.48-2.398-1.278-1.908-2.65.384-1.078 1.603-1.584 2.437-2.25 2.755-2.223 3.722-5.885 4.861-9.08.278-.8 1.722-1.039 1.868 0 .066.452.132.985.397 1.371.145.213.238.28.477.32.476.093 1.258-.147 1.88-.347 1.444-.466 2.954-1.131 4.49-.838 1.603.306 2.821 1.757 3.099 3.328.318 1.745-.198 3.542-.966 5.087a9.24 9.24 0 0 1-.596 1.038l50.157-6.005.689-25.631-79.945 9.04-.132.04Z"/>
    <path fill="#e4ebf8" d="M357.409 84.681c-.225-1.93-.172-4.247-1.351-5.912-.954-1.291-2.503-1.717-3.497-2.836-.808-.865-1.682-1.837-2.861-2.01-5.748-.253-3.629 7.989-1.125 10.692.953 1.225 2.119 2.423 2.887 3.701.53.799 1.073 1.77 1.907 2.277.967.586 2.344.48 3.258-.187 1.497-.985.954-3.528.808-5.459l-.026-.253v-.013ZM303.874 30.73c.556 2.437.225 9.094-.039 11.837a1.088 1.088 0 0 1-1.034.985c-.596 0-1.033-.466-1.006-1.171l.278-6.778c.053-1.318-.106-5.392 1.007-5.525.37-.04.688.2.794.652Zm-6.953 4.234c.132 2.397.212 4.74.106 7.31-.027.786-.451 1.172-.954 1.225-.543.053-1.086-.36-1.099-1.092v-7.23c-.014-.652.384-1.145.901-1.185.49-.04.993.306 1.032.986l.014-.014Zm2.556-7.949c.636 1.159-4.728 3.17-5.907 3.742-1.748.839-3.682 2.356-5.245 1.917l-4-1.145c-.728-.213-1.894.586-2.49 1.025-1.152.866-2.265 1.039-3.536 1.492-1.404.492-2.676 1.185-4.159 1.504-3.245.706-3.258 2.81-5.602 1.784-1.391-.612-2.53-1.49-3.815-2.45-2.9.653-4.503 2.743-6.357 3.462-.331.133-.623.067-.808-.173-.543-.679 1.828-1.904 2.132-2.183 1.086-1 2.345-1.465 3.643-2.051 2.688-1.212 3.006 1.505 6.384 2.423 1.403-1.131 2.887-1.904 4.609-2.29 1.086-.24 2-.825 3.033-1.171l2.635-.866c1.431-.466 2.808-2.25 4.331-1.93l4.954 1.051c1.258.267 2.41-1.078 3.563-1.558 1.999-.825 3.92-1.57 5.761-2.716.304-.186.702-.173.874.12v.013Zm21.695 55.976c3.178 4.248 4.106 11.011 1.47 15.818-.477.919-.994 1.851-1.033 2.876-.08 1.904 1.47 3.662 1.735 5.925.397 2.237-.252 4.394-.676 6.551-.437 1.931-.463 4.141-1.337 5.126-.927 1.052-1.868-.239-2.159-1.211-.649-2.637-2.159-4.474-3.139-7.403-1.099-2.53 0-5.739-1.682-7.963-3.828-3.342-6.503-7.762-9.007-12.09-4.251-10.425 9.537-16.164 15.682-7.815l.146.2v-.014Zm-42.237-41.849.145-3.635c.027-.639.451-1.051.98-1.078.53-.027 1.007.306 1.033.985a25.721 25.721 0 0 1-.079 3.915c-.265 2.65.239 4.34-1.073 4.607-1.827.386-1.046-3.755-1.006-4.794Zm-7.033 5.66c-.557-.08-.888-.52-.874-1.186l.052-3.981c0-.506.279-.865.623-.959.398-.12 1.113-.093 1.205.48.212 1.291.861 5.911-1.006 5.645Zm18.953 72.086c6.45 9.081-6.781 9.653-12.636 10.719-10.834 1.557-21.734 3.102-32.687 3.821-3.378.32-12.066.413-9.166-5.033 3.855-5.752 9.656-10.892 16.437-12.836 5.258-1.558 10.808-.719 16.105-1.344 9.258-1.212 14.781-4.008 21.788 4.487l.146.199.013-.013Zm-3.603-74.936c-.251-1.984-.079-3.955.199-5.952.04-.32.543-.453.742-.426 1.165.133 1.099 5.46 1.006 6.498-.053.572-.596.812-.993.772-.384-.027-.887-.36-.954-.892Zm76.342 67.746c-1.06-11.664-8.582-14.327-18.82-10.679-8.835 2.144-22.212 10.639-12.742 20.053 3.828 2.583 8.9.519 13.258.133a122.755 122.755 0 0 0 10.49-2.277c3.841-.852 8.41-2.41 7.827-6.99v-.24h-.013Z"/>
    <path fill="#00519e" d="m238.128 7.684-6.437.333-11.483 1.185c-.159 2.117.238 5.339.238 7.323l.053 17.123.305 6.47-.132 9.148c0 .693-.504 1.079-.967 1.079-.729 0-1.1-.52-1.086-1.279l.119-8.188-.305-6.724-.026-18.854c0-2.383-.053-4.634.185-6.95.08-.76.45-1.199 1.232-1.279l6.45-.652c4-.4 7.854-.613 11.854-.879l9.417-.626 36.052-2.223 21.549-1.305L317.397.36c.331-.027.596-.267.914-.133.238.093.424.452.424.905l-.08 7.962c-.026 2.29-.265 4.394-.265 6.724l-.039 26.43-.596 9.813c-.279 4.647.145 9.174-.424 13.755-.093.745-.623.972-1.179.945-.649-.027-.888-.56-.848-1.291.212-3.17.424-6.245.318-9.428-.172-5.512.636-9.493.649-14.433l.066-26.55.53-7.962c.106-1.505 0-2.956.238-4.5.053-.36-.225-.613-.569-.56-2.901.386-5.549.813-8.45 1.012L282.868 4.82l-35.575 2.237-9.178.626h.013ZM194.434 96.56l11.125-1.465 5.232-.706 5.338-.812c2.384-.36 4.781.44 7.192.626 1.192.093 2.251.626 3.403.799 1.325.2.146 6.99.133 8.974l-.133 17.363c0 .772.504 1.305 1.139 1.238.53-.053.941-.533.941-1.225 0-6.005-.106-11.864.212-17.882.146-2.729.516-5.246.476-7.975-.039-2.73-1.867-2.104-5.218-2.863-2.159-.493-4.37-.373-6.529-.706-1.404-.213-2.557.053-3.908.293-2.688.453-5.311.786-8.026 1.159l-11.933 1.624c-3.907.532-7.656.746-11.457 1.718-.993.252-2.039.2-2.914.798-2.092 1.412-1.205 5.659-1.192 7.683.027 5.033.239 9.88.583 14.913.172 2.53-.093 4.94.252 7.403.092.666.437 1.078 1.046 1.092.437 0 1.033-.413 1.007-1.092l-.212-7.39c-.133-4.78-.371-9.387-.557-14.154l-.225-5.672c-.013-.36-.49-1.211-.119-1.478 1.219-.532 2.636-.426 4.066-.785 3.497-.88 6.848-1.012 10.291-1.452l-.013-.026Zm135.638 14.02c-.199.386-.066.826.265.946.212.066.583-.027.781-.307 3.841-5.552 8.146-9.213 14.728-11.104 1.696-.48 3.166-1.092 5.033-.972 2.079.12 2.106-1.385 6.424 2.05 1.271 1.012 2.583 1.944 3.351 3.436 1.139 2.236 1.722 4.607 2.424 6.963.172.559.86.786 1.205.693.344-.094.794-.6.702-1.132-1.245-6.844-3.96-10.572-10.238-13.515-1.391-5.858 1.298-3.169 3.589-8.215 1.205-2.65-.45-3.449.093-5.366.582-2.05-.173-5.739-2.173-6.777-1.046-.546-1.523-1.212-2.198-2.157-1.828-2.543-6.08-3.196-8.768-.892-.358.306-.172 1.025.119 1.211.199.133.583.067.901-.16 2.159-1.517 5.165-1.291 6.688.972.557.813.927 1.612 1.894 2.051 1.96.892 2.411 4.048 1.921 5.552-.411 1.239-.172 2.477-.212 3.742-.04 1.571-1.351 2.61-2.252 3.715-.516.639-.689 1.438-1.112 2.143-.649 1.106-.358 2.477-.146 3.808-4.079.24-4.9-.053-8.688 1.465-.265-1.957-.874-3.835-2.146-5.273-1.02-1.145-1.047-2.29-.98-3.728.172-3.888.874-9.733 3.351-12.862.159-.2.013-.612-.133-.68-.132-.052-.331.054-.463.108-1.563.745-2.053 2.223-2.742 3.634-1.43 2.996-1.907 6.032-2.092 9.347-.345 6.472 2.542 4.035 3.138 10.133-2.596.706-9.165 5.819-10.37 7.67-.742 1.118-1.351 2.276-1.96 3.475l.066.026ZM195.944 71.555c-.504-.106-1.033.08-1.258.68l-2.067 5.339c-.569 1.451-1.258 2.69-1.867 4.127-.715 1.678-1.815 3.316-2.98 4.7-1.166 1.385-2.808 2.21-4.265 3.196-.702.48-1.285 1.092-2.066 1.411-2.146.892-4.476 1.012-6.768.76-2.397-.28-3.907-1.891-5.192-3.782-.914-1.332-1.708-2.583-2.423-4.035-.716-1.45-.954-2.849-1.166-4.566l-.676-5.433-.198-3.741c-.199-3.742 1.099-8.229 3.02-11.278 1.099-1.744 2.304-3.302 3.562-4.913 1.934-2.477 4.649-4.048 7.351-5.526.384-.213 1.113-1.172.636-1.265-1.788-.346-3.391.666-4.755 1.638-1.722 1.238-3.497 2.357-4.728 4.127-1.153 1.651-2.49 3.17-3.484 4.94-1.536 2.743-2.331 5.792-3.165 8.815v8.188c.517 2.29.848 4.514.848 6.898.781 2.196 1.92 4.22 3.324 6.058l2.198 2.876c-.41.852-.331 1.664-.397 2.57l-.755 10.412c-.092 1.265.014 5.419 2.027 4.66.384-.146.516-.666.423-1.158l-.397-2.344.861-12.609c.795.053 1.205.533 1.881.666 2.847.586 5.761.559 8.476-.506.954-.373 1.682-1.092 2.49-1.705 1.444-1.091 3.153-1.89 4.345-3.288 1.351-1.572 2.49-3.369 3.417-5.22.622-1.251 1.006-2.53 1.814-3.821.755-1.212 3.907-6.431 1.947-6.844l-.013-.027Zm41.257 4.195c2.675-.16 5.178-.52 7.867-.826l19.536-2.224 15.814-2.023c3.589-.453 7.019-.52 10.596-.853l5.456-.492 12.345-1.625c1.059-.133 5.575.08 5.165-1.557-.08-.32-.451-.64-.941-.613-1.496.067-2.94-.133-4.437.067l-11.88 1.584-4.728.48c-5.643.559-11.139.798-16.781 1.557l-10.079 1.372-20.264 2.982c-2.557.373-4.954.706-7.524.826-6.781.306-9.39 1.957-15.814 2.356l-.41-4.154c-.066-.692-.636-1.065-1.152-1.025-1.457.133-.729 3.329-.57 5.313.04.4.265.665.503.825.464.293 7.735-.785 9.1-1.025 2.754-.506 5.403-.759 8.185-.932l.013-.013Zm79.878 39.824c2.106 4.301.49 6.858 2.265 6.751 1.775-.106.914-4.207.45-5.512-1.219-3.489-1.708-3.342-2.847-7.35-1.457-5.073 1.576-7.03-.994-7.55-1.006-1.038-2.159-1.664-3.377-2.396-2.676-1.625-3.02-4.687-3.934-7.55-1.483-.839-2.821-2.157-3.205-3.915-.291-1.344.278-2.65.702-3.834.887-2.477 2.689-4.141 5.086-4.953 1.894-.64 3.708-.6 5.47.44 1.55.904 2.94 1.93 4.013 3.408.172.226.675.306.821.173.94-.812-1.682-5.153-5.549-5.979-2.543-.546-5.603.174-7.749 1.518-3.033 1.918-5.576 7.51-4.039 10.959-1.364 4.074-1.139 7.136.98 10.745 1.537 2.623.503 3.874 1.815 3.701.357-.04.595-.493.529-.998-.609-4.394-3.324-6.924-1.602-11.638l1.55.946c.98 4.913 1.311 6.191 5.191 9.107l2.12 1.585c.238.346-.107 1.557-.517 1.637-1.444.293-2.927.426-4.384.506-1.457.08-4.119-.719-4.437-.173-.318.546.225 1.198.808 1.345 3.88.985 5.046-.187 8.225-.027.132 3.396 1.271 6.245 2.649 9.041l-.04.013Zm-40.608-16.816c-.755 2.942-1.152 5.845-.848 8.867.106 1.039.861 1.931 1.523 1.625.332-.16.623-.599.583-1.025-.821-10.373 4.265-13.555 1.656-21.144-1.047-3.05-1.007-3.516-4.132-5.686-1.391-.959-2.954-1.504-4.755-1.145-2.689.52-5.364 2.17-6.848 4.54-3.231 5.153-4.371 11.877-3.814 17.869.145 1.478 1.02 2.783 1.563 4.101 1.179 2.876-.106 5.193.927 5.366.265.053.675.106.94-.093.795-.639.742-1.691.662-2.637-.397-4.86-2.304-4.3-2.344-8.907-.04-5.207.967-10.413 3.841-14.82 1.086-1.664 3.073-2.65 4.901-3.235 2.847-.92 5.734 1.57 7.138 3.675 1.921 2.889-.132 9.36-.98 12.635l-.013.014Zm-74.329-38.973c-.317 2.703-3.019 1.585-5.364 3.169-.874.586-4.37 3.768-3.112 4.58.225.147.728.213 1.02-.04 1.735-1.478 1.854-3.395 5.059-4.127 1.219-.28 2.715-.852 3.258-2.077.755-1.731.411-3.582.331-5.38 1.192-1.038 1.576-2.782.636-4.06-1.112-1.519-3.046-.014-3.338-1.931l-.596-3.968c1.232-.333 1.709-1.199 1.709-2.33 0-1.718-1.192-2.983-2.927-2.983-1.907 0-3.179 1.571-2.94 3.475.344 2.783 2.106 2.01 2.198 2.757.186 1.49.371 2.822.689 4.327-1.788.306-3.02 1.185-4.344 2.184-.583.439-1.325.466-1.616 1.304-.543 1.585-1.325 3.063-2.013 4.62-1.537 3.476-3.06 3.303-3.126 3.49-.795 2.29 3.272 6.497 6.57 7.242.49.107.887-.12.913-.506.027-.306-.093-.732-.463-.878-2.318-.919-4.358-2.41-5.629-4.767 3.602-2.21 3.324-6.351 5.562-8.641 1.974-2.01 5.139-2.703 7.855-2.424.622.067.278 1.212.013 1.478-1.351 1.319.146 1.492-.331 5.486h-.014Zm57.297-9.627c.913-.652 1.668-1.597 1.509-2.703-.053-.332-.437-.532-.622-.878.848-.892.503-4.088-1.272-4.088-1.774 0-3.655.28-5.364.892-.94.333-1.708 1.025-2.715 1.265-.079-1.664-.026-3.409-1.271-4.474-.636-.546-1.643.32-1.775 1.052-.874 4.86-2.397 3.835-2.702 7.297-.093 1.025-.834 2.157-1.881 2.21-.145 0-2.967-.573-2.622.679.291 1.039 2.861-.56 4.437 3.302.874 2.144 1.152 4.207-.119 6.325-.212.346.106.972.45 1.065 1.47.426 2.132-3.422 2.079-4.514 4.609-2.197 6.98-.919 11.007-4.807.768-.745 1.033-1.61.847-2.636l.014.013Zm.317-2.862c.941 1.251-3.616 2.822-3.88 3.555-.08.226-.119.639.132.812.556.36 1.02-.2 1.735.013-3.536 3.515-6.238 2.543-10.41 4.367-.57-1.278-.742-2.516-1.536-3.515l-.808-1.011c2.304-2.424.781-2.89 2.503-5.406.954-1.398 1.444-2.89 1.629-4.527 1.205 1.677-.265 3.927.503 6.724.106.399.159.745.517.798.45.054.914-.2.861-.745l-.199-2.144c2.424-1.318 4.993-1.997 7.881-2.077-.676.759-5.087 2.69-5.153 2.903-.119.36-.039.652.239.839.252.16.596.146.94 0l4.45-2.024c-1.165 2.277-4.397 2.05-4.251 3.635.159 1.824 4.185-1.638 4.821-2.184l.026-.013Zm-48.475 32.022-.132-7.123c-.053-2.69 8.437-.626 12.821-1.691 1.086-.267 2.039-.64 3.191-.72 1.153-.08 2.398-.213 3.523-.639 4.331-1.624 6.239-.945 10.371-3.501.755-.467 1.377-1 2.318-1.092.9-1.292 1.192-2.73 1.271-4.288.331-6.497-4.794-9.027-5.125-7.576-.172.706 4.781 2.676 3.059 9.44-.225.906-.755 1.425-1.51 1.851-2.821 1.558-5.801 2.384-8.9 3.276-1.669.479-3.192 1.145-4.98 1.131-1.325 0-2.569.613-3.881.6l-9.139-.054c-1.576 0-4.463.213-4.45 2.25l.08 11.145c-.411 1.052-.557 2.09-.636 3.196l-.41 5.792c-.053.665.251 1.145.834 1.158 1.549.027.901-4.966 1.51-8.215.318-1.691.225-3.222.185-4.953v.013Zm113.718 30.558c3.709 3.808 4.543 7.256 5.311 12.316.093.612.662.959 1.113.825.45-.133.768-.572.715-1.158-.397-4.953-2.384-10.386-6.251-13.581-.371-.306-1.073-.28-1.232-.839-.556-2.05-1.669-3.728-3.338-5.14 2.066-1.677 3.404-5.965 3.497-8.255.092-2.09-.172-4.167-.689-6.165-.252-.998-1.51-3.928-2.45-3.155-.159.133-.371.572-.225.892 1.947 4.514 2.423 9.533-.252 13.847-.384.613-1.126.972-1.271 1.705-.583 3.169 4.211 4.74 2.648 10.332-.966 3.435.994 4.9-1.191 7.563-.424.506-.941 1.531-.424 2.09.609.666 1.47-.066 1.88-.572 2.888-3.422 1.073-5.166 1.709-8.375l.464-2.317-.014-.013ZM190.236 25.859c3.894-1.066 3.96 1.557 8.794 2.81.278.066.927.891 1.152.439 1.166-2.33-.635-5.446-2.317-7.137-1.02-1.026-2.305-1.638-3.497-2.41-1.868-1.212-3.96-1.292-5.907-.173-.795.452-1.51.892-1.669 1.97-1.444-.599-2.556-.12-3.576.666-1.762 1.345-2.927 3.05-3.338 5.273-.715 3.834-1.033 6.404.556 10.265.477 1.146 1.126 2.157 1.683 3.25.264.519.781.798 1.218.758.437-.04.94-.16 1.073-.719 1.841-8.015 3.841-5.579 5.483-11.344.331-1.159.623-2.25.345-3.635v-.013Zm102.672 98.543c-.371-2.383-1.034-4.607-2.252-6.671-.199-.346.159-.679.225-.932.557-2.077 1.802-3.568 3.364-4.939 1.815-1.612 3.616-3.01 5.775-4.155 1.338-.705 2.609-1.438 4.132-1.731.331-.066.477-.386.49-.625.04-.879-1.735-.706-2.887-.253-3.245 1.291-5.894 3.328-8.582 5.485-1.643 1.318-2.994 2.61-3.749 4.794-1.695-1.851-3.218-3.076-5.284-3.928l-4.742-1.944c-.371-.147-.9-.014-1.073.186-.198.253-.172.746.053 1.079 1.51 2.237 7.589 1.185 11.02 8.335 2.185 4.54.98 6.804 2.728 6.511.543-.093.888-.546.782-1.212Zm-106.103-23.061c4.967.958 7.179.586 12.119-.293 6.728-1.212 13.311-2.277 20.132-3.05 1.973-.226 3.775-.545 5.602-1.078.464-.133.596-.652.49-.905-.106-.266-.463-.613-.874-.52-2.741.56-5.391.706-8.159 1.106l-9.271 1.318-6.94 1.265-7.086 1.544c-1.351.32-11.721-2.876-11.284-.852a.84.84 0 0 0 .636.586l4.635.892v-.013Zm66.952 12.849c1.695-.52 3.311-1.039 5.046-1.398.305-.067.477-.36.516-.52.278-1.065-2.98-1.105-3.324-.998l-8.715 2.729c-4.967 1.558-8.887 5.579-11.271 10.173l-3.113 6.031c-.238.48 0 1.225.318 1.385.49.227 1.007.133 1.325-.373 1.351-2.183 2.264-4.473 3.43-6.777 1.377-2.729 6.861-7.509 9.907-8.455l5.867-1.811.014.014Zm38.528-59.145c3.271-.253 6.384-.4 9.616-.972 1.589-.28 3.152-.16 4.728-.56.384-.106 2.318.28 2.464-.852.053-.439-.027-1.038-.597-1.171-.953-.213-1.96-.16-2.927.066-1.43.333-2.834.253-4.251.453l-9.086 1.318c-1.669.24-3.218.6-4.94.706l-8.344.533c-1.364.08-7.682.146-7.298 1.797.053.253.503.706.914.64 3.02-.573 10.622-1.292 13.695-1.332 2.053-.027 3.986-.453 6.039-.613l-.013-.013Zm-38.052-33.22 5.947-.746 6.755-.72c2.49-.266 4.94-.279 7.377-.772.437-.093.755-.506.53-.825-.133-.173-.477-.493-.848-.413-2.463.52-4.874.613-7.364.866l-7.205.705-5.457.466c-2.688.227-5.244.453-7.933.733l-5.96.612c-2.848.293-5.616.44-8.384.999-.371.08-.636.4-.795.572-.158.173-.238.812.08.919 2.437.812 10.9-1.238 15.059-1.491 2.821-.16 5.43-.56 8.198-.906Zm21.231 39.917 5.232-.452c3.987-.347 7.841-.546 11.828-1.066l6.185-.785 5.88-.546c1.192-.107 2.278-.386 3.484-.426.371 0 .635-.373.688-.613.543-2.21-12.794.307-13.986.44l-9.761 1.185c-1.139.133-2.185.386-3.364.373-1.179-.014-2.278.332-3.457.399-1.258.08-6.331.2-6.265 1.345.013.266.345.506.715.466l2.808-.333.013.013Zm-49.826-8.787c-2.026.319-3.827.053-5.761-.373-2.53-.546-4.901-1.132-7.324-2.09-.967-.387-1.921-.6-2.874-1.093-1.351-.692-2.755-1.225-4.186-1.784-.423-.16-.98.04-1.059.413-.252 1.105 2.649 1.797 3.841 2.423 1.284.666 2.569 1.079 3.88 1.598 2.411.959 4.795 1.518 7.311 2.05 2.119.453 4.08.76 6.318.427l5.417-.813c2.093-.306 4.079-.679 6.212-.665.622 0 1.046-.28.98-.892-.159-1.625-6.384-.227-7.801 0l-4.94.772-.014.027Zm-26.542-13.808c-.053.572.331.825.834.772.941-.12.543-3.568.649-4.727.173-1.664.08-3.741-1.47-4.806-1.364-.919-3.205.16-3.893 1.598-1.02-1.425-2.424-1.745-3.815-1-1.099.587-1.722 1.399-2.026 2.637-.438 1.824.37 3.688 2.238 4.274 1.443.466 2.874-.173 3.616-1.49 1.099 1.33 2.609 1.237 3.973.425.278 1.159-.172 1.571-.119 2.304l.013.013Zm-1.841-3.435c-1.324-.24-1.457-2.876-.609-3.782.331-.36 1.112-.945 1.735-.532 1.02.665 1.311 2.33.795 3.461-.384.866-1.299.972-1.934.853h.013Zm-5.761.532c-.57-.44-.835-1.065-.742-1.93.119-1.159 1.06-2.37 2.371-2.237 1.973.2 1.112 3.635.476 4.22-.675.626-1.549.387-2.105-.04v-.013Zm2.318 85.375c.013-3.861.198-7.576-.04-11.424-.146-2.277-.344-4.42-.265-6.711 0-.332-.146-.639-.331-.719-1.987-.719-1.139 7.017-1.06 8.402.345 6.458-.304 13.089.067 19.626.039.6.277 1.012.807 1.012.504 0 .782-.413.782-1.145l.04-9.054v.013Zm-22.741-6.204c.145-1.092.622-4.82-.371-5.113-1.099-.333-1.656 2.53-1.523 4.127l.331 3.942c.212 2.436.212 4.766-.106 7.216-.133 1.025.066 2.171.821 2.823.344.306.98.173 1.245-.053.185-.16.437-.599.291-.959-.993-2.53-1.099-9.054-.702-11.97l.014-.013ZM272.1 97.945c-3.231-2.503-4.728-6.377-4.688-10.465 0-.306-.331-.586-.398-.759-.066-.173-.702-.213-.768.04-.477 2.064-.159 4.114.477 6.125 1.06 3.342 2.993 6.271 5.973 8.109.491.293 1.007.173 1.364-.067.279-.186.663-.945.266-1.252l-2.252-1.73h.026Zm-86.686-34.658c-.913-.866-2.238-.533-3.019.16-1.788 1.597-3.59 3.089-5.258 4.833-1.788 1.85-3.55 3.528-5.722 4.94-.398.266-.371.958-.172 1.198.847 1.065 4.622-2.516 5.178-3.129 2.543-2.716 5.828-5.685 8.993-8.016v.014Zm54.37-46.749c-.04-.918-.623-1.69-1.616-1.61-2.04.172-4.04.359-6.053.785-.411.08-.702.4-.795.732-.092.333.345.56.437.919.093.386-.172.839.053 1.158.623.866 5.153.107 6.464-.12 1.02-.173 1.549-.825 1.51-1.85v-.014Zm24.926 99.21c2.278.732 5.192.971 7.417-.027l5.099-2.29c.49-.227.715-.746.689-1.105-.04-.546-.437-.773-.848-.866-.503-.12-.675.32-1.086.546-4.463 2.463-5.112 2.943-10.887 2.237-.119-.013-3.496-.945-3.298.293.027.146.252.373.583.466l2.344.746h-.013Zm85.295-31.038c-2.053-2.756-2.675-8.654-4.291-7.882-.186.093-.504.453-.384.799 1.774 4.94 2.927 8.242 6.198 12.463.358.466 1.325.24 1.55-.147.159-.28.225-.812-.159-1.345l-2.901-3.9-.013.013ZM247.492 14.288c-1.563-.146-3.219-.413-4.702.306-.861.413-.874 2.25 0 2.623 1.139.506 2.371.253 3.523.12 1.894-.226 5.165.147 4.609-1.611-.45-1.425-2.516.146-3.417-1.438h-.013Zm-58.303 38.36a40.086 40.086 0 0 0-4.039-3.222c-.769-.533-3.033-2.81-3.325-1.944-.265.799 1.815 2.41 2.517 2.956 1.893 1.451 3.642 2.89 5.178 4.713.278.333 1.192.56 1.351.187.186-.44-.172-.892-.092-1.265.463-.546 3.589-3.542 2.145-4.128-.874-.36-1.602 2.117-3.735 2.703Zm85.481-40.184c-.318-1.172-6.556-.426-8.159 0-.755.2-1.258.839-1.285 1.491-.026.653.517 1.198 1.232 1.398 1.218.333 2.331-.066 3.523-.36.676-.16 1.325-.199 1.444-1.21.953-.254 3.43-.573 3.232-1.32h.013ZM186.554 67.4c-.477-.799-.464-2.942-.954-2.982-.132-.014-.397 0-.45.2-1.245 3.568 1.801 6.683 4.807 8.041.927.12 4.199.134 3.828-1.278-.305-1.185-2.583 0-3.576-.48-1.536-.718-2.768-2.05-3.642-3.5h-.013Zm7.8-19.772-3.695-.267c-1.947-.146-3.748-.745-5.403-1.73.357-1.186-.226-3.143-1.02-2.81-.795.333.066 1.677-.53 2.53-.199.266-.305.559-.199.812.292.666 3.801 1.93 4.662 2.13.755.187 7.841 1.518 6.887-.306-.092-.173-.357-.333-.715-.36h.013Zm67.945-32.941c-.172-.44-1.178-.24-1.589-.52-.146-.093.079-.426-.066-.692-.557-.946-4.305-.12-4.993.133-.689.253-.61 1.797-.054 2.17.557.373 1.219.32 1.828.24l4.397-.546c.437-.053.623-.44.491-.799l-.014.014Zm81.216 69.077c-.278.28-.503 1.558-.039 1.93.251.2.688.187.966 0 .371-.252.556-1.81-.159-2.063-.225-.08-.556-.067-.768.133Z"/>
  </g>
  <defs>
    <clipPath id="a">
      <path fill="#fff" d="M0 0h373v120H0z"/>
    </clipPath>
  </defs>
</svg>
