<svg xmlns="http://www.w3.org/2000/svg" width="373" height="120" fill="none" viewBox="0 0 373 120">
  <g clip-path="url(#a)">
    <path fill="#fff" d="m167.782 58.164-.028-.075a3.251 3.251 0 0 1-.086-.202c.038.088.076.176.124.265l-.01.012Z"/>
    <path fill="#fff" d="M351.448 46.892c-1.24-5.617-1.097-11.902-3.949-16.8-6-10.072-20.297-13.833-29.625-15.297a3.529 3.529 0 0 1-.353-.076c-2.709-1.742-5.876-1.78-8.785-2.852-9.633-3.484-22.157-5.668-28.996 6.222-.267.492-.553.732-.982.707-7.03-.19-14.269-.164-21.461-.151-1.554.1-3.834-.19-4.435 2.208-.248 1.755.477 4.09.096 5.743-.916.77-2.509.114-3.644.29a310.293 310.293 0 0 0-9.071.038c-4.292-.1-8.717.619-12.809.619-.515-.543-.296-1.653-.534-2.512-.315-1.767-.83-3.647-1.593-5.086-.248-.354-.582-.657-.964-.631-2.165.24-3.767 3.407-3.767 6.159-.143.833.257 2.108-.315 2.676-2.375.467-4.864.744-7.173 1.843-.391.176-.887.24-1.096-.329-.601-1.93-.945-4.38-2.604-5.276-1.03-.605-2.204-.53-3.3-.404-5.676.922-11.465 2.247-17.007 4.128-5.198 2.423 2.461 16.345-1.478 21.735-1.088 1.439-1.002.076-1.173-1.3-.43-3.358-1.25-7.132-1.307-11.726-.086-1.565-.868-1.982-1.946-2.184-4.654.619-7.44 3.51-10.94 4.835-2.013.744-4.111 1.855-6.2 2.259-.944.088-2.146.883-1.783 2.36 1.449 5.428 1.831 11.385 4.463 15.992 1.145 1.553 2.766-.278 4.092-.505 4.13-1.464 8.26-3.067 12.371-4.417.944-.064.754 1.59 1.04 2.499.276 2.183 1.259 4.38 1.249 6.538-.191.517-1.087.63-1.583.883-.391.152-.506.202-.916.366-1.507.682-3.348 1.389-4.845 2.21a3.055 3.055 0 0 0-1.173 1.438c-.162.417-.21.884-.22 1.376.124 11.713 1.107 23.426 2.786 34.925.238 1.464 1.516 1.552 2.479 1.969 2.28.744 4.617 1.413 6.992 2.145 28.881 8.318 58.087 15.109 87.559 18.226 6.028.821 11.885-1.363 17.274-4.821 10.387-6.336 21.527-12.029 31.733-18.832 2.499-1.944 4.139-5.352 4.864-9.025 1.364-7.068 2.585-14.376 3.358-21.52.181-3.042-1.984-3.875-3.825-4.342-2.871-.921-5.904-1.994-8.909-3.042l-.334-.139c-.715-.277-.305-1.338-.209-1.868.324-1.577.648-3.395.887-5.048 1.182-7.839 3.5-15.664 6.629-22.594.372-1.01 1.182-.694 1.869-.517 4.979 1.186 10.063 3.458 13.582 8.419 1.097 1.502 2.08 3.332 3.243 4.67.763.808 2.251.416 2.661-.896.077-.328.153-.695.105-1.048l-.019-.215-.009-.025Z"/>
    <path fill="#fff" d="m188.261 48.734-.029.038c0-.013.019-.025.019-.038h.01Z"/>
    <path fill="#6694c8" d="M290.155 36.292c-.792-1.615-1.927-2.953-3.205-3.862a8.176 8.176 0 0 0-.973-.593c-.219-.114-.448-.24-.686-.29a2.087 2.087 0 0 0-1.326.126c-.487.214-.907.631-1.174 1.212-.124.277-.181.618-.248.934l-.4 1.83c-.143.656-.286 1.325-.439 1.981a52.675 52.675 0 0 0-.401 2.045 151.08 151.08 0 0 0-.362 1.97c-.057.327-.124.655-.181.984-.067.34-.172.732-.153 1.098.01.214.029.429 0 .63-.028.279.115.544.286.657.248.164.535.177.802.126.105-.025.2-.063.305-.113-.01 0-.019.012-.038.025.019 0 .028 0 .047-.013.029 0 .058-.037.086-.05.038-.013.067-.038.105-.05.076.088.153.189.229.264 0 .316-.009.632-.019.947-.029.24 0 .455.114.631a.88.88 0 0 0 .372.48c.372.278.926.303 1.336.214.324-.075.658-.202.963-.39.048.037.105.075.153.113l.057.492c.057.24.162.417.324.543.153.177.334.29.544.34.181.051.353.064.534.051.2.227.41.43.601.669.391.492.982.48 1.469.328.276-.088.524-.214.763-.416.257-.215.439-.455.601-.808.868-1.805 1.326-3.95 1.297-6.084a15.283 15.283 0 0 0-.382-3.244 12.881 12.881 0 0 0-1.02-2.777h.019Zm-10.052 29.053c-4.664.278-9.156-.139-13.763-.58-.524-.051-.944.593-.906 1.06.115 1.426 7.631 1.615 8.613 1.565l11.512-.619c.468-.025.62-1.01.477-1.224-.696-1.06-4.149-.303-5.933-.19v-.012Zm3.253 7.359c-3.339.442-6.61.656-9.958.202-12.466-1.691-8.918 1.527-8.375 1.464 3.253-.316 6.334 0 9.558.442 1.402.19 8.088.265 9.375-.43.391-.214.458-.77.325-1.16-.096-.278-.534-.569-.925-.518Zm23.396.253-2.776-.543a.94.94 0 0 0-.868.266c-.162.164-.257 1.047-.009 1.123 1.907.517 7.592 3.042 8.012.858.314-1.666-3.949-1.615-4.359-1.691v-.013Zm-30.818 7.838c-3.987.316-7.888.076-11.846-.467-5.256 3.345 16.586 2.399 16.691 2.399.601-.026.868-.745.859-1.263-.048-1.981-3.94-.807-5.695-.669h-.009Zm57.124-62.313c-2.442-1.148-4.254-1.64-5.942-2.082-3.405-.896-6.801-1.793-10.206-2.663-3.338-.846-6.677-1.73-10.053-2.247-3.367-.518-6.801-.758-10.168-.19-3.548.594-7.144 1.995-10.091 4.746-.296.278-.687.745-.591 1.275.095.505.524.656.877.606a46.44 46.44 0 0 1 7.24-.48h.658c.286.013.582.038.868.05a16.86 16.86 0 0 1 1.583.177c.515.089 1.021.19 1.526.354.038.013.191.063.219.076.115.038.229.088.334.139.267.113.535.252.802.403.229.14.457.29.677.455.105.076.067.05.191.151l.371.341c.411.404.783.858 1.136 1.338.725.997 1.249 1.918 1.793 3.042 1.049 2.221 1.802 4.67 2.232 7.232.009.089.028.164.038.253 0 .025.019.138.028.164l.058.454c.047.379.085.757.124 1.136.066.72.124 1.426.152 2.158.057 1.477-.057 2.929-.105 4.405 0 .202.058.38.172.518.582.467 1.154.745 1.822.808a.766.766 0 0 0 .496.542c2.813 1.187 5.608 1.805 8.622 2.701 2.48.733 1.269-.971 3.701-7.257l1.774-4.582c1.106-2.865 3.014-5.15 4.922-7.144 1.383-1.451 2.909-2.448 4.501-3.445a1.27 1.27 0 0 0 .43-.392c.143-.038.296-.076.439-.113.724-.14 1.659-.367 2.05-.733.687-.643-1.412-1.502-2.671-2.233l-.009.037Zm-23.816 31.379c-.562-.139-1.316.038-1.64.619-.277.517.2 1.136.601 1.237l6.858 1.906c.829.227 1.735.378 2.508.075.277-.113.21-.807.067-.959-.963-.997-6.686-2.448-8.394-2.878Zm4.951 11.699c-2.528-.58-4.893-1.375-7.411-1.767-.486-.075-.897.392-.982.783-.105.48.171 1.098.629 1.25l7.163 2.36c.639.214 1.784-.24 1.774-1.237 0-.732-.753-1.288-1.173-1.389Zm-106.97-31.05c-3.339.757-6.629 1.135-9.987 1.791l-3.51.682a.975.975 0 0 0-.658.518c-.152.315-.152.694-.019 1.098.515 1.603.114 3.42 1.745 3.143l6.801-1.174 6.372-1.527c.61-.152 1.106-.455 1.306-1.048.201-.593.077-1.174-.105-1.855-.286-1.111-.992-1.843-1.965-1.616l.02-.013Zm44.228 7.903c-.067-.379-.429-.858-.782-.858h-8.527l-12.19.782-3.892.265c-2.022.14-3.958.329-5.961.657-.4.063-.419 1.4-.353 1.83.449 2.903.334 13.026.124 16.295-.038.618.229 2.007.754 2.07 2.775.328 5.398.164 8.365-.165 5.99-.656 11.627-.833 17.454-.441 1.66.113 3.215.113 4.855.063.763-3.989.878-7.813.697-11.814-.134-2.979-.039-5.806-.554-8.671l.01-.013Zm-46.737 1.11-5.027.91c-2.051.378-5.999.176-5.627 2.397.105.606.562.947 1.116.909a53.52 53.52 0 0 0 9.957-1.552c.668-.165.887-.884.83-1.578-.057-.707-.591-1.212-1.24-1.086h-.009Zm44.219 33.107-10.301 1.148c-2.137.24-4.14.202-6.267.24-3.424.063-6.715-.038-10.082-.921-.753-.202-1.612-.114-2.308.164-.467.189-.553.959-.41 1.413.114.366.553.796 1.02.808l8.871.152c1.831.037 3.443.378 5.16.252l9.767-.745c1.545-.113 3.004-.353 4.55-.227.591.05.972-.555.972-1.11 0-.644-.343-1.237-.982-1.174h.01Zm-48.654-26.05c-1.259.316-5.656.707-5.064 2.626.104.353.534.492.925.48l3.395-.165 5.122-1.224c.668-.164.916-.96.801-1.691-.305-1.97-3.977-.316-5.188 0l.009-.026Zm23.529 21.681 5.036.127c1.393.038 6.715.58 6.973-.985.066-.429.028-.984-.287-1.224-.581-.43-1.106.1-1.697.164-2.995.316-5.923.416-8.909.19-.62-.051-4.197-1.667-4.168.593 0 .795.334 1.325 1.04 1.274l2.022-.151-.01.013Zm19.441-.869c.343-.101.429-1.149.076-1.224-.954-.202-5.961-.77-5.627.946.314 1.628 4.463.593 5.551.278Z"/>
    <path fill="#e4ebf8" d="M274.276 56.411c2.223 2.701 5.704 2.765 8.365 1.225 2.871-1.565 5.503-5.466 2.251-8.722-3.625-4.405-16.663-.96-10.74 7.346l.124.164v-.013Zm-18.189 30.962c1.965-10.237 2.947-20.738 2.985-31.227.048-4.859-.267-9.302-.028-14.073.057-.707.353-1.401.744-1.477.4-.088.696.442.849.922 1.478 4.253 1.116 9.264 2.079 13.505l.067.164c.343.707.391 1.679.372 2.537-.057 3.66-.258 7.333-.401 11.082-.143 3.307-.305 6.601-.448 9.908-.029 4.304-.582 9.72-4.197 11.145-1.507.657-2.556-.378-2.022-2.474v-.012ZM204.906 72.97c1.574-3.9 3.481-7.75 5.084-11.688.372-1.098.276-2.31.801-3.23.629-.872.706-1.995 1.164-2.942.896-1.476 1.764-.997 2.222.165 0-.038-.019-.076-.029-.114 0 .038.019.076.029.126.162.417.276.909.324 1.439l.029.202c.171 5.78-1.126 23.906-7.697 21.482-1.746-.744-3.043-3.168-1.927-5.44Zm126.017 9.934c-.277 4.228-.611 8.76-1.202 13.202-.334 8.154-7.02 11.537-11.732 14.629-9.442 5.415-19.047 10.615-28.7 15.739-5.646 3.257-11.827 4.582-17.951 3.396-10.291-1.578-20.363-4.683-30.34-8.268-11.436-2.284-23.111-4.657-34.404-7.194-3.939-1.022-8.069-1.54-11.913-2.461-.944-.303-1.965-.19-2.947-.228-2.413-.467-4.989-1.577-6.648-3.559-1.307-1.552-1.173-3.862-1.565-6.008-1.611-5.983-1.755-12.218-2.079-18.529-.019-2.196-.706-5.465 1.231-6.513.992-.492 1.974.025 2.947.366 2.318 1.048 4.721 2.424 7.239 2.74 29.673 6.638 59.232 13.391 89.105 18.806 1.001.076 1.812-.694 2.861-.96 1.212-.277 2.576-.277 3.491-.454 7.488-2.335 15.652-3.761 22.577-7.598 2.747-2.335 6.114-2.36 8.784-4.897 2.824-2.336 5.275-4.469 8.155-5.428 1.021-.151 1.87-.543 2.709-1.414.372-.29.782-.403.983.165l.038.151c.172 1.401-.487 2.903-.63 4.33l-.009-.013ZM214.091 55.023c-.048-.076-.105-.151-.153-.227.01 0 .01.025.019.025.039.063.096.126.134.202Zm100.15-30.52c2.432-1.325 5.341-.441 7.363 1.528 1.164 1.136-1.841 4.62-2.633 7.005l-1.812 5.515c-2.06 0-4.063-.517-5.971-1.325-3.166-1.338 1.355-11.801 3.053-12.723Zm7.087 47.105c1.23-1.691 2.842-.177 4.215.354.897.555 2.137.277 2.738 1.25l.038.138c.124 1.464-1.345 2.083-2.232 2.373a85.875 85.875 0 0 0-4.588 2.158c-.563.19-1.202.328-1.621-.227-.315-.48-.086-1.186.095-1.704.401-1.148.715-3.092 1.355-4.33v-.012Zm-34.109 25.736c.201-.063.115-.038 0 0Zm2.184-7.257c2.852-6.513 4.436-13.897 5.952-21.142 2.824-12.887 5.332-26.09 6.143-39.532.448-2.878-.792-7.724 2.108-8.646 1.097-.391 2.098.278 3.09.278.486.038.992-.025 1.459.177l.134.075c1.507 1.288.734 4.62-.353 6.097-.82 1.313-2.47 1.615-2.461 3.622-.4 9.353-1.888 18.44-3.643 27.617-.201 9.214-1.918 18.592-4.541 27.175-1.096 3.56-3.757 6.816-6.819 6.374-.782-.139-1.374-1.073-1.069-2.095Z"/>
    <path fill="#00519e" d="M322.92 59.135c.582-2.764 1.221-5.238 1.564-7.952.486-3.786 2.938-12.053 4.502-14.994 2.146-4.04 3.443-5.794 6.648-8.369 1.65-1.325 3.548-2.297 5.456-2.46 1.192-.102 2.117.958 3.405.706-3.548-3.925-9.882-5.932-14.489-8.103-.848-.404-1.564-.467-2.47-.72l-18.237-5.124c-9.242-2.6-16.949-3.9-25.81 1.476-1.201.733-1.926 2.222-2.947 3.244.601.455 1.164.341 1.851.303 4.73-.252 9.318-.391 14.049-.29 1.469.025 2.842.126 4.178.732 1.65 5.579-.449 16.27-1.126 22.214l-1.182 10.439c-.744 6.513-1.898 12.647-3.234 18.97l-2.537 11.979c-.496 2.322-1.23 4.455-1.574 6.84-.219 1.54-1.04 3.85-2.012 2.967-.725-.644.229-3.648.534-4.696 1.135-3.862 2.108-7.636 2.69-11.713.534-3.761 1.325-7.207 2.05-10.918 1.46-7.46 2.165-14.88 3.11-22.48l1.65-13.378c.381-3.118.515-6.147.305-9.353-1.135.19-2.06.265-3.09.34l-3.539.24-7.526.341-18.847.253c-4.006.05-7.802-.48-11.808-.126.029 2.335.181 4.594-.019 6.98 1.65.252 3.129.088 4.693.555.381.113.477 1.3.496 1.767l.439 8.179c.476 8.961-.172 14.717.114 23.375.21 6.425-.191 12.584-1.021 18.883-.181 1.4-.591 7.106-2.012 6.55-.468-.176-.706-.795-.563-1.464l.591-2.852c1.498-7.157.659-28.16.983-37.07.095-2.55-.153-5.05-.248-7.536l-.334-7.926c-2.661-.303-5.208-.127-7.907-.127h-7.554l-5.256.53-8.002.354c-.353.013-.639-.48-.63-.732.02-1.389 4.588-1.325 5.866-1.439l8.737-.808 9.624-.227c.057-1.704.239-8.04.82-8.911.325-.492 1.088.063 1.498.139 1.688.29 3.262.038 4.941-.038l6.056-.303 12.295-.252c1.211-.026 2.003-3.8 4.569-5.453 4.33-2.802 11.751-4.758 16.434-3.963 3.119.53 6.047 1.01 9.147 1.893l20.011 5.743c.972.278 1.621.984 2.498 1.3l3.635 1.288 6.304 3.016c3.501 1.679 6.973 5.743 8.766 10.426 1.44 3.761 1.831 7.876 2.05 12.066.172 3.231.277 7.119-1.573 9.782-2.814-5.932-5.637-9.946-10.33-12.786-2.909-1.754-5.78-3.092-9.004-3.509-1.65 2.815-4.006 11.802-4.388 15.336-.257 2.41-.925 4.506-1.335 6.866-1.068 6.197-2.213 12.155-4.073 18.302l7.287-3.395c1.069-.505 2.204-.467 3.281-1.048.229-.126.487.139.554.29.333.795-3.034 3.27-3.654 3.56-4.54 2.17-8.822 4.417-13.238 7.043-5.923 3.521-11.856 6.298-18.18 8.179-2.375.706-4.454 1.653-6.743 2.688-4.493 2.057-5.847.505-8.527.417-3.215-.114-6.314-.682-9.519-1.023 1.154.126-21.213-3.635-19.401-3.193l-8.26-2.058c-3.557-.883-7.058-.732-10.625-1.565-4.311-1.022-8.346-2.537-12.647-3.521l-12.276-2.815c-3.949-.908-7.669-1.918-11.665-2.499-3.777-.543-12.39-3.016-15.795-4.935-.534-.303-.611-1.212-.534-1.704.105-.757.82-1.085 1.44-.795 2.213 1.047 4.368 1.906 6.686 2.524 7.392 2.537 13.478 2.398 21.032 4.935 1.392-4.43 2.222-8.822 2.785-13.455l.772-6.361c.105-5.49-.152-10.779-.152-16.27V29.802c0-1.022.496-1.679 1.211-1.755l2.633-.252c1.058-.1 2.088-.202 3.052.34.276.152.219.796.152 1.112-.076.378-.515.441-.915.505l-4.588.719c.038 5.049-.115 9.896.124 14.856.219 4.493.143 8.835.172 13.366l-.821 7.952a64.058 64.058 0 0 1-2.48 12.206c3.653.795 7.078 1.426 10.597 2.46 2.432.72 4.712 1.566 7.182 2.07 4.941 1.591 9.92 1.515 14.889 2.727l8.403 2.057c1.097.265 20.278 3.257 22.92 3.66 2.041.304 3.987.91 6.009 1.364 1.212.278 6.171-.454 7.345-1.022 7.191-3.446 13.2-4.216 20.707-8.52l7.964-4.57c1.545-4.455 2.661-9.011 3.653-13.757l1.297-6.185h-.009Zm25.485-26.24c-.753-2.083-1.945-3.409-3.519-4.469-1.221-.618-2.747-1.464-4.13-1.161-3.644.77-6.629 3.635-8.966 7.624 7.449 1.653 13.935 6.273 18.103 14.603.811-4.91.067-12.344-1.478-16.598h-.01Zm-22.099 69.937c-2.108 1.868-4.331 3.105-6.591 4.632-3.138 2.121-6.162 4.09-9.462 5.769-1.02.517-1.764 1.691-2.766 2.259l-8.756 5.011c-2.203 1.262-13.715 8.57-15.137 8.936l-3.023.795c-3.71-1.085-7.373-1.275-11.122-2.007l-13.105-2.562c-4.254-.833-8.288-1.729-12.466-3.054-7.325-2.31-14.336-2.739-20.908-5.314-2.26-.884-4.444-1.25-6.762-1.742-3.262-.694-6.352-1.881-9.567-2.865-1.574-.48-3.042-.694-4.635-.972-3.558-.619-6.944-1.641-10.454-2.663-3.062-.884-5.942-2.108-8.813-3.598-.782-.403-.954-1.11-1.03-2.12l-.849-11.145-.82-10.577c-.325-4.128-1.126-8.066-.859-12.218.038-.631 1.021-.467 1.335-.556 2.118-.593 4.016-1.464 6.029-2.31.41-.176.495-.883.4-1.199-.372-1.16-3.577.203-4.883.67-3.11 1.085-4.617.15-4.893 3.067-.401 4.24.362 8.267.696 12.508l.868 11.044.849 11.259c.124 1.691.524 3.13 1.86 3.862 2.775 1.515 5.627 2.84 8.632 3.749 3.805 1.161 7.487 2.259 11.359 2.978 2.08.379 3.978.695 6.009 1.364 2.871.959 5.666 1.943 8.613 2.562 2.308.479 4.483.883 6.715 1.767 3.319 1.3 6.61 2.007 10.053 2.663 3.978.757 7.755 1.628 11.656 2.865 3.329 1.061 6.524 1.793 9.929 2.462l15.28 3.004c2.222.441 4.406.378 6.591 1.035 1.545.467 3.052.113 4.578.227 1.802.139 3.214.025 4.855-.934l7.83-4.595 6.133-3.849a67.739 67.739 0 0 1 6.534-3.61c1.812-.896 3.224-2.424 4.931-3.484l9.376-5.806c2.804-1.729 5.465-3.446 8.031-5.806.382-.353 3.682-1.792 2.566-3.61-.801-1.312-3.796 1.225-4.779 2.108h-.028ZM207.442 60.965l4.97-5.705c.505-.58.458-1.678-.077-2.158-.343-.303-.972-.34-1.44.19l-4.864 5.528c-.382.429-.983.277-1.441.113l-5.131-1.918c-2.089-.783-4.025-1.78-6.162-2.398-.419-.127-.782-.619-.696-1.212.277-2.12-.267-3.825-.639-5.768l-1.211-6.425c-.782-4.14-1.545-8.14-2.146-12.319 1.974-.745 3.825-.808 5.77-.921 2.442-.152 4.741-.492 7.125-1.11 2.385-.62 4.579-.758 6.858-1.579.448-.164 1.231-.593 1.431.127l.82 2.915c.162.568.668.631.935.568 1.211-.315-.267-4.09-.725-5.288-.239-.619-1.059-.808-1.593-.695l-6.743 1.44c-2.976.63-5.79 1.337-8.852 1.489-2.222.1-4.425.353-6.467 1.464-.572.315-.619 1.73-.534 2.499.534 4.922 1.536 9.53 2.48 14.326.172.858-.124 1.325-.458 1.969l-2.394 4.48c-.295.543-.868 1.376-.772 2.121.505 4.266 1.612 8.242 2.232 12.483l.868 5.895c.124.833.639 1.249 1.154 1.16.515-.088.963-.731.868-1.615-.239-2.183-.468-4.342-.887-6.5-.592-3.055-1.269-5.907-1.689-9.012-.362-2.663-1.354-.543 1.841-6.362l1.603 4.885c-.954-.416-2.824-1.186-2.948.215-.143 1.64 6.009 3.95 7.345 4.518 3.185 1.338 6.238 2.79 9.681 3.623.811.19 1.44-.53 1.879-1.035l.009.012Zm-41.29-10.488 2.223 6.323c1.011 2.865 2.26 4.102 1.192 5.1-.401.378-1.049.365-1.469-.341-.42-.707-.715-1.515-.925-2.386-.658-2.688-1.622-5.1-2.432-7.7-.639-2.057-1.212-4-2.07-5.931-.477-1.086-.801-2.36-.572-3.535l1.526-.315 3.7-2.108c1.727-.985 14.498-6.059 16.425-5.579.61.151.687.985.839 1.666l2.003 9.063c.134.593.019 1.3-.419 1.438-.306.102-.849-.126-1.002-.795l-1.745-7.737-5.533 10.527c-.515.984-1.154 1.464-2.069 1.11l-5.819-2.246-5.646-1.704 1.774 5.162.019-.012Zm4.731-4.96c1.774.517 3.272 1.438 4.96 1.918.334.063.763 0 .963-.417l5.37-10.69-10.167 3.66c-2.671.96-5.17 2.095-7.736 3.458-.286-.025-.486.29-.534.505-.296 1.325.582-.366 1.669-.05l5.475 1.615Zm127.171 26.392 1.536-7.65c.82-4.089 1.449-8.103 2.022-12.28l1.65-12.08c.772-5.692 1.469-11.915.801-17.582-.105-.87-1.917-.694-1.974.19-.039.656.457 1.06.457 1.653.029 9.832-.505 11.234-1.735 20.637-.687 5.25-1.202 10.375-2.433 15.436-.906 3.736-1.621 7.283-2.413 11.07l-3.252 15.65c-.172.821.095 1.578.667 1.755 1.231.379 1.832-3.193 2.213-5.036l2.461-11.75v-.013ZM228.15 103.4c.486-1.855-.201-3.723-1.126-5.137-1.393-2.108-4.073-3.925-4.063-5.516 1.135-.303 2.098.442 2.938 1.313l1.697 1.767c.534.555 1.202-.114 1.488-.53.363-.518.792-1.578.334-2.26-2.213-3.344-7.039-5.932-9.061-2.84-.572.871-.658 2.108-.41 3.244.916 4.077 4.511 4.519 5.36 8.192-1.144.353-2.232-.391-2.995-1.464l-2.07-2.928c-.553-.783-2.394.201-2.584.959-.363 1.451.725 2.436 1.736 3.85 1.43 1.994 3.233 3.572 5.532 3.748 1.459.114 2.775-.757 3.214-2.398h.01Zm73.175-29.17 1.069-6.31 2.89-17.721c1.049-6.462 1.402-12.824 1.783-19.412.077-1.275-.123-3.13-.82-3.85-.458-.467-.887.833-.906 1.325-.305 7.384-.954 14.427-1.803 21.798-.725 6.286-1.86 12.205-2.928 18.365l-1.001 5.718-2.68 11.776c-.086.366.028.846.171.921.143.076.649.19.782-.088.916-1.982 1.898-4.077 2.347-6.538l1.096-5.97v-.013Zm29.979 24.5c.458.063 1.001-.252 1.192-1.022.658-2.563.792-5.276 1.307-7.914.429-2.21.477-4.342.801-6.576.62-4.229 1.431-8.255 1.745-12.584.058-.758.048-1.35-.372-1.881-.314-.391-.82-.1-1.325-.24-2.786-.707-5.466-1.64-8.289-2.044-.21-.026-2.261.075-2.241 1.337 0 .266.247.606.581.67 2.423.39 6.791 1.741 9.424 2.587-.191 3.976-1.068 7.661-1.602 11.574-.296 2.171-.43 4.216-.763 6.374l-1.24 7.838c-.163 1.048.219 1.805.791 1.881h-.009Zm-59.375-47.282c-.915-2.99-.782-6.146-.067-9.264 1.183-5.162 2.824-8.015 6.648-10.527 3.587-2.347 6.124-.075 5.838-1.716-.038-.24-.2-.644-.506-.758-3.586-1.375-7.573 1.616-10.081 4.822-1.565 1.994-2.385 4.531-3.043 7.245-.868 3.61-1.03 7.422 0 10.88 1.383 4.607 4.349 7.359 8.069 7.32 1.078-.012 2.051.24 3.119-.378.591-.34 3.462-1.502 2.9-2.853-.477-1.123-3.224 2.5-5.59 1.59-3.462.24-6.085-2.385-7.296-6.373l.009.013Zm12.8 61.519c.143-1.805 0-3.584.239-5.389.343-2.701.734-5.289.887-8.04.047-.846-.353-1.452-.878-1.565-1.593-.341-1.306 3.862-1.659 5.793-.534 2.916-.582 5.718-.716 8.722-.21 4.531-.639 8.911-.553 13.379.162.783.448 1.351 1.002 1.363.372.013 1.02-.416 1.039-1.212.124-4.405.305-8.683.649-13.076l-.01.025Zm-60.557-92.846c2.471.152 1.078 7.333 2.776 7.295 1.593-.037.438-5.402-.048-6.74-.544-1.476-1.574-2.612-2.709-2.562-5.198.227-2.909 11.726-2.07 16.282.248 1.376 1.136 2.058 2.061 1.957 2.871-.316 1.287-7.902.782-10.426-.105-.505-.496-.606-.696-.543-1.136.379.381 4.544.267 7.977-.01.392-.162.682-.182.897-.028.24-.62.429-.686.1-.582-2.536-2.948-14.439.524-14.237h-.019Zm5.475 90.284c-.334-.391-.715-.593-1.164-.732l-7.706-2.398c-.725-.227-1.412-.177-2.118.139-.238 1.212-.305 2.613.181 3.711.287.643.973.77 1.498.934 2.861.896 5.589 1.855 8.498 2.461.573.114 1.116-.341 1.116-1.048 0-1.073-.086-2.057-.315-3.067h.01Zm62.207-69.344c-.248-7.788-5.465-12.054-6.257-10.906-.143.202-.095.884.22 1.098 2.527 1.68 4.378 4.797 4.75 8.634.553 5.68.162 7.51-2.423 11.448-1.135 1.73-2.766 3.383-1.994 4.14.773.757 3.673-4.102 4.216-5.1 1.784-3.281 1.612-5.389 1.488-9.314ZM184.17 56.093c.505-.277.619-1.035.524-1.464-.105-.454-.667-.833-1.125-.669-2.347.833-4.674 1.616-6.868 2.941l-4.826 2.903c-.42.253-.668.795-.486 1.25.104.265.553.618.915.467l9.1-3.964c1.039-.454 1.898-.997 2.775-1.489l-.009.025Zm97.746-11.675c-.506-.316-.611-.896-.496-1.552.61-3.459 1.554-6.602 2.575-9.845.152-.468-.048-1.086-.258-1.187-.21-.1-.61.05-.734.417-1.278 3.572-2.28 7.207-2.89 11.145-.143.908.124 1.64.696 2.07l4.664 3.458c.096.063 1.86 2.221 2.108 1.25.305-1.2-2.318-3.156-3.147-3.8-.83-.643-1.622-1.4-2.518-1.956Zm-5.618 11.246c.2.088.648.038.782-.328l3.109-8.633c-.372-.884-.801-1.54-1.268-2.222l-6.515 2.764c-.343.152-.667.568-.515.972.515 1.414 5.723-1.868 7.23-2.196-1.078 2.966-2.175 5.592-3.081 8.532-.152.505 0 1.023.258 1.124v-.013Z"/>
  </g>
  <defs>
    <clipPath id="a">
      <path fill="#fff" d="M0 0h373v120H0z"/>
    </clipPath>
  </defs>
</svg>
