<svg width="88" height="32" viewBox="0 0 88 32" fill="none" xmlns="http://www.w3.org/2000/svg">
<path d="M87.6703 27.0288H0.247559V32H87.6703V27.0288Z" fill="#D70C18"/>
<path d="M29.7075 15.0048C29.6362 15.0129 29.564 15.0038 29.4973 14.9783C29.4306 14.9528 29.3715 14.9117 29.3253 14.8587C29.2792 14.8057 29.2473 14.7425 29.2327 14.6747C29.2181 14.6069 29.2212 14.5367 29.2416 14.4703L31.6296 1.62877C31.6529 1.51637 31.7051 1.41142 31.7814 1.32353C31.8577 1.23564 31.9556 1.16761 32.0661 1.12568C33.9535 0.422567 35.9531 0.0416642 37.9757 0C42.3705 0 44.3512 2.69785 43.6215 6.68803L42.1685 14.5489C42.1545 14.6785 42.0889 14.7977 41.9856 14.8816C41.8823 14.9655 41.7494 15.0074 41.6147 14.9985H38.2657C38.196 15.0009 38.1266 14.988 38.0629 14.9607C37.9991 14.9333 37.9427 14.8924 37.8978 14.8409C37.8529 14.7893 37.8207 14.7286 37.8037 14.6633C37.7868 14.598 37.7854 14.5299 37.7998 14.464L39.256 6.26039C39.6046 4.49012 38.9661 3.67574 37.4219 3.67574C36.7877 3.67108 36.1588 3.78757 35.5715 4.01848L33.6494 14.5552C33.6458 14.6203 33.6285 14.684 33.5985 14.7424C33.5684 14.8008 33.5263 14.8527 33.4748 14.8948C33.4232 14.9369 33.3632 14.9684 33.2986 14.9873C33.2339 15.0063 33.166 15.0122 33.0988 15.0048H29.7075Z" fill="#004E98"/>
<path d="M73.9225 15.0048C73.8515 15.0121 73.7797 15.0024 73.7134 14.9767C73.6471 14.9509 73.5884 14.9098 73.5424 14.8571C73.4964 14.8043 73.4646 14.7414 73.4496 14.674C73.4347 14.6065 73.4371 14.5366 73.4567 14.4703L75.8446 1.62877C75.8692 1.51501 75.9234 1.40915 76.0021 1.32114C76.0807 1.23314 76.1812 1.16587 76.2942 1.12568C78.1816 0.422567 80.1812 0.0416642 82.2038 0C86.5986 0 88.5793 2.69785 87.8528 6.68803L86.3966 14.5489C86.3826 14.6785 86.317 14.7977 86.2137 14.8816C86.1104 14.9655 85.9775 15.0074 85.8428 14.9985H82.484C82.4143 15.0009 82.3449 14.988 82.2812 14.9607C82.2174 14.9333 82.161 14.8924 82.1161 14.8409C82.0712 14.7893 82.039 14.7286 82.0221 14.6633C82.0051 14.598 82.0038 14.5299 82.0181 14.464L83.4613 6.26669C83.8099 4.49642 83.1714 3.68203 81.6272 3.68203C80.9891 3.67372 80.3556 3.78809 79.7638 4.01848L77.8449 14.5552C77.8405 14.6203 77.8224 14.6838 77.7919 14.742C77.7614 14.8002 77.719 14.8519 77.6673 14.8939C77.6155 14.9359 77.5555 14.9674 77.4909 14.9864C77.4263 15.0055 77.3583 15.0117 77.2911 15.0048H73.9225Z" fill="#004E98"/>
<path d="M54.102 3.74178L54.2161 3.76693C54.6961 3.86552 55.166 4.00549 55.6202 4.18513C55.9459 4.32034 56.174 4.27003 56.2913 3.96817L57.2002 1.71053C57.2882 1.46213 57.2881 1.26718 57.1155 1.15713C56.646 0.892996 56.1519 0.671923 55.6397 0.496812C55.3498 0.396193 55.0435 0.305008 54.7308 0.223255C53.8757 0.0406515 52.9991 -0.0302059 52.1245 0.0125845C48.9938 0.172946 46.8404 1.40238 46.2605 4.04049C45.609 7.07478 47.8894 8.73186 50.7432 9.2947C51.9063 9.54624 52.926 9.77263 52.724 10.6436C52.5774 11.2725 51.877 11.7096 50.4826 11.7096C49.1176 11.7194 47.7872 11.2951 46.6971 10.5021C46.6457 10.4595 46.5852 10.4284 46.5199 10.4108C46.4547 10.3933 46.3862 10.3898 46.3194 10.4006C46.2526 10.4114 46.1891 10.4362 46.1333 10.4733C46.0775 10.5104 46.0309 10.5589 45.9966 10.6153L44.3384 12.8164C44.2925 12.8636 44.2579 12.92 44.2372 12.9816C44.2164 13.0432 44.21 13.1085 44.2184 13.1728C44.2268 13.237 44.2498 13.2987 44.2858 13.3534C44.3217 13.4081 44.3697 13.4545 44.4264 13.4893C46.026 14.747 47.9187 15.3759 50.336 15.3759C53.975 15.3759 56.5649 13.9986 57.1481 11.0209C57.7573 7.73195 54.9653 6.38302 52.724 5.90823C51.3264 5.59379 50.3947 5.34539 50.5673 4.50271C50.6846 3.79837 51.3557 3.5594 52.4308 3.5594C52.9384 3.55846 53.4448 3.60692 53.9424 3.70405L54.102 3.74178Z" fill="#004E98"/>
<path d="M9.88718 3.74184L10.0012 3.76699C10.4813 3.86559 10.9512 4.00555 11.4053 4.1852C11.7311 4.3204 11.9591 4.27009 12.0764 3.96824L12.9853 1.71059C13.0733 1.46219 13.0733 1.26724 12.9006 1.15719C12.4306 0.895805 11.9366 0.676867 11.4249 0.503164C11.1349 0.402545 10.8287 0.311356 10.5159 0.229603C9.66089 0.0469992 8.7843 -0.0238583 7.9097 0.0189322C4.77897 0.179294 2.62557 1.40874 2.04568 4.04684C1.39412 7.08114 3.67458 8.73821 6.5284 9.30104C7.69143 9.55259 8.71112 9.77899 8.50588 10.65C8.36254 11.2788 7.66211 11.7159 6.26452 11.7159C4.90062 11.7251 3.57148 11.3008 2.48222 10.5085C2.43082 10.4659 2.37035 10.4347 2.3051 10.4172C2.23984 10.3997 2.1714 10.3962 2.10459 10.407C2.03778 10.4178 1.97424 10.4426 1.91846 10.4797C1.86269 10.5168 1.81603 10.5653 1.7818 10.6217L0.123587 12.8227C0.0776474 12.8699 0.0430697 12.9264 0.0223277 12.988C0.00158579 13.0496 -0.00481432 13.1149 0.00358708 13.1791C0.0119885 13.2434 0.0349876 13.3051 0.0709341 13.3598C0.106881 13.4145 0.15489 13.4609 0.211544 13.4956C1.81112 14.7533 3.7039 15.3822 6.12118 15.3822C9.76013 15.3822 12.3501 14.005 12.9332 11.0273C13.5424 7.7383 10.7505 6.38938 8.50588 5.91459C7.11155 5.60015 6.17982 5.35175 6.35248 4.50906C6.46976 3.80473 7.14086 3.56576 8.21593 3.56576C8.72356 3.56481 9.23 3.61327 9.72755 3.7104L9.88718 3.74184Z" fill="#004E98"/>
<path d="M22.8074 0C21.9891 0.000656099 21.1721 0.0637414 20.3641 0.188663C19.3786 0.344431 18.4224 0.640053 17.5265 1.06593C17.3473 1.16655 17.3343 1.36465 17.406 1.62248L18.1683 3.97131C18.1774 4.0281 18.1996 4.08221 18.2333 4.12962C18.2669 4.17702 18.3112 4.21652 18.3628 4.2452C18.4144 4.27388 18.472 4.29099 18.5314 4.29529C18.5908 4.29959 18.6504 4.29095 18.7058 4.27002C19.2724 4.07035 19.8603 3.9322 20.4585 3.85811H20.5172C20.949 3.80122 21.3844 3.77286 21.8203 3.77322C23.6544 3.77322 24.0617 4.531 23.801 5.90823L23.7424 6.35787C22.9277 6.20569 22.0996 6.12987 21.2697 6.13148C17.5428 6.13148 15.1549 7.3389 14.6597 10.0651C14.0798 13.1276 16.1452 15.3759 20.2207 15.3759C22.2817 15.3706 24.3278 15.0381 26.277 14.3917C26.3939 14.3504 26.4967 14.2786 26.5738 14.1842C26.6509 14.0898 26.6993 13.9766 26.7135 13.8571L28.0166 6.75092C28.805 2.52806 26.7754 0 22.8074 0ZM21.2371 12.5271C20.8414 12.5277 20.4543 12.415 20.125 12.2032C19.7956 11.9915 19.5387 11.6902 19.3868 11.3375C19.2349 10.9847 19.1948 10.5964 19.2716 10.2217C19.3485 9.84702 19.5387 9.50272 19.8183 9.23241C20.0979 8.96209 20.4543 8.7779 20.8425 8.70315C21.2306 8.6284 21.6329 8.66645 21.9986 8.81249C22.3643 8.95852 22.6769 9.20597 22.8968 9.52352C23.1168 9.84108 23.2342 10.2145 23.2342 10.5964C23.2346 10.8498 23.1833 11.1008 23.0831 11.335C22.9829 11.5693 22.8359 11.7821 22.6504 11.9614C22.4649 12.1407 22.2446 12.283 22.0021 12.3801C21.7596 12.4771 21.4997 12.5271 21.2371 12.5271Z" fill="#004E98"/>
<path d="M67.0229 0C66.2056 0.000519335 65.3897 0.063606 64.5828 0.188663C63.5963 0.344445 62.639 0.640059 61.742 1.06593C61.5628 1.16655 61.5498 1.36465 61.6215 1.62248L62.3838 3.97131C62.3922 4.0301 62.4146 4.08622 62.4493 4.13523C62.484 4.18425 62.53 4.22482 62.5836 4.25378C62.6373 4.28273 62.6972 4.29927 62.7586 4.30209C62.8201 4.30491 62.8813 4.29393 62.9376 4.27002C63.5042 4.07035 64.0921 3.9322 64.6903 3.85811H64.749C65.1808 3.80125 65.6162 3.77289 66.0521 3.77322C67.8862 3.77322 68.2934 4.531 68.0295 5.90823L67.9709 6.35787C67.1562 6.20569 66.3281 6.12987 65.4982 6.13148C61.7713 6.13148 59.3834 7.3389 58.8882 10.0651C58.3083 13.1276 60.3737 15.3759 64.4492 15.3759C66.5102 15.3706 68.5563 15.0381 70.5055 14.3917C70.6225 14.3504 70.7253 14.2786 70.8024 14.1842C70.8794 14.0898 70.9278 13.9766 70.942 13.8571L72.2451 6.75092C73.0368 2.52806 70.9844 0 67.0229 0ZM65.4429 12.5271C65.0472 12.5271 64.6605 12.4138 64.3316 12.2017C64.0026 11.9896 63.7462 11.688 63.5948 11.3353C63.4434 10.9825 63.4038 10.5943 63.481 10.2198C63.5582 9.8453 63.7487 9.50129 64.0284 9.23128C64.3082 8.96128 64.6646 8.77741 65.0526 8.70292C65.4406 8.62843 65.8428 8.66666 66.2083 8.81278C66.5738 8.95891 66.8862 9.20636 67.106 9.52385C67.3258 9.84134 67.4431 10.2146 67.4431 10.5964C67.4431 11.1085 67.2324 11.5995 66.8573 11.9616C66.4822 12.3237 65.9734 12.5271 65.4429 12.5271Z" fill="#004E98"/>
</svg>
