<svg width="20" height="20" viewBox="0 0 20 20" fill="none" xmlns="http://www.w3.org/2000/svg">
<path d="M13.8001 17.5732C14.1967 17.5073 14.5073 17.1967 14.5732 16.8001C14.8492 15.1332 15 13.3524 15 11.5C15 9.64764 14.8492 7.86679 14.5732 6.1999C14.5073 5.80328 14.1967 5.4927 13.8001 5.42678C12.1332 5.15082 10.3524 5 8.5 5C6.64764 5 4.86679 5.15082 3.1999 5.42678C2.80328 5.4927 2.4927 5.80328 2.42678 6.1999C2.15083 7.86679 2 9.64876 2 11.5C2 13.3512 2.15083 15.1332 2.42678 16.8001C2.4927 17.1967 2.80328 17.5073 3.1999 17.5732C4.86679 17.8492 6.64764 18 8.5 18C10.3524 18 12.1332 17.8492 13.8001 17.5732Z" fill="url(#paint0_linear_12202_9590)"/>
<path d="M16.8001 14.5732C17.1967 14.5073 17.5073 14.1967 17.5732 13.8001C17.8492 12.1332 18 10.3524 18 8.5C18 6.64764 17.8492 4.86679 17.5732 3.1999C17.5073 2.80328 17.1967 2.4927 16.8001 2.42678C15.1332 2.15083 13.3524 2 11.5 2C9.64764 2 7.86679 2.15083 6.1999 2.42678C5.80328 2.4927 5.4927 2.80328 5.42678 3.1999C5.15082 4.86679 5 6.64764 5 8.5C5 10.3524 5.15082 12.1332 5.42678 13.8001C5.4927 14.1967 5.80328 14.5073 6.1999 14.5732C7.86679 14.8492 9.64764 15 11.5 15C13.3524 15 15.1332 14.8492 16.8001 14.5732Z" fill="url(#paint1_linear_12202_9590)"/>
<path d="M6.1394 14.5947C7.72226 14.8568 9.41332 15 11.1723 15C12.4178 15 13.6283 14.9268 14.7921 14.7921C14.9268 13.6283 15 12.4178 15 11.1723C15 9.41332 14.8568 7.72226 14.5947 6.1394C14.5321 5.76278 14.2372 5.46785 13.8606 5.40526C12.2777 5.14322 10.5867 5 8.82771 5C7.58222 5 6.37174 5.0732 5.20794 5.20794C5.0732 6.37174 5 7.58222 5 8.82771C5 10.5867 5.14322 12.2777 5.40526 13.8606C5.46785 14.2372 5.76278 14.5321 6.1394 14.5947Z" fill="url(#paint2_linear_12202_9590)"/>
<defs>
<linearGradient id="paint0_linear_12202_9590" x1="14.311" y1="5.68886" x2="2.6894" y2="17.3105" gradientUnits="userSpaceOnUse">
<stop stop-color="#E60012"/>
<stop offset="1" stop-color="#F29A76"/>
</linearGradient>
<linearGradient id="paint1_linear_12202_9590" x1="17.3107" y1="2.68919" x2="5.68908" y2="14.3108" gradientUnits="userSpaceOnUse">
<stop stop-color="#6FBBE2"/>
<stop offset="1" stop-color="#0D7ABE"/>
</linearGradient>
<linearGradient id="paint2_linear_12202_9590" x1="14.3458" y1="5.65413" x2="5.65434" y2="14.3456" gradientUnits="userSpaceOnUse">
<stop stop-color="#0081CB"/>
<stop offset="1" stop-color="#352967"/>
</linearGradient>
</defs>
</svg>
