<svg width="340" height="340" viewBox="0 0 340 340" fill="none" xmlns="http://www.w3.org/2000/svg">
<g clip-path="url(#clip0_2247_50983)">
<path d="M268.543 32.521C268.365 32.3428 268.098 32.1646 267.741 31.8973L268.543 32.521Z" fill="#75AC6C"/>
<path d="M181.138 0.623706C181.85 0.712804 182.118 0.712804 182.207 0.623706C181.494 0.623706 180.959 0.534607 181.138 0.623706Z" fill="#75AC6C"/>
<path d="M267.741 31.8972L265.781 30.3826C265.603 30.3826 266.761 31.1845 267.741 31.8972Z" fill="#75AC6C"/>
<path d="M298.035 59.6069L298.569 60.1415C298.747 60.3197 298.926 60.4088 299.015 60.587L298.035 59.6069Z" fill="#75AC6C"/>
<path d="M282.353 43.391C282.353 43.3019 282.264 43.2128 282.175 43.1237C282.175 43.1237 282.264 43.2128 282.353 43.391Z" fill="#75AC6C"/>
<path d="M333.318 205.996C333.407 205.818 333.407 205.728 333.318 205.996V205.996Z" fill="#75AC6C"/>
<path d="M136.143 3.11851C136.232 3.11851 136.232 3.11851 136.232 3.11851C137.034 2.94031 136.588 3.02941 136.143 3.11851Z" fill="#75AC6C"/>
<path d="M52.8355 49.717L51.6772 50.7862C52.0336 50.5189 52.4791 50.0734 52.8355 49.717Z" fill="#75AC6C"/>
<path d="M54.7959 47.9351L52.9248 49.717C53.4594 49.0933 54.0831 48.4696 54.7959 47.9351Z" fill="#75AC6C"/>
<path d="M43.1237 60.1415C42.5892 60.6761 42.0546 61.2998 41.4309 61.9235C41.3418 62.1016 41.1636 62.1907 41.1636 62.3689L43.1237 60.1415Z" fill="#75AC6C"/>
<path d="M138.103 2.85117C138.37 2.76207 138.726 2.76207 138.994 2.67297C138.637 2.76207 138.281 2.76207 138.103 2.85117Z" fill="#75AC6C"/>
<path d="M212.144 334.298C211.876 334.387 211.52 334.476 211.164 334.565C211.698 334.476 211.965 334.387 212.144 334.298Z" fill="#75AC6C"/>
<path d="M268.543 32.521C268.632 32.6101 268.721 32.6992 268.81 32.7883C268.721 32.6992 268.721 32.6992 268.632 32.6992L268.543 32.521Z" fill="#75AC6C"/>
<path d="M55.0629 47.5786C54.9738 47.6677 54.8847 47.7568 54.7065 47.935L55.0629 47.5786Z" fill="#75AC6C"/>
<path d="M336.703 152.804C336.703 152.537 336.614 152.269 336.614 152.002L336.703 152.804C336.614 152.715 336.614 152.715 336.703 152.804Z" fill="#75AC6C"/>
<path d="M336.703 152.804L336.792 153.606C336.703 153.249 336.703 152.893 336.703 152.804Z" fill="#75AC6C"/>
<path d="M336.703 153.606C336.703 154.14 336.792 154.853 336.881 155.21L336.703 153.606Z" fill="#75AC6C"/>
<path d="M238.873 15.0576H239.229C237.269 14.1666 239.14 15.0576 238.873 15.0576Z" fill="#75AC6C"/>
<path d="M207.778 4.18764L204.481 3.47485L206.976 4.00944L207.778 4.18764Z" fill="#75AC6C"/>
<path d="M109.68 328.952C110.66 329.308 111.551 329.665 112.531 330.021C112.086 329.843 111.64 329.665 111.195 329.486L109.68 328.952Z" fill="#75AC6C"/>
<path d="M281.73 297.589C281.195 298.035 281.017 298.302 280.928 298.302C281.462 297.856 281.819 297.5 281.73 297.589Z" fill="#75AC6C"/>
<path d="M293.312 286.63C293.045 286.897 292.867 287.075 292.688 287.343C292.956 287.075 293.223 286.808 293.312 286.63Z" fill="#75AC6C"/>
<path d="M74.041 307.479C74.3974 307.746 74.7538 307.924 75.1102 308.192H75.1993C74.7538 307.924 74.3974 307.657 74.041 307.479Z" fill="#75AC6C"/>
<path d="M28.8682 259.99C28.8682 259.9 28.8682 259.99 28.8682 259.99C28.9573 260.079 28.9573 260.168 28.8682 259.99Z" fill="#75AC6C"/>
<path d="M75.8228 308.726C76.1791 308.994 76.5355 309.172 76.8919 309.439C76.4464 309.083 76.09 308.905 75.8228 308.726Z" fill="#75AC6C"/>
<path d="M310.508 265.514C310.33 265.781 310.152 266.048 309.974 266.226C310.241 265.959 310.419 265.781 310.508 265.514Z" fill="#75AC6C"/>
<path d="M23.7896 83.5745C23.9677 83.3072 24.0568 83.0399 24.3241 82.7726C23.9677 83.129 23.8786 83.3963 23.7896 83.5745Z" fill="#75AC6C"/>
<path d="M64.1509 299.995C64.24 300.173 64.5073 300.262 64.6855 300.44L64.1509 299.995Z" fill="#75AC6C"/>
<path d="M63.5273 299.46C63.7946 299.728 64.0619 299.906 64.151 299.995L63.5273 299.46Z" fill="#75AC6C"/>
<path d="M62.1909 298.391L63.4383 299.46C63.0819 299.104 62.5473 298.569 62.1909 298.391Z" fill="#75AC6C"/>
<path d="M261.059 313.449L260.257 313.894L263.197 312.023L261.059 313.449Z" fill="#75AC6C"/>
<path d="M100.057 14.8795C99.1665 15.325 98.1864 15.6814 97.2954 16.216C97.7409 16.0378 98.1864 15.7705 98.6319 15.5923L100.057 14.8795Z" fill="#75AC6C"/>
<path d="M293.312 286.808C293.045 287.075 292.867 287.254 292.688 287.521C292.956 287.254 293.223 286.986 293.312 286.808Z" fill="#75AC6C"/>
<path d="M28.8682 260.079C28.8682 260.079 28.8682 260.168 28.8682 260.079C28.9573 260.257 28.9573 260.346 28.8682 260.079Z" fill="#75AC6C"/>
<path d="M311.756 264.177C311.756 264.266 311.666 264.266 311.666 264.266C311.221 264.89 311.488 264.534 311.756 264.177Z" fill="#75AC6C"/>
<path d="M310.598 265.692C310.419 265.959 310.241 266.226 310.063 266.405C310.241 266.137 310.419 265.87 310.598 265.692Z" fill="#75AC6C"/>
<path d="M64.062 300.084C64.2402 300.262 64.5075 300.44 64.6857 300.529L64.062 300.084C64.1511 300.173 64.1511 300.084 64.062 300.084Z" fill="#75AC6C"/>
<path d="M64.0617 300.084L63.438 299.549C63.7944 299.817 63.9726 299.995 64.0617 300.084Z" fill="#75AC6C"/>
<path d="M63.5272 299.638C63.0817 299.282 62.5471 298.837 62.2798 298.569L63.5272 299.638Z" fill="#75AC6C"/>
<path d="M260.257 314.072L263.197 312.201L261.059 313.538L260.257 314.072Z" fill="#75AC6C"/>
<path d="M0.623584 158.863C0.712682 158.15 0.712682 157.883 0.623584 157.794C0.623584 158.506 0.534485 159.041 0.623584 158.863Z" fill="#75AC6C"/>
<path d="M139.083 5.34591C139.618 5.25681 139.974 5.16771 140.419 5.07861C139.974 5.07861 139.618 5.16771 139.083 5.34591C139.172 5.25681 139.172 5.25681 139.083 5.34591Z" fill="#75AC6C"/>
<path d="M205.996 6.68242C205.818 6.59333 205.729 6.59333 205.996 6.68242V6.68242Z" fill="#75AC6C"/>
<path d="M3.11851 203.857C3.11851 203.768 3.11851 203.768 3.11851 203.768C2.94031 202.966 3.02941 203.412 3.11851 203.857Z" fill="#75AC6C"/>
<path d="M138.281 5.43506C137.836 5.52416 137.479 5.61326 137.034 5.70235C137.657 5.52416 138.014 5.43506 138.281 5.43506Z" fill="#75AC6C"/>
<path d="M29.1353 264.801C29.1353 264.801 29.2244 264.979 29.4916 265.425C29.4025 265.246 29.3135 265.068 29.1353 264.801Z" fill="#75AC6C"/>
<path d="M7.75146 220.341L8.10786 221.499C8.01876 221.053 7.84056 220.697 7.75146 220.341Z" fill="#75AC6C"/>
<path d="M139.083 5.16772C138.904 5.25682 138.726 5.34592 138.281 5.34592C138.548 5.25682 138.904 5.25682 139.172 5.16772C139.261 5.25682 139.261 5.16772 139.083 5.16772Z" fill="#75AC6C"/>
<path d="M2.85105 201.897C2.76195 201.63 2.76195 201.274 2.67285 201.006C2.76195 201.363 2.76195 201.63 2.85105 201.897Z" fill="#75AC6C"/>
<path d="M8.37544 221.766C8.46454 222.034 8.55364 222.212 8.64274 222.479C8.37544 221.944 8.19724 221.232 8.37544 221.766Z" fill="#75AC6C"/>
<path d="M334.298 127.767C334.387 128.035 334.476 128.391 334.565 128.747C334.476 128.302 334.387 127.945 334.298 127.767Z" fill="#75AC6C"/>
<path d="M340 168.753V166.169C340 164.387 339.911 162.694 339.822 161.001C339.644 159.308 339.555 157.526 339.287 155.833C339.376 155.922 339.465 156.101 339.555 157.259C339.465 154.14 338.396 145.32 338.129 145.854C338.129 145.676 338.129 145.32 338.04 144.696C337.951 143.983 337.773 143.003 337.505 141.845C337.06 139.617 336.525 136.944 336.08 135.162L336.436 135.697C335.456 132.668 335.367 132.579 334.298 128.302C334.12 127.678 334.209 127.411 334.298 127.767C333.674 125.451 333.496 125.718 332.605 122.065L333.139 123.58C332.159 120.105 332.248 120.372 331.447 118.59C330.645 116.452 329.308 112.175 329.308 111.64C329.041 111.195 328.15 109.413 327.437 107.453C327.348 107.185 327.704 107.898 327.883 108.255C327.348 106.829 326.903 105.671 326.457 104.513C325.922 103.443 325.477 102.463 325.031 101.572C324.14 99.7903 323.428 98.1865 322.626 96.3155C322.626 96.2264 322.537 95.9591 322.448 95.6918C322.982 96.761 323.517 97.741 323.873 98.7211C324.319 99.6121 324.675 100.503 324.942 101.216C325.477 102.374 325.744 103.087 325.833 103.176C326.012 103.087 324.408 99.6121 325.922 102.285C325.21 100.949 324.319 99.0775 323.25 97.1173C322.18 95.2463 321.111 93.197 320.309 91.5041C320.22 91.3259 320.131 91.1477 320.131 91.0586L320.309 91.415C319.953 90.6132 319.596 89.9895 319.151 89.3658C318.616 88.2966 318.171 87.6729 317.636 86.6928C317.547 86.4255 317.013 85.5345 316.389 84.3763C316.033 83.8417 315.676 83.218 315.409 82.6834C315.052 82.1488 314.696 81.6142 314.429 81.2578C314.34 81.5251 313.092 79.3867 314.161 81.3469C314.161 81.2578 314.518 81.7924 315.142 82.7725C315.32 83.0398 315.498 83.3071 315.587 83.4853L315.498 83.3962C316.122 84.4654 316.923 85.8909 317.904 87.4947C317.102 86.2473 316.211 84.9109 315.231 83.0398C314.607 82.2379 313.894 81.436 313.538 80.9905C312.914 79.8322 312.023 78.1394 311.132 76.7138C310.33 75.2882 309.439 74.0408 309.35 73.7735C308.459 72.6153 307.568 71.2788 306.588 70.0314C305.608 68.6949 304.539 67.4475 303.559 66.2002C302.579 64.9528 301.599 63.7945 300.708 62.8144C300.084 62.1907 299.549 61.567 299.015 61.0324C298.837 60.8542 298.747 60.7652 298.658 60.587C298.391 60.3197 298.124 60.0524 297.767 59.696C297.233 58.9832 297.144 58.7159 296.787 58.3595C297.411 59.0723 298.213 59.9633 298.569 60.3197C297.5 59.1614 295.985 57.3794 294.471 55.8647C293.936 55.3301 293.402 54.7064 292.778 54.1719C292.065 53.4591 291.352 52.6572 290.55 51.8553C290.639 51.9444 290.639 51.9444 290.55 51.7662C290.461 51.6771 290.194 51.4098 289.748 50.8752C289.57 50.697 289.392 50.5188 289.214 50.3406L289.481 50.5188C287.521 48.4696 285.65 46.6876 283.779 45.0838L283.69 44.9947C283.155 44.371 282.621 43.9255 282.353 43.6582C282.442 43.8364 282.264 43.7473 281.106 42.8563C278.166 40.3616 280.215 41.8763 278.522 40.3616C278.166 40.0943 277.542 39.5597 276.918 39.0251C276.295 38.5796 275.849 38.2232 275.76 38.2232C274.869 37.5104 274.78 37.3322 274.424 36.9758C273.622 36.4412 271.751 34.9266 270.325 33.8574C268.81 32.7882 267.83 32.0754 268.632 32.8773L269.078 33.1446C268.988 33.0555 268.899 33.0555 268.81 32.9664C267.474 32.0754 266.048 31.0953 264.712 30.1153C263.375 29.1352 261.861 28.2442 260.524 27.2641C259.811 26.8186 259.099 26.284 258.386 25.8385C257.673 25.393 256.96 24.9475 256.247 24.502C255.356 23.9675 254.376 23.4329 253.485 22.8983C253.307 22.8092 253.04 22.631 252.683 22.3637L252.773 22.4528C252.505 22.2746 252.238 22.0964 251.971 22.0073V21.9182C250.278 20.9381 248.318 20.0471 246.536 19.067C245.021 18.3542 243.595 17.5524 242.437 17.1069C241.903 16.8396 241.279 16.5723 240.566 16.2159C239.942 15.8595 239.586 15.5922 239.853 15.6813C238.517 15.0576 237.715 14.7903 236.824 14.3448C236.378 14.1666 235.844 13.8993 235.22 13.632C234.596 13.3647 233.795 13.0083 232.814 12.6519C235.666 13.632 231.924 12.2065 235.666 13.7211C232.102 12.2065 231.3 11.761 227.38 10.5136C228.805 10.7809 224.707 9.3553 222.925 8.82071L225.419 9.80079C223.459 9.1771 221.766 8.55341 219.984 7.92972L220.964 8.01882C220.073 7.66243 219.093 7.39513 218.202 7.12783C217.311 6.86054 216.42 6.59324 215.529 6.41505C213.747 5.96955 212.144 5.43496 210.451 5.16767C208.847 4.81127 207.243 4.54398 205.729 4.18758C204.927 4.00939 204.214 3.83119 203.501 3.65299C202.788 3.47479 201.986 3.2966 201.274 3.1184C199.224 2.85111 205.461 4.00939 203.59 3.83119C200.026 3.1184 196.373 2.13832 195.215 1.96012C192.72 1.60373 191.562 1.51463 190.404 1.42553C189.78 1.42553 189.245 1.33643 188.443 1.24733C187.642 1.15823 186.751 1.06913 185.414 0.980036C186.038 1.06913 186.661 1.33643 182.83 1.15823C179.177 0.890937 178.375 0.445445 180.692 0.623642C181.583 0.71274 181.939 0.71274 181.939 0.801839C183.098 0.890937 184.612 0.980036 183.187 0.71274H182.741C181.85 0.623642 180.157 0.445445 178.821 0.356346C177.484 0.267248 176.504 0.267248 177.128 0.178149C174.366 0.178149 175.97 0.267248 178.019 0.356346C175.702 0.267248 173.831 0.178149 172.049 0.178149C171.158 0.178149 170.178 0.0890506 169.198 0.178149C168.218 0.178149 167.149 0.178149 165.902 0.267248C166.703 0.267248 167.327 0.356346 166.614 0.356346C163.05 0.356346 162.338 0.445445 161.803 0.534543C161.625 0.534543 161.536 0.534543 161.357 0.623642C161.179 0.623642 161.09 0.623642 160.912 0.623642C159.843 0.71274 158.774 0.801839 157.794 0.890937C157.081 0.801839 158.774 0.623642 154.942 0.980036C152.002 1.15823 154.319 0.801839 155.477 0.623642C154.408 0.71274 153.339 0.801839 152.359 0.890937C151.468 0.890937 150.577 0.980036 149.686 1.06913C147.904 1.24733 146.3 1.42553 145.052 1.51463L147.369 1.15823C146.033 1.42553 144.874 1.51463 143.716 1.69282C144.161 1.69282 144.607 1.69282 145.052 1.69282C143.627 1.78192 142.558 2.04922 142.558 1.96012C141.221 2.31651 143.627 2.04922 140.954 2.67291C139.172 2.9402 135.519 3.65299 134.895 3.65299C140.063 2.67291 135.073 3.3857 138.103 2.76201C137.39 2.9402 136.588 3.0293 135.608 3.2075C135.43 3.2075 135.786 3.1184 136.143 3.0293C130.797 4.00939 133.737 3.83119 128.302 5.07857C128.658 4.90037 128.302 4.98947 127.767 5.07857C127.233 5.16767 126.52 5.34586 126.074 5.52406C128.124 4.90037 127.233 5.34586 125.451 5.96955C124.916 6.14775 124.471 6.23685 123.936 6.32595C122.689 6.68234 121.53 6.94964 120.372 7.30603C119.214 7.66243 118.145 8.01882 117.076 8.28612C117.788 8.10792 117.699 8.19702 117.165 8.37521H117.076H117.165C116.808 8.55341 116.095 8.82071 115.472 8.9989C114.492 9.2662 113.066 9.80079 111.997 10.2463C111.551 10.4245 111.017 10.6027 110.482 10.7809C110.393 10.7809 110.393 10.7809 110.393 10.6918L111.106 10.4245C109.591 10.7809 105.671 12.1174 102.731 13.5429L102.642 13.7211C101.483 14.1666 100.414 14.6121 98.2757 15.6813C98.3648 15.6813 98.4539 15.5922 98.543 15.5922C98.4539 15.5922 98.3648 15.6813 98.2757 15.6813C97.4738 16.0377 96.672 16.3941 95.781 16.8396C94.6227 17.3742 93.4644 17.9979 92.3061 18.5324C91.6824 18.7997 91.1478 19.1561 90.5242 19.4234C89.9896 19.7798 89.3659 20.0471 88.8313 20.4035C86.6038 21.6509 84.4655 22.8092 82.6835 23.8784C80.9015 24.9475 79.3868 25.8385 78.4068 26.3731C77.6049 26.9968 76.5357 27.5314 75.6447 28.2442C74.7537 28.957 73.7736 29.5807 72.9717 30.2044V30.0262C71.8135 30.828 70.7443 31.5408 69.7642 32.1645C68.7841 32.7882 67.8931 33.501 67.0021 34.2138C66.1112 34.9266 65.1311 35.6394 64.0619 36.4413C63.5273 36.8867 62.9927 37.3322 62.369 37.7777C62.1017 38.045 61.8344 38.3123 61.478 38.5796C61.2107 38.7578 61.0325 39.0251 60.7652 39.2033C60.6761 39.2924 60.587 39.3815 60.498 39.4706L61.478 38.4014C59.9634 39.6488 59.0724 40.6289 58.2705 41.5199C57.825 41.9654 57.4686 42.4109 56.934 42.8563C56.4885 43.3018 55.9539 43.8364 55.2411 44.4601L54.3502 45.1729C53.1028 46.3312 51.8554 47.5786 50.5189 48.7369L49.5388 49.6278L48.6478 50.5188L46.8659 52.3899C45.7076 53.6373 44.4602 54.8846 43.3019 56.132C42.5 57.1121 41.6982 58.0922 40.8963 59.0723C40.7181 59.3396 40.4508 59.6069 40.1835 59.8742C40.2726 59.696 40.4508 59.4287 40.8963 58.8941C38.6688 61.2106 33.1447 68.2494 33.8575 67.9821C33.7684 68.0712 33.5011 68.3385 33.0556 68.8731C32.6101 69.4077 32.0755 70.2987 31.4518 71.1897C30.2935 73.0607 28.7789 75.1991 27.7988 76.8029L27.8879 76.5356C27.8879 76.6247 27.7988 76.6247 27.7988 76.7138L27.8879 76.3574C26.3732 79.2085 26.4623 79.2976 24.1458 83.0398C24.0567 83.218 23.9676 83.3071 23.8785 83.3962C23.9676 83.218 24.1458 83.0398 24.2348 82.7725C24.0567 83.0398 23.8785 83.3071 23.7894 83.4853C23.6112 83.6635 23.6112 83.6635 23.7003 83.4853C22.542 85.3563 22.7202 85.4454 21.2055 88.1184L21.4728 87.4947C21.2946 87.762 21.1164 88.0293 21.0273 88.2966L21.4728 87.3165C19.6908 90.435 19.869 90.1677 19.1562 92.0387C18.2652 94.088 16.1269 98.0974 15.7705 98.5429C15.6814 98.8993 15.4141 99.7903 14.8795 100.949V100.77C14.2558 102.285 14.6122 101.394 14.7904 101.127C14.6122 101.661 14.3449 102.196 14.0776 102.731C14.1667 102.552 14.2558 102.196 14.3449 102.018C14.2558 102.196 14.1667 102.374 14.0776 102.641C14.1667 102.463 14.2558 102.107 14.3449 101.929C13.7212 103.265 13.1866 104.513 12.7411 105.582C12.5629 106.116 12.3847 106.651 12.2065 107.185C12.2065 107.185 12.1174 107.275 12.0283 107.364C12.1174 107.185 12.1174 107.007 12.2065 107.007C12.1174 107.007 11.4047 108.7 11.3156 108.7C11.3156 108.522 11.4047 108.255 11.5829 107.72C11.4938 107.987 11.4047 108.255 11.3156 108.433C11.3156 108.255 11.4047 107.987 11.5829 107.542C11.1374 108.967 10.4246 111.017 9.80089 113.066C9.44449 114.224 9.1772 115.293 8.8208 116.363C8.7317 116.541 8.7317 116.719 8.64261 116.808V116.719C8.37531 117.521 8.10801 118.323 7.92982 119.036C7.92982 119.125 7.84072 119.214 7.84072 119.214L7.92982 118.59C7.57342 119.481 7.30613 120.461 7.03883 121.352C6.77154 122.243 6.50424 123.134 6.32604 124.025C5.96965 125.362 5.61326 126.609 5.34596 127.856C5.25686 128.124 5.16776 128.48 5.07866 128.747C4.90047 129.371 4.81137 129.995 4.72227 130.44C4.72227 130.44 4.72227 130.529 4.72227 130.618C4.45498 131.688 4.27678 132.757 4.00948 133.826C3.83129 134.628 3.65309 135.341 3.47489 136.053C3.29669 136.766 3.1185 137.568 2.9403 138.281C2.673 140.33 3.83129 134.093 3.65309 135.964C2.9403 139.528 1.96022 143.181 1.78202 144.34C1.42563 146.834 1.33653 147.993 1.24743 149.151C1.24743 149.775 1.15833 150.309 1.06923 151.111C0.980132 151.913 0.891034 152.804 0.801935 154.14C0.891034 153.517 1.15833 152.893 0.980132 156.724C0.980132 156.724 0.980132 156.724 0.980132 156.813C0.712837 160.377 0.267344 161.179 0.445541 158.952C0.53464 158.061 0.53464 157.704 0.623738 157.704C0.712837 156.546 0.801935 155.031 0.53464 156.457V156.902C0.445541 157.793 0.267344 159.486 0.178246 160.823C0.0891471 162.159 0.0891471 163.139 4.85666e-05 162.516C4.85666e-05 165.278 0.0891471 163.674 0.178246 161.625C0.0891471 163.941 4.85666e-05 165.812 4.85666e-05 167.594C4.85666e-05 168.485 -0.08905 169.465 4.85666e-05 170.445C4.85666e-05 171.426 4.85703e-05 172.495 0.0891471 173.742C0.0891471 172.94 0.178246 172.317 0.178246 173.029C0.178246 176.593 0.267344 177.306 0.356443 177.841C0.445541 178.286 0.445541 178.553 0.712837 180.87C0.801935 183.543 0.356443 179.89 0.801935 184.701C0.980132 187.641 0.623738 185.325 0.445541 184.167C0.53464 185.236 0.623738 186.305 0.712837 187.285C0.801935 188.265 0.980132 189.245 1.06923 190.136C1.24743 191.918 1.42563 193.522 1.51472 194.769L1.15833 192.453C1.42563 193.789 1.51472 194.948 1.69292 196.106C1.69292 195.66 1.69292 195.215 1.69292 194.769C1.78202 196.106 2.04931 197.264 1.96022 197.264C2.31661 198.601 2.04931 196.195 2.673 198.868C2.9403 200.65 3.65309 204.303 3.65309 204.927C2.673 199.759 3.38579 204.748 2.7621 201.719C2.9403 202.432 3.0294 203.234 3.2076 204.214C3.2076 204.392 3.1185 204.036 3.0294 203.679C4.00948 209.025 3.83129 206.085 5.07866 211.52C4.90047 211.163 4.98957 211.52 5.07866 212.054C5.16776 212.589 5.34596 213.302 5.52416 213.747C4.90047 211.52 5.43506 212.678 6.05875 214.638C6.94973 218.113 7.21703 218.38 7.75162 220.252L7.21703 218.291C7.39523 218.648 7.57342 219.271 7.84072 220.073C8.10802 220.875 8.46441 221.855 8.9099 223.103C8.9099 223.192 8.8208 223.103 8.8208 222.924C9.71179 225.33 10.3355 228.359 11.7611 231.478C12.3847 233.171 11.5829 231.745 12.1174 233.26C12.5629 234.24 12.9193 235.042 13.0975 235.755C13.3648 236.378 13.6321 237.002 13.8103 237.537C14.2558 238.695 14.7013 239.764 15.7705 241.902C15.325 240.655 15.2359 240.477 16.7506 243.328L13.543 236.467L15.7705 240.744C14.8795 238.695 13.6321 236.467 13.1866 235.131C14.1667 237.18 14.0776 237.002 13.7212 235.933C14.2558 237.358 14.9686 238.784 15.5923 240.21C16.3051 241.635 17.0179 243.15 17.8198 244.754L17.3743 244.843C17.998 246.09 18.5325 247.248 19.1562 248.318C19.7799 249.476 20.3145 250.545 21.0273 251.614C21.7401 252.772 22.3638 253.931 23.1657 255.178C23.8785 256.426 24.6803 257.851 25.6604 259.277C25.304 258.653 24.8585 258.029 24.5021 257.316C25.1258 258.029 26.9078 260.97 28.1552 262.841C27.977 262.752 28.6898 263.999 29.1353 264.801C29.1353 264.623 32.1646 268.988 32.6992 269.345C33.2338 270.236 33.7684 271.127 34.3921 271.929C36.085 274.156 37.2432 275.404 38.3124 276.562C38.5797 276.829 38.847 277.096 39.1143 277.453C39.1143 277.542 39.2034 277.542 39.2034 277.631C40.1835 278.7 41.0745 279.769 42.0546 280.839C41.1636 280.037 42.5 281.64 40.0944 279.057C41.2527 280.393 42.3218 281.64 42.4109 281.64C42.7673 282.086 43.5692 282.977 44.5493 283.957C44.9948 284.402 45.4403 284.848 45.7967 285.204C46.1531 285.739 46.7768 286.363 47.4005 287.075C48.7369 288.59 50.2516 290.372 51.4099 291.441L51.3208 291.352C53.0137 292.956 54.6175 294.471 56.043 295.896C57.6468 297.233 59.1615 298.48 60.587 299.727C62.0126 300.975 63.6164 302.133 65.2202 303.38C66.8239 304.539 68.3386 305.875 70.2097 307.034C71.2789 307.924 72.7044 308.994 74.3973 310.241C76.0902 311.488 78.1395 312.736 80.1887 314.072C82.238 315.498 84.5546 316.656 86.6929 317.993C87.7621 318.616 88.8313 319.24 89.9005 319.864C90.9697 320.398 91.9497 320.933 92.9298 321.467C91.7715 320.844 93.1971 321.378 94.6227 322.002C96.4047 323.071 99.7904 324.23 99.3449 324.319L98.7212 324.051C100.058 324.853 103.8 326.724 106.829 327.793L107.453 327.704C109.413 328.595 111.641 329.665 114.046 330.377C115.294 330.823 116.541 331.179 117.699 331.625C118.323 331.803 118.947 332.07 119.57 332.248C120.194 332.427 120.818 332.605 121.441 332.783C123.936 333.407 126.253 334.119 128.213 334.654C130.262 335.1 131.955 335.545 133.024 335.901C134.004 336.08 135.163 336.347 136.321 336.525C137.479 336.703 138.548 336.882 139.617 337.06L139.439 337.238C140.865 337.505 142.023 337.772 143.181 337.951C144.34 338.218 145.409 338.307 146.567 338.485C147.725 338.663 148.884 338.753 150.22 338.931C150.933 339.02 151.557 339.109 152.359 339.198C153.16 339.287 153.962 339.287 154.853 339.376H153.428C155.388 339.554 156.635 339.465 157.883 339.465C158.506 339.465 159.13 339.376 159.754 339.376C160.467 339.376 161.179 339.376 162.07 339.376L163.139 339.644C164.832 339.733 166.614 339.733 168.307 339.822L169.644 339.911H170.98H173.564C175.346 339.911 177.039 339.822 178.732 339.733C180.425 339.554 182.207 339.465 183.899 339.198C183.81 339.287 183.632 339.376 182.474 339.465C185.592 339.376 194.413 338.307 193.878 338.04C194.057 338.04 194.413 338.04 195.037 337.951C195.75 337.862 196.73 337.683 197.888 337.416C200.115 336.971 202.788 336.436 204.57 335.991L204.036 336.347C207.065 335.367 207.154 335.278 211.431 334.209C212.055 334.03 212.322 334.119 211.965 334.209C214.282 333.585 214.015 333.407 217.668 332.516L216.153 333.05C219.628 332.07 219.361 332.159 221.143 331.357C223.281 330.556 227.558 329.219 228.092 329.219C228.27 329.13 228.716 328.863 229.34 328.595C229.34 328.595 229.34 328.595 229.251 328.595C229.607 328.417 229.963 328.328 230.231 328.239L230.142 328.417C230.231 328.417 230.231 328.328 230.32 328.328L230.142 328.595C231.924 327.883 230.32 328.417 230.32 328.328C231.567 327.883 230.765 328.15 230.409 328.15C231.033 327.883 231.567 327.704 232.102 327.437C231.924 327.526 231.567 327.704 231.389 327.793C232.815 327.259 233.973 326.813 235.131 326.368C235.487 326.19 235.755 326.101 236.022 325.922C233.884 326.992 237.091 325.566 233.527 327.081C235.22 326.368 236.289 326.011 237.359 325.566C238.25 325.299 239.23 324.853 237.448 325.922C238.606 325.299 240.21 324.497 241.903 323.695C242.794 323.339 244.932 322.269 246.001 321.735L243.774 322.715C243.863 322.626 244.041 322.626 244.13 322.537C244.576 322.269 245.021 322.091 245.466 321.913C246.357 321.467 247.248 321.022 248.139 320.576L247.872 320.844C248.05 320.755 248.229 320.666 248.407 320.576L247.961 320.933C248.852 320.576 249.743 320.042 250.545 319.596C251.347 319.151 252.149 318.705 252.951 318.26C254.465 317.369 255.98 316.567 257.406 315.587C258.831 314.696 260.168 313.805 261.504 312.914C262.217 312.469 262.841 312.112 263.464 311.667C264.088 311.221 264.712 310.865 265.425 310.508C267.028 309.261 262.217 312.558 263.197 311.756C263.286 311.667 263.375 311.667 263.553 311.578C264.177 311.132 264.801 310.776 265.514 310.419C266.048 309.974 265.87 310.063 265.425 310.33C267.741 308.815 269.879 307.568 270.592 307.034C272.642 305.519 273.443 304.806 274.334 304.004C274.78 303.648 275.225 303.202 275.849 302.668C276.473 302.133 277.186 301.598 278.166 300.707C277.987 300.886 277.72 300.975 277.72 300.975C277.898 300.886 277.987 300.707 278.166 300.618C277.987 300.707 277.898 300.797 277.809 300.797C277.987 300.529 278.611 299.995 279.948 298.747C281.373 297.5 282.353 296.876 282.621 296.698C282.531 296.876 282.264 297.144 281.819 297.411C281.195 297.945 280.839 298.213 280.839 298.213C279.948 299.015 278.789 299.995 279.948 299.193L280.215 298.836C280.393 298.658 280.66 298.48 280.928 298.302C280.839 298.391 280.75 298.48 280.75 298.48C280.928 298.302 281.106 298.213 281.195 298.035C281.551 297.767 281.908 297.5 282.264 297.144C282.086 297.322 281.908 297.411 281.73 297.678C281.106 298.213 280.75 298.48 280.75 298.48C279.859 299.282 278.7 300.262 279.859 299.46L280.126 299.104C280.839 298.569 282.175 297.411 283.155 296.609C284.135 295.718 284.848 295.094 284.492 295.54C285.917 294.114 285.65 294.292 284.848 295.005L284.937 294.916C286.095 293.847 287.165 292.867 288.145 291.887C288.768 291.263 289.481 290.639 290.194 289.927C290.907 289.214 291.62 288.412 292.421 287.61C291.976 288.056 291.53 288.323 291.62 288.234C291.887 287.966 292.154 287.699 292.421 287.432C292.332 287.521 292.332 287.521 292.243 287.61C294.382 285.472 294.827 284.848 295.094 284.492C295.183 284.402 295.273 284.313 295.362 284.135C295.451 284.046 295.54 283.868 295.718 283.779C296.431 282.977 297.055 282.175 297.767 281.373C298.302 280.928 297.233 282.264 299.727 279.235C300.173 278.789 300.44 278.522 300.529 278.344C300.262 278.7 299.817 279.235 299.549 279.68C299.906 279.235 300.351 278.7 300.708 278.255C300.618 278.522 299.995 279.324 299.549 279.769C300.262 278.878 300.886 278.076 301.599 277.364C302.222 276.562 302.846 275.849 303.381 275.136C304.004 274.334 304.628 273.622 305.163 272.998L304.984 273.265C305.073 273.176 305.163 273.087 305.163 272.998C305.608 272.463 305.964 272.018 306.321 271.572L304.984 273.443C305.786 272.285 306.499 271.483 307.212 270.503C307.034 270.681 306.855 270.859 306.677 271.038C306.855 270.77 307.034 270.592 307.212 270.325C307.123 270.414 307.123 270.503 307.034 270.503C307.479 269.879 307.835 269.434 307.835 269.434C308.103 268.988 308.014 268.988 308.014 268.988C308.103 268.721 308.014 268.899 307.925 268.899C308.014 268.721 308.192 268.454 308.548 267.83C309.172 267.028 310.152 265.603 310.865 264.444C310.598 264.89 310.687 264.801 310.776 264.712C310.508 265.068 310.687 264.979 310.865 264.801C310.776 264.979 310.687 265.157 310.419 265.514C310.598 265.246 310.776 264.979 310.954 264.801C311.043 264.801 310.954 264.89 310.419 265.692C310.865 265.068 311.31 264.444 311.845 263.643C311.934 263.464 311.756 263.821 311.578 264.177C314.607 259.633 312.736 261.95 315.676 257.138C315.498 257.495 315.765 257.227 316.033 256.782C316.3 256.336 316.656 255.713 316.924 255.267C316.389 256.247 316.211 256.426 316.3 256.247C316.567 255.891 316.745 255.445 316.924 255.089C316.567 255.713 316.389 255.98 316.3 256.069C316.389 255.802 316.656 255.178 317.013 254.465C317.28 254.02 317.547 253.574 317.815 253.129C318.438 252.06 319.062 250.991 319.686 249.921C320.22 248.852 320.755 247.872 321.289 246.892C320.666 248.05 321.2 246.625 321.824 245.199C322.359 244.308 322.982 242.972 323.428 241.902C323.695 241.457 323.873 241.011 324.14 240.477C324.23 240.388 324.23 240.388 324.23 240.477L323.962 241.101C324.764 239.764 326.635 236.022 327.704 232.993V232.814C328.15 231.656 328.685 230.587 329.397 228.359C329.308 228.449 329.308 228.538 329.219 228.716C329.576 227.825 329.932 226.845 330.288 225.776C330.734 224.528 331.09 223.281 331.536 222.123C331.714 221.499 331.981 220.875 332.159 220.252C332.338 219.628 332.516 219.004 332.694 218.38C333.318 215.886 334.03 213.569 334.565 211.609C335.011 209.56 335.456 207.867 335.812 206.798C335.991 205.818 336.258 204.659 336.436 203.501C336.614 202.343 336.793 201.274 336.971 200.204L337.149 200.383C337.416 198.957 337.683 197.799 337.862 196.64C338.129 195.482 338.218 194.413 338.396 193.255C338.574 192.096 338.664 190.938 338.842 189.602C338.931 188.889 339.02 188.265 339.109 187.463C339.198 186.661 339.198 185.859 339.287 184.969V186.394C339.465 184.434 339.376 183.187 339.376 181.939C339.376 181.315 339.287 180.692 339.287 180.068C339.287 179.355 339.287 178.643 339.287 177.752L339.555 176.682C339.644 174.989 339.644 173.208 339.733 171.515L339.822 170.178L340 168.753ZM316.3 84.1981L316.211 84.109C316.3 84.1981 316.389 84.2872 316.567 84.4654C317.191 85.5345 317.369 85.98 317.458 86.1582C317.102 85.5345 316.745 85 316.3 84.1981ZM299.906 276.294C299.549 276.74 299.104 277.185 298.747 277.631C299.104 277.096 300.262 275.582 297.767 278.611C298.035 278.344 298.213 278.166 298.391 277.987C297.946 278.433 297.589 278.967 297.233 279.413C296.52 280.304 295.807 281.106 295.005 281.997C294.292 282.621 297.144 279.68 295.183 281.462C294.203 282.531 293.491 283.422 292.778 284.135C292.154 284.848 291.53 285.472 290.996 286.006C290.461 286.63 289.927 287.165 289.214 287.877C288.857 288.234 288.501 288.59 288.145 289.036C287.699 289.481 287.254 289.837 286.719 290.372C285.917 291.263 286.897 290.461 286.452 290.996C285.561 291.798 284.581 292.689 283.69 293.58C282.531 294.56 281.373 295.54 280.215 296.52C279.502 297.054 278.611 297.767 277.275 299.015C275.047 300.975 276.829 299.549 275.671 300.618C275.314 300.618 271.038 304.004 273.176 302.222C270.592 304.271 268.899 305.43 267.028 306.855C266.048 307.568 265.068 308.281 263.91 309.083C262.752 309.885 261.326 310.776 259.544 311.934C260.346 311.488 261.237 310.954 260.791 311.31C259.544 312.112 257.851 313.092 258.029 312.914L258.386 312.647C254.465 315.141 249.743 317.725 245.021 319.864C242.704 321.022 240.388 321.913 238.25 322.893C237.18 323.339 236.2 323.784 235.22 324.23C234.24 324.586 233.349 325.031 232.458 325.388L232.814 325.21C230.409 326.19 228.092 327.259 225.687 328.061C222.301 329.13 227.647 327.259 225.152 327.972C223.192 328.684 221.499 329.308 219.806 329.843C218.113 330.288 216.599 330.734 215.084 331.179C212.144 332.07 209.292 332.605 205.996 333.496C205.372 333.585 204.57 333.674 203.679 333.852C202.788 333.941 201.808 334.119 200.739 334.298C199.67 334.476 198.601 334.654 197.442 334.832C196.284 335.01 195.126 335.278 193.878 335.367C191.473 335.723 188.978 336.08 186.572 336.258C184.256 336.436 182.028 336.525 180.246 336.614L180.692 336.703C178.821 336.971 178.464 336.792 177.128 336.792C177.306 336.882 179.088 336.882 178.019 336.971C174.099 337.06 170.178 337.327 166.169 337.149C164.209 337.06 162.159 337.06 160.11 336.882C158.061 336.703 156.101 336.525 154.051 336.347L152.537 336.258L151.022 336.08L147.993 335.634C145.943 335.367 143.983 335.1 142.023 334.743C140.063 334.387 138.014 334.03 136.054 333.585C134.093 333.139 132.133 332.694 130.173 332.159C127.322 331.536 126.52 331.357 125.451 331.268C124.471 331.09 123.223 330.823 119.748 329.754L121.798 330.11C110.393 327.081 98.9885 322.091 88.7422 316.656C89.3659 316.923 89.455 316.923 90.4351 317.458C89.3659 316.834 87.4057 315.676 85.7128 314.785C85.1782 314.429 84.5546 314.161 84.1091 313.894C83.0399 313.181 81.7925 312.379 80.6342 311.578L80.456 311.488C79.1195 310.597 77.5158 309.706 76.3575 308.994C76.0902 308.815 75.912 308.637 75.6447 308.459C75.8229 308.548 76.0902 308.726 76.3575 308.994C75.912 308.726 75.5556 308.459 75.2883 308.281C75.3774 308.37 75.4665 308.37 75.6447 308.548C75.4665 308.459 75.2883 308.281 75.1101 308.192L75.021 308.103C75.1101 308.103 75.6447 308.548 76.0011 308.726C75.7338 308.548 75.3774 308.37 75.021 308.103C75.1992 308.192 75.3774 308.281 75.7338 308.459C75.4665 308.281 75.1992 308.103 75.021 307.924C74.9319 307.924 74.9319 307.924 75.021 308.014C74.4864 307.657 73.9518 307.301 73.4172 306.944C73.5954 307.034 73.7736 307.123 73.9518 307.212C73.5063 306.855 72.9717 306.588 72.5263 306.232C71.7244 305.608 71.0116 305.162 71.0116 305.252C70.9225 305.162 70.7443 305.073 70.6552 305.073C69.8533 304.45 69.0514 303.915 68.2495 303.291C68.695 303.648 69.3187 304.004 69.6751 304.271C69.0514 303.826 68.2495 303.202 67.5367 302.668C67.8931 302.935 69.1405 303.737 69.6751 304.093C67.7149 302.668 64.9529 300.529 63.4382 299.46C62.6363 298.747 61.9235 298.124 61.1216 297.5C61.1216 297.5 61.1216 297.411 61.0325 297.411C61.1216 297.411 61.1216 297.322 60.9434 297.054C59.9634 296.431 59.5179 295.985 58.8051 295.54C58.4487 295.183 58.0032 294.827 57.6468 294.471C56.6667 293.58 55.6866 292.6 54.6174 291.53C54.6174 291.53 54.6175 291.53 54.5284 291.53C54.172 291.174 53.8156 290.818 53.5483 290.639C53.6374 290.728 53.8156 290.907 53.9047 290.996C53.8156 290.996 53.8156 290.907 53.7265 290.818C53.281 290.372 52.7464 289.927 52.2118 289.392L53.1028 289.927L52.5682 289.392L53.1028 289.748L51.3208 288.145C51.1426 287.788 50.4298 286.897 48.5588 284.759L46.7768 283.066C46.2422 282.442 45.7076 281.908 45.3512 281.462C45.2621 281.284 45.0839 281.195 44.9948 281.106L44.6384 280.571C45.4403 281.551 46.2422 282.353 47.1332 283.244C46.5095 282.442 45.8858 281.819 45.3512 281.284C44.8166 280.749 44.3711 280.215 43.8365 279.68C43.6583 279.324 43.3019 278.878 42.7673 278.166L40.0053 275.314C40.1835 275.493 40.3617 275.671 40.1835 275.314C40.3617 275.404 40.3617 275.404 39.4707 274.156C38.9361 273.532 39.0252 273.711 39.1143 273.889C39.0252 273.8 39.1143 274.067 39.2034 274.245C39.1143 274.156 38.847 273.889 38.3124 273.265C37.1541 271.572 37.5996 271.929 36.1741 270.325C36.3522 270.503 36.5304 270.77 36.8868 271.127C36.6195 270.77 36.3523 270.414 35.9959 270.058C35.9959 269.969 36.3523 270.325 36.8868 270.949C36.1741 270.147 35.2831 268.988 34.4812 268.008C33.6793 266.939 33.0556 266.048 32.6101 265.603C32.0755 264.623 31.0063 263.197 30.1154 261.95C29.4917 260.97 28.9571 260.079 28.868 259.811C28.868 259.722 28.868 259.633 28.868 259.633C28.5116 259.188 27.086 257.138 26.0168 255.535C26.1059 255.624 26.1059 255.535 25.9277 255.267C26.3732 255.802 25.4822 254.376 24.5912 252.773C23.7894 251.258 22.8093 249.654 22.6311 249.119C22.6311 249.119 22.6311 249.119 22.7202 249.119L22.6311 249.03C22.6311 248.941 22.6311 248.941 22.7202 248.941C22.3638 248.407 21.8292 247.605 21.2946 246.625C20.76 245.645 20.2254 244.486 19.6017 243.328C19.2453 242.526 18.7998 241.724 18.3543 240.922C17.9089 239.942 17.4634 238.873 17.107 237.982C16.6615 236.913 16.216 235.933 15.7705 234.953C15.6814 234.686 15.5923 234.507 15.5032 234.329C15.2359 233.705 15.0577 233.171 14.7904 232.458C14.7904 232.458 14.7013 232.369 14.6122 232.28C13.8103 230.32 12.9193 228.359 12.2065 226.399C12.4738 227.023 12.8302 227.647 12.7411 227.201C12.7411 227.201 12.8302 227.201 12.7411 227.023C12.652 227.112 12.1174 225.865 11.5829 224.617C11.5829 224.528 11.4938 224.439 11.4938 224.35C11.4047 223.994 12.4738 226.934 11.9393 224.885C11.2265 223.014 10.6028 221.321 10.1573 219.806C10.1573 219.717 10.1573 219.539 10.0682 219.361L9.97908 219.271C9.53359 217.757 9.1772 216.331 8.7317 214.906C8.37531 213.569 8.01892 212.233 7.66252 210.896C7.84072 211.52 8.10802 212.144 8.10802 212.144C8.01892 211.698 7.84072 211.253 7.75162 210.985C7.92982 211.52 8.10802 212.054 8.10802 212.054C7.75162 210.807 7.57342 210.183 7.48432 209.827C7.21703 208.58 6.86064 207.243 6.50424 205.907C6.50424 205.818 6.50424 205.728 6.50424 205.55C6.50424 205.461 6.50424 205.461 6.50424 205.372C6.41514 204.837 6.32604 204.214 6.14785 203.501C6.05875 202.61 5.88055 201.63 5.70235 200.561C5.52416 199.492 5.34596 198.422 5.16776 197.264C4.98957 196.106 4.72227 194.948 4.63317 193.7C4.27678 191.294 3.92038 188.8 3.74219 186.394C3.56399 184.078 3.47489 181.85 3.38579 180.068L3.0294 180.87C2.7621 178.999 2.9403 178.643 2.9403 177.306C2.8512 177.484 2.8512 179.266 2.7621 178.197C2.673 174.277 2.40571 170.356 2.58391 166.347C2.673 164.387 2.673 162.337 2.8512 160.288C3.0294 158.239 3.2076 156.279 3.38579 154.23L3.47489 152.715L3.65309 151.2L4.09858 148.171C4.36588 146.122 4.63317 144.161 4.98957 142.201C5.34596 140.241 5.70235 138.192 6.14785 136.232C6.59334 134.271 7.03883 132.311 7.57342 130.351C8.19711 127.5 8.37531 126.698 8.46441 125.629C8.64261 124.649 8.9099 123.401 9.97908 119.927L9.62269 121.976C12.652 110.571 17.6416 99.1666 23.0766 88.9203C22.8093 89.544 22.8093 89.6331 22.2747 90.6132C22.8984 89.544 24.0567 87.5838 24.9476 85.8909C25.3931 85 25.8386 84.1981 26.1059 83.6635C26.3732 83.0398 26.5514 82.6834 26.5514 82.6834C27.5315 81.1687 26.9078 82.4161 27.5315 81.5251C28.9571 79.4758 30.6499 76.1792 31.5409 75.1991C31.7191 75.0209 31.1845 75.8228 30.9172 76.1792C31.7191 74.8427 35.194 70.1205 34.2139 71.2788C34.8376 70.3878 35.4613 69.4968 36.085 68.6949C36.7086 67.893 37.3323 67.0911 37.956 66.2893C39.2034 64.7746 40.2726 63.2599 41.4309 61.9234C42.0546 61.0324 43.3019 59.6069 44.4602 58.3595C44.9948 57.7358 45.5294 57.1121 45.8858 56.6666C46.3313 56.2211 46.5986 55.8647 46.6877 55.6865C46.6877 56.132 52.0336 50.2515 53.9938 48.3805C53.3701 49.0932 55.7757 46.7767 55.0629 47.6677C57.2904 45.4402 59.4288 43.5691 58.8942 43.8364C63.4382 40.2725 67.6258 36.174 70.477 34.5702C71.9917 33.4119 73.4172 32.3427 74.9319 31.2735C75.7338 30.828 76.2684 30.4717 76.7139 30.2044C77.3376 29.848 77.8722 29.4916 78.7631 28.957L78.5849 29.0461C80.0105 28.1551 81.4361 27.2641 82.8617 26.4622C82.5053 26.6404 82.0598 26.8186 81.7034 27.0859C82.6835 26.284 83.7527 25.6603 84.8218 25.0366C85 24.9475 85.1782 24.8584 85.3564 24.6802C85.8019 24.413 86.1583 24.2348 86.6038 23.9675C87.4948 23.4329 88.3858 22.8983 89.3659 22.3637C90.346 21.8291 91.4151 21.2945 92.4843 20.6708C88.2967 23.1656 91.8606 21.2054 91.5933 21.5618C92.7516 21.0272 94.5336 20.2253 94.0881 20.4926C95.0682 19.8689 95.9592 19.4234 97.0284 18.9779C98.0084 18.5324 99.1667 18.087 100.681 17.2851C100.86 17.2851 102.998 16.2159 102.552 16.6614C105.315 15.3249 101.84 16.8396 102.018 16.6614C106.295 14.523 112.442 12.741 118.857 10.3354C121.62 9.4444 123.312 8.9098 124.916 8.37521C125.005 8.37521 125.005 8.37521 125.094 8.28612C126.698 7.84062 128.302 7.39513 129.906 7.03874C130.084 6.94964 130.351 6.94964 130.529 6.86054C129.995 7.03874 129.282 7.21693 129.282 7.21693C130.708 6.94964 132.044 6.68234 133.291 6.41505C134.539 6.14775 135.786 5.79136 137.123 5.52406C136.588 5.70226 137.123 5.61316 138.014 5.52406C139.974 5.16767 139.617 5.07857 141.489 4.72217C141.756 4.72217 142.023 4.63308 142.38 4.63308C141.934 4.81127 141.31 4.98947 140.241 5.25677C141.578 4.98947 142.825 4.72217 144.161 4.45488C145.409 4.27668 146.656 4.09848 147.904 3.83119H147.993C148.082 3.83119 148.171 3.83119 148.26 3.83119C148.171 3.92029 146.389 4.18758 145.587 4.36578C147.993 4.00939 151.468 3.56389 153.339 3.2075C154.497 3.1184 155.566 3.0293 156.635 2.9402C156.368 3.0293 156.368 3.1184 156.813 3.1184C157.972 2.85111 158.595 2.85111 159.397 2.67291C159.932 2.67291 160.467 2.58381 161.001 2.58381C162.338 2.49471 163.674 2.49471 165.189 2.49471C165.189 2.49471 165.189 2.49471 165.278 2.49471C165.812 2.49471 166.258 2.49471 166.614 2.40561C166.436 2.40561 166.258 2.40561 166.08 2.40561C166.971 2.31651 168.396 2.31651 169.555 2.13832C169.733 2.13832 169.911 2.13832 170.089 2.13832C169.911 2.22742 169.733 2.31651 169.733 2.40561C169.465 2.40561 169.109 2.40561 168.574 2.40561L167.505 2.49471L169.911 2.40561C170.267 2.58381 171.426 2.67291 174.188 2.85111L178.553 2.76201L179.979 3.0293C178.732 2.9402 177.573 2.9402 176.326 2.85111C177.395 2.9402 178.197 2.9402 178.999 3.0293C179.801 3.0293 180.425 3.0293 181.226 3.1184C181.583 3.2075 182.207 3.2966 183.008 3.3857H187.285C187.82 3.56389 185.325 3.3857 188.176 3.83119C190.136 3.92029 186.305 3.2966 189.602 3.65299C191.651 4.00939 191.027 4.09848 193.433 4.27668C193.789 4.36578 193.255 4.36578 192.275 4.27668C193.344 4.36578 194.769 4.54398 196.106 4.72217C197.353 4.90037 198.512 5.07857 199.135 5.16767C200.204 5.43496 201.986 5.79136 203.501 6.05865C205.016 6.32595 206.174 6.68234 206.085 6.77144C206.798 6.86054 209.827 7.39513 211.787 7.84062C210.005 7.66243 211.787 7.92972 213.926 8.64251C216.064 9.2662 218.47 9.97899 217.935 9.97899C218.559 10.0681 219.539 10.2463 220.608 10.6027C221.677 10.9591 222.925 11.3155 224.172 11.761C224.974 12.0283 225.865 12.2955 226.756 12.6519C227.736 13.0974 228.805 13.4538 229.785 13.8102C230.854 14.2557 231.924 14.6121 232.904 14.9685C233.171 15.0576 233.349 15.1467 233.527 15.2358C234.151 15.5031 234.686 15.7704 235.398 16.0377C235.398 16.0377 235.487 16.0377 235.666 16.0377C237.804 16.9287 240.031 17.7306 242.081 18.7997C241.368 18.5324 240.21 18.1761 240.655 18.4433C240.655 18.3542 241.546 18.7106 242.526 19.067C242.615 19.067 242.615 19.1561 242.704 19.1561C242.704 19.1561 242.794 19.1561 242.794 19.2452C242.17 18.9779 241.546 18.7106 242.704 19.3343C244.486 20.1362 246.09 20.9381 247.605 21.6509C247.694 21.74 247.783 21.8291 247.961 21.9182C247.961 21.9182 248.05 21.9182 248.139 21.9182C249.565 22.7201 250.812 23.4329 252.06 24.1457C253.485 24.8584 254.733 25.6603 256.069 26.5513C255.446 26.284 254.555 25.7494 254.555 25.7494C255.713 26.3731 256.247 26.7295 256.604 26.8186C257.673 27.5314 258.831 28.2442 260.079 28.957C260.168 29.0461 260.257 29.0461 260.346 29.1352C260.435 29.1352 260.435 29.2243 260.524 29.2243C260.97 29.5807 261.504 29.9371 262.039 30.2935C262.752 30.828 263.553 31.4517 264.444 31.9863C265.335 32.61 266.226 33.2337 267.207 33.9465C268.187 34.5702 269.167 35.283 270.147 36.0849C272.107 37.5995 274.156 39.1142 275.938 40.5398C277.72 42.0545 279.324 43.48 280.66 44.7274L280.393 44.371C280.393 44.371 280.482 44.371 280.482 44.4601C280.571 44.5492 280.571 44.5492 280.66 44.6383V44.5492C281.908 45.5293 282.175 45.9748 283.066 46.8658C282.977 46.6876 281.908 45.6184 282.442 46.0639C282.621 46.2421 282.799 46.5094 283.066 46.7767C283.066 46.6876 282.888 46.5985 282.799 46.4203C285.561 49.0041 288.501 51.588 291.085 54.5283C292.421 56.0429 293.847 57.3794 295.183 58.9832C296.52 60.4979 297.767 62.1016 299.104 63.6163L300.084 64.7746L300.975 66.022L302.846 68.4276C304.093 70.0314 305.341 71.6352 306.41 73.328C307.568 75.0209 308.726 76.6247 309.796 78.3176C310.865 80.0104 311.934 81.7033 313.003 83.3962C314.607 85.8909 315.052 86.5146 315.676 87.4056C316.211 88.2075 316.834 89.0985 318.349 91.9496L317.369 90.6132C317.458 90.8804 317.636 91.0586 317.725 91.3259L317.369 90.7914C323.16 100.77 327.615 111.997 331.001 122.867C330.912 122.6 330.823 122.332 330.645 121.798C330.734 121.976 330.734 122.243 330.823 122.51C330.734 122.332 330.734 122.154 330.645 121.887C331.001 123.045 331.536 125.272 332.07 127.144C332.338 128.124 332.605 128.926 332.783 129.549C332.872 129.817 332.961 129.995 332.961 130.084C333.05 130.529 333.139 131.064 333.229 131.509V131.598C333.229 131.688 333.229 131.777 333.318 132.044C333.674 133.915 334.476 136.588 334.743 138.281V138.37V138.281C334.743 138.37 334.743 138.459 334.832 138.548V138.459C334.832 138.637 334.921 138.726 334.921 138.815C334.921 138.994 334.921 139.083 335.011 139.261C335.011 139.172 334.832 138.459 334.743 138.103C334.832 138.37 334.921 138.815 335.011 139.35C334.921 139.172 334.832 138.548 334.743 138.281C335.1 139.796 335.991 145.587 335.901 144.072C336.08 145.141 336.258 146.211 336.347 147.191C336.347 147.28 336.347 147.458 336.436 147.547C336.347 146.923 336.169 146.3 336.169 145.854C336.436 147.725 336.792 150.22 337.06 152.091C337.238 153.249 337.327 154.408 337.416 155.477C337.416 155.299 337.327 155.12 337.327 155.031V155.21L337.416 156.635C337.416 156.635 337.327 156.813 337.327 156.992C337.327 157.17 337.416 157.437 337.416 157.615V158.15C337.416 158.061 337.416 157.883 337.416 157.793C337.594 158.684 337.594 159.219 337.773 160.021C337.773 160.11 337.773 160.288 337.773 160.377C337.862 161.179 337.862 161.981 337.951 162.605C337.951 162.783 337.951 162.961 337.951 163.05C337.951 163.407 337.862 163.674 337.862 163.496C337.951 163.852 337.862 165.01 337.951 165.901C337.951 166.703 337.951 167.594 338.04 168.574L337.773 167.594L337.862 170C337.683 170.356 337.594 171.515 337.416 174.277L337.505 178.643L337.238 180.068C337.327 178.821 337.327 177.662 337.416 176.415C337.327 177.484 337.327 178.286 337.238 179.088C337.238 179.89 337.238 180.514 337.149 181.315C337.06 181.672 336.971 182.296 336.882 183.097V187.374C336.703 187.909 336.882 185.414 336.436 188.265C336.347 190.225 336.971 186.394 336.614 189.691C336.258 191.74 336.169 191.116 335.991 193.522C335.902 193.878 335.902 193.344 335.991 192.364C335.902 193.433 335.723 194.858 335.545 196.195C335.367 197.442 335.189 198.601 335.1 199.224C334.832 200.293 334.476 202.075 334.209 203.59C333.941 205.105 333.585 206.263 333.496 206.174C333.407 206.887 332.872 209.916 332.427 211.876C332.605 210.094 332.338 211.876 331.625 214.015C331.001 216.153 330.288 218.559 330.288 218.024C330.199 218.648 330.021 219.628 329.665 220.697C329.308 221.766 328.952 223.014 328.506 224.261C328.061 225.508 327.615 226.845 327.17 228.181C326.724 229.429 326.19 230.676 325.833 231.834C325.922 231.567 326.012 231.032 326.19 230.676C325.21 233.171 324.853 233.884 324.14 235.398C324.23 235.844 322.626 239.675 321.824 241.813C320.22 244.665 322.359 239.853 321.735 240.744C321.824 240.744 321.289 242.081 320.844 243.239C320.309 244.397 319.775 245.466 320.131 245.021C318.884 247.159 319.062 246.892 318.26 247.961C318.349 248.496 317.28 250.1 316.389 251.971C314.429 255.089 315.676 252.594 313.805 256.158C312.736 257.762 314.429 254.644 314.429 254.644C312.379 258.207 313.716 256.426 313.36 257.227C310.865 261.415 312.023 259.009 311.043 260.346C310.241 261.682 309.617 262.841 308.994 263.91C308.37 264.979 307.746 265.959 307.034 266.85C306.944 266.939 306.677 267.296 306.855 266.85C306.41 267.563 305.875 268.365 305.252 269.256C304.628 270.147 303.915 271.127 303.202 272.107C302.133 273.532 300.975 274.958 299.995 276.294C299.995 276.205 299.906 276.205 299.906 276.294ZM64.0619 300.173C64.151 300.173 64.151 300.262 64.2401 300.351C65.5766 301.242 66.3784 301.955 66.8239 302.4C66.6457 302.311 66.5566 302.133 66.3784 302.044C65.5766 301.42 64.7747 300.797 64.0619 300.173ZM81.7925 312.647C81.7034 312.558 81.6143 312.558 81.5252 312.379C81.2579 312.201 80.9906 312.023 80.7233 311.845C81.2579 312.112 82.6835 313.092 83.8418 313.894C83.8418 313.894 83.7527 313.894 83.7527 313.805C83.6636 313.716 83.4854 313.716 83.3963 313.627C82.8617 313.27 82.3271 312.914 81.7925 312.647ZM82.8617 313.449C82.7726 313.359 82.6835 313.359 82.5944 313.359C81.7034 312.736 81.7925 312.736 81.7925 312.736C82.1489 312.914 82.5053 313.181 82.8617 313.449ZM157.437 337.951C156.903 337.951 156.279 337.862 155.655 337.862C155.655 337.862 155.655 337.862 155.566 337.862C155.566 337.862 155.566 337.862 155.477 337.862C156.101 337.862 156.724 337.951 157.437 337.951ZM322.537 98.4538C322.537 98.3647 322.448 98.2756 322.448 98.2756C322.537 98.4538 322.626 98.5429 322.715 98.632C322.804 98.8102 322.893 99.0775 322.982 99.3448C322.804 98.9884 322.715 98.7211 322.537 98.4538ZM332.872 130.44C332.961 130.886 333.05 131.153 333.05 131.242C332.961 130.975 332.961 130.618 332.872 130.262C332.872 130.44 332.872 130.44 332.872 130.44ZM152.626 3.1184C152.537 3.1184 152.448 3.1184 152.359 3.1184C150.577 3.47479 149.507 3.47479 148.973 3.47479C150.309 3.3857 151.468 3.2075 152.626 3.1184ZM140.865 4.45488C141.043 4.45488 140.419 4.63308 140.152 4.72217C139.707 4.81127 139.172 4.90037 138.726 4.98947L139.617 4.72217L140.152 4.63308C140.241 4.63308 140.241 4.63308 140.33 4.63308L140.865 4.45488ZM135.786 5.16767C135.519 5.25677 135.252 5.25677 135.073 5.34586C135.252 5.25677 135.43 5.25677 135.697 5.16767H135.786ZM135.519 5.43496C135.519 5.43496 135.608 5.34586 135.964 5.25677H136.499C137.39 4.98947 136.321 5.16767 135.964 5.25677C136.143 5.16767 136.41 5.16767 136.677 5.07857C136.41 5.07857 136.232 5.16767 136.054 5.16767C136.143 5.16767 136.232 5.07857 136.321 5.07857H136.499C136.855 4.98947 136.855 4.90037 136.766 4.98947C136.855 4.98947 136.945 4.90037 137.034 4.90037C137.835 4.81127 138.281 4.72217 138.548 4.72217C138.281 4.81127 137.835 4.90037 137.301 4.98947L138.816 4.72217C138.816 4.81127 138.192 4.98947 137.301 5.16767L137.657 5.07857L136.321 5.43496C135.964 5.43496 135.608 5.43496 135.519 5.43496C135.519 5.43496 135.608 5.43496 135.519 5.43496C135.608 5.43496 135.519 5.43496 135.519 5.43496ZM115.204 10.9591L115.115 11.0482H114.937C115.026 10.9591 115.115 10.9591 115.204 10.9591ZM99.9686 16.8396C99.7904 16.9287 99.7013 17.0178 99.5231 17.1069C99.7013 17.0178 99.7904 16.9287 99.9686 16.8396ZM10.3355 112.531C10.3355 112.353 10.3355 112.264 10.3355 112.264C10.4246 112.086 10.4246 111.908 10.5137 111.819C10.781 111.017 11.0483 110.393 11.3156 109.769C11.0483 110.482 10.781 111.284 10.3355 112.531ZM6.50424 212.5C6.68244 213.213 6.50424 212.767 6.32604 212.144C6.32604 211.965 6.23695 211.609 6.14785 211.163C6.23695 211.52 6.32604 211.965 6.50424 212.322V212.5ZM45.0839 281.64C45.4403 282.086 45.8858 282.531 46.3313 282.977L45.4403 282.086L45.0839 281.64ZM51.3208 288.946C51.3208 288.946 51.3208 288.857 51.3208 288.946C51.3208 288.857 51.3208 288.857 51.3208 288.946C51.3208 288.857 51.3208 288.946 51.3208 288.946ZM337.06 155.655C337.06 155.655 337.06 155.566 337.06 155.655C337.06 155.566 337.06 155.566 337.06 155.655C337.06 155.566 337.06 155.566 337.06 155.655C337.149 156.011 337.149 156.457 337.238 156.902C337.149 156.724 337.149 156.635 337.149 156.546C337.149 156.279 337.06 155.922 337.06 155.655ZM322.18 97.4737C322.091 97.4737 322.091 97.4737 322.002 97.3847C321.913 97.2065 321.824 97.1174 321.824 96.9392C321.824 96.761 322.002 96.9392 322.18 97.4737ZM102.463 14.0775L102.107 14.2557C101.929 14.3448 101.661 14.4339 101.483 14.523L102.463 14.0775ZM12.0283 108.076C11.8502 108.522 11.672 108.967 11.4938 109.502C11.4938 109.413 11.5829 109.324 11.5829 109.235C11.9393 108.255 12.2065 107.631 12.2956 107.364C12.2065 107.542 12.1174 107.809 12.0283 108.076ZM1.24743 157.704C1.24743 157.615 1.24743 157.526 1.24743 157.437C1.24743 157.526 1.24743 157.615 1.24743 157.704ZM6.23695 212.233V212.322C6.23695 212.233 6.14785 212.144 6.14785 212.144C6.14785 212.144 6.14785 212.233 6.23695 212.233ZM284.848 295.183C284.581 295.451 284.313 295.629 284.046 295.896C284.313 295.629 284.581 295.362 284.848 295.183Z" fill="#75AC6C"/>
<path d="M315.141 82.5943C315.052 82.4161 314.963 82.327 314.874 82.1488C314.963 82.4161 315.141 82.5943 315.23 82.7725C315.32 82.8616 315.409 83.0398 315.498 83.1289C315.409 82.9507 315.23 82.7725 315.141 82.5943Z" fill="#75AC6C"/>
<path d="M80.0107 28.1552L79.4761 28.5115C79.6543 28.3333 79.8325 28.2442 80.0107 28.1552Z" fill="#75AC6C"/>
<path d="M81.258 27.3533L80.6343 27.7097C80.8125 27.6206 80.9907 27.5315 81.258 27.3533Z" fill="#75AC6C"/>
<path d="M80.6344 27.7097C80.3671 27.8879 80.1889 27.977 80.0107 28.0661L80.6344 27.7097Z" fill="#75AC6C"/>
<path d="M91.5933 21.5619C91.7715 21.4728 91.7715 21.3837 91.7715 21.3837L91.5933 21.5619Z" fill="#75AC6C"/>
<path d="M152.715 3.38579C152.715 3.2967 152.715 3.2967 152.715 3.38579C152.537 3.38579 152.269 3.38579 152.002 3.47489L152.715 3.38579Z" fill="#75AC6C"/>
<path d="M153.606 3.20752C153.25 3.20752 152.893 3.29662 152.804 3.29662L153.606 3.20752Z" fill="#75AC6C"/>
<path d="M155.21 3.02942L153.606 3.20762C154.141 3.20762 154.853 3.11852 155.21 3.02942Z" fill="#75AC6C"/>
<path d="M132.935 6.50415L132.757 6.59325C132.846 6.59325 132.846 6.50415 132.935 6.50415Z" fill="#75AC6C"/>
<path d="M132.489 6.68236L132.668 6.59326C131.777 6.94966 128.391 7.39515 127.144 7.84064C128.569 7.48425 130.618 7.21695 132.489 6.68236Z" fill="#75AC6C"/>
<path d="M4.18789 132.133L3.4751 135.519L4.00969 133.024L4.18789 132.133Z" fill="#75AC6C"/>
<path d="M328.952 230.32C329.308 229.34 329.664 228.449 330.021 227.469C329.843 227.914 329.664 228.36 329.486 228.805L328.952 230.32Z" fill="#75AC6C"/>
</g>
<defs>
<clipPath id="clip0_2247_50983">
<rect width="340" height="340" fill="white"/>
</clipPath>
</defs>
</svg>
