<svg width="35" height="50" viewBox="0 0 35 50" fill="none" xmlns="http://www.w3.org/2000/svg">
<path d="M23.1904 22.5732L31.2715 11.3301C31.9697 10.3594 32.3496 9.20312 32.3496 8.0166V4.50488H34.6846V0H0V4.50488H2.33496V8.0166C2.33496 9.20312 2.71484 10.3594 3.41309 11.3301L11.4941 22.5732C11.7832 22.9775 11.9307 23.4385 11.9316 23.9072V26.0908C11.9307 26.5605 11.7832 27.0215 11.4941 27.4258L3.41309 38.6699C2.71484 39.6406 2.33496 40.7969 2.33496 41.9824V45.4951H0V50H34.6846V45.4951H32.3496V41.9824C32.3496 40.7969 31.9697 39.6406 31.2715 38.6699L23.1904 27.4258C22.9014 27.0215 22.7529 26.5605 22.7529 26.0908V23.9072C22.7529 23.4385 22.9014 22.9775 23.1904 22.5732ZM30.0967 45.0449H4.58789V41.9824C4.58789 41.2764 4.81152 40.584 5.24219 39.9844L13.3232 28.7402C13.8809 27.9658 14.1846 27.04 14.1846 26.0918V23.9082C14.1846 22.96 13.8809 22.0332 13.3232 21.2598L5.24316 10.0156C4.81152 9.41504 4.58789 8.72363 4.58789 8.0166V4.95508H30.0977V8.0166C30.0967 8.72363 29.874 9.41504 29.4424 10.0156L21.3613 21.2588C20.8047 22.0322 20.501 22.959 20.501 23.9072V26.0908C20.501 27.0391 20.8047 27.9648 21.3613 28.7393L29.4434 39.9834C29.874 40.583 30.0967 41.2754 30.0977 41.9814L30.0967 45.0449Z" fill="#75AC6C"/>
<path d="M15.415 22.7471H19.2695C19.4326 21.9355 19.7666 21.1611 20.2637 20.4707L26.0732 12.3877H8.61133L14.4209 20.4707C14.918 21.1611 15.251 21.9355 15.415 22.7471Z" fill="#75AC6C"/>
<path d="M16.4395 37.2646L10.0117 43.6934H24.6729L18.2451 37.2646C17.7461 36.7666 16.9385 36.7666 16.4395 37.2646Z" fill="#75AC6C"/>
<path d="M17.3066 24.2178C16.751 24.2178 16.3008 24.668 16.3008 25.2246C16.3008 25.7803 16.751 26.2305 17.3066 26.2305C17.8623 26.2305 18.3135 25.7803 18.3135 25.2246C18.3135 24.6689 17.8613 24.2178 17.3066 24.2178Z" fill="#75AC6C"/>
<path d="M17.3066 28.2725C16.751 28.2725 16.3008 28.7227 16.3008 29.2783C16.3008 29.835 16.751 30.2852 17.3066 30.2852C17.8623 30.2852 18.3135 29.835 18.3135 29.2783C18.3135 28.7236 17.8613 28.2725 17.3066 28.2725Z" fill="#75AC6C"/>
<path d="M17.3066 32.4453C16.751 32.4453 16.3008 32.8955 16.3008 33.4521C16.3008 34.0078 16.751 34.459 17.3066 34.459C17.8623 34.459 18.3135 34.0078 18.3135 33.4521C18.3135 32.8965 17.8613 32.4453 17.3066 32.4453Z" fill="#75AC6C"/>
</svg>
