<?xml version="1.0" encoding="utf-8"?>
<!-- Generator: Adobe Illustrator 24.3.0, SVG Export Plug-In . SVG Version: 6.00 Build 0)  -->
<svg version="1.1" id="瀧_1" xmlns="http://www.w3.org/2000/svg" xmlns:xlink="http://www.w3.org/1999/xlink" x="0px" y="0px"
	 viewBox="0 0 480 480" style="enable-background:new 0 0 480 480;" xml:space="preserve">
<style type="text/css">
	.st0{fill:#F2EBDA;}
	.st1{fill:#75AC6C;}
	.st2{fill:#998675;}
	.st3{fill:#FFFFFF;}
	.st4{fill:#E0D4B6;}
	.st5{fill:#55606E;}
	.st6{opacity:0.8;fill:url(#SVGID_1_);enable-background:new    ;}
	.st7{fill:#D2D2D2;}
	.st8{fill:#5C8755;}
</style>
<path class="st0" d="M-3485.2,745h-237.2c-15.1,0-27.4,12.3-27.4,27.4v237.2c0,15.1,12.3,27.4,27.4,27.4h237.2
	c15.1,0,27.4-12.3,27.4-27.4V772.4C-3457.8,757.3-3470,745-3485.2,745z M-3496.2,765c6,0,10.8,4.8,10.8,10.8c0,6-4.9,10.8-10.8,10.8
	s-10.8-4.8-10.8-10.8S-3502.2,765-3496.2,765z M-3536.4,765c6,0,10.8,4.8,10.8,10.8c0,6-4.9,10.8-10.8,10.8s-10.8-4.8-10.8-10.8
	S-3542.4,765-3536.4,765z M-3576.6,765c6,0,10.8,4.8,10.8,10.8c0,6-4.9,10.8-10.8,10.8s-10.8-4.8-10.8-10.8S-3582.6,765-3576.6,765z
	"/>
<path class="st1" d="M-3485.2,745h-237.2c-15.1,0-27.4,12.3-27.4,27.4v31.9h13.1h265.8h13.1v-31.9
	C-3457.8,757.3-3470,745-3485.2,745z"/>
<path class="st1" d="M-3596.2,912.8l17.9,19.4c0.7,0.8,2,0.8,2.7-0.1l31.3-38.5c0.6-0.8,0.5-2-0.3-2.6l-7.7-5.7
	c-0.8-0.6-1.9-0.4-2.5,0.3l-20.5,26.5c-0.7,0.9-1.9,0.9-2.7,0.2l-8.9-8.8c-0.7-0.7-1.9-0.7-2.6,0l-6.7,6.8
	C-3596.9,911-3596.9,912.1-3596.2,912.8z"/>
<g>
	<g>
		<path class="st2" d="M-3534.8,772.4c-6.6,0-12-5-12-11.2v-34.9c0-6.2,5.4-11.2,12-11.2c6.6,0,11.9,5,11.9,11.2v34.9
			C-3522.8,767.4-3528.2,772.4-3534.8,772.4z"/>
		<path class="st3" d="M-3534.8,718c5,0,9.1,3.7,9.1,8.3v34.9c0,4.6-4.1,8.3-9.1,8.3s-9.1-3.7-9.1-8.3v-34.9
			C-3543.9,721.7-3539.8,718-3534.8,718 M-3534.8,712.3c-8.2,0-14.8,6.3-14.8,14v34.9c0,7.7,6.6,14,14.8,14c8.2,0,14.8-6.3,14.8-14
			v-34.9C-3520,718.6-3526.6,712.3-3534.8,712.3L-3534.8,712.3z"/>
	</g>
	<g>
		<path class="st2" d="M-3672.8,772.4c-6.6,0-12-5-12-11.2v-34.9c0-6.2,5.4-11.2,12-11.2c6.6,0,11.9,5,11.9,11.2v34.9
			C-3660.8,767.4-3666.2,772.4-3672.8,772.4z"/>
		<path class="st3" d="M-3672.8,718c5,0,9.1,3.7,9.1,8.3v34.9c0,4.6-4.1,8.3-9.1,8.3s-9.1-3.7-9.1-8.3v-34.9
			C-3681.9,721.7-3677.8,718-3672.8,718 M-3672.8,712.3c-8.2,0-14.8,6.3-14.8,14v34.9c0,7.7,6.6,14,14.8,14c8.2,0,14.8-6.3,14.8-14
			v-34.9C-3658,718.6-3664.6,712.3-3672.8,712.3L-3672.8,712.3z"/>
	</g>
</g>
<g>
	<rect x="-3708.9" y="840" class="st4" width="31.9" height="31.9"/>
</g>
<g>
	<rect x="-3649.2" y="840" class="st4" width="31.9" height="31.9"/>
</g>
<g>
	<rect x="-3589.6" y="840" class="st4" width="31.9" height="31.9"/>
</g>
<g>
	<rect x="-3529.9" y="840" class="st4" width="31.9" height="31.9"/>
</g>
<g>
	<rect x="-3708.9" y="899" class="st4" width="31.9" height="31.9"/>
</g>
<g>
	<rect x="-3649.2" y="899" class="st4" width="31.9" height="31.9"/>
</g>
<g>
	<rect x="-3529.9" y="899" class="st4" width="31.9" height="31.9"/>
</g>
<g>
	<rect x="-3708.9" y="958" class="st4" width="31.9" height="31.9"/>
</g>
<g>
	<rect x="-3649.2" y="958" class="st4" width="31.9" height="31.9"/>
</g>
<g>
	<rect x="-3589.6" y="958" class="st4" width="31.9" height="31.9"/>
</g>
<g>
	<rect x="-3529.9" y="958" class="st4" width="31.9" height="31.9"/>
</g>
<g>
	<path class="st5" d="M371,69.7l-261.3-0.1c-1.1,0-2,0.9-2,2L107.6,384c0,1.1,0.9,2,2,2l261.3,0c1.1,0,2-0.9,2-2L373,71.7
		C373,70.6,372.1,69.7,371,69.7z"/>
	<polygon class="st3" points="125.1,368.6 316.9,368.6 355.5,330 355.5,87.2 125.1,87.1 	"/>
	
		<linearGradient id="SVGID_1_" gradientUnits="userSpaceOnUse" x1="301.5475" y1="412.056" x2="301.5475" y2="385.5874" gradientTransform="matrix(1 2.000000e-04 2.000000e-04 -1 -0.2226 480.6046)">
		<stop  offset="0" style="stop-color:#71756F"/>
		<stop  offset="3.170000e-02" style="stop-color:#828680"/>
		<stop  offset="0.1035" style="stop-color:#A3A6A2"/>
		<stop  offset="0.1833" style="stop-color:#C0C2BF"/>
		<stop  offset="0.2716" style="stop-color:#D7D8D7"/>
		<stop  offset="0.3722" style="stop-color:#E9EAE9"/>
		<stop  offset="0.4921" style="stop-color:#F6F6F6"/>
		<stop  offset="0.6505" style="stop-color:#FDFDFD"/>
		<stop  offset="1" style="stop-color:#FFFFFF"/>
	</linearGradient>
	<rect x="298.5" y="70.7" class="st6" width="5.9" height="23.7"/>
	<path class="st7" d="M283.5,50.9H256c1.5-2.9,2.3-6.4,1.9-10c-0.8-8.5-7.8-15.3-16.4-15.8c-10.3-0.7-18.9,7.5-18.9,17.6
		c0,3,0.7,5.7,2,8.2h-27.5c-8.6,0-15.5,6.9-15.5,15.5v27.3c0,1.4,1.1,2.5,2.5,2.5l112.3,0c1.4,0,2.5-1.1,2.5-2.5V66.4
		C299,57.8,292,50.9,283.5,50.9z M247.9,43.7c-0.4,3.4-3.2,6.1-6.6,6.5c-5,0.6-9.2-3.6-8.5-8.5c0.4-3.4,3.2-6.1,6.6-6.5
		C244.3,34.5,248.5,38.7,247.9,43.7z"/>
	<g>
		<g>
			<g>
				<rect x="144.5" y="126.8" class="st7" width="191.7" height="9.2"/>
				<rect x="144.5" y="145.1" class="st7" width="157.9" height="9.2"/>
				<rect x="144.2" y="163.5" class="st7" width="176.8" height="9.2"/>
				<rect x="144.2" y="181.8" class="st7" width="121.9" height="9.2"/>
			</g>
		</g>
	</g>
	<g>
		<g>
			<g>
				<rect x="144.5" y="221.6" class="st7" width="191.7" height="9.2"/>
				<rect x="144.5" y="239.9" class="st7" width="157.9" height="9.2"/>
				<rect x="144.2" y="258.3" class="st7" width="176.8" height="9.2"/>
				<rect x="144.2" y="276.7" class="st7" width="121.9" height="9.2"/>
			</g>
		</g>
	</g>
</g>
<path class="st0" d="M366.3,346.2c0.3-0.3,40.8-40.8,40.8-40.8l-32.5-32.5l-96.2,96.2l-13.7,45c-0.2,0.7,0.4,1.4,1.1,1.1l44.9-13.7
	L366.3,346.2z"/>
<g>
	<path class="st8" d="M366.3,346.2c0.3-0.3,40.8-40.8,40.8-40.8l-32.5-32.5l-96.2,96.2l32.4,32.5L366.3,346.2z"/>
	<path class="st1" d="M416.1,293c3.9-3.9,3.9-10.3,0-14.2l-14.6-14.6c-3.9-3.9-10.3-3.9-14.2,0l-7.3,7.3c0,0,0,0,0,0l28.8,28.8
		c0,0,0,0,0,0L416.1,293z"/>
	<path class="st1" d="M398.3,296.5l-23.6-23.6l-96.2,96.2l23.6,23.5L398.3,296.5z"/>
	<path class="st5" d="M269.3,399.2l-4.5,14.9c-0.2,0.7,0.4,1.4,1.1,1.1l14.3-4.4L269.3,399.2z"/>
	<path class="st8" d="M416.1,293c3.9-3.9,3.9-10.3,0-14.2l-14.8,14c0,0,7.5,7.5,7.5,7.5c0,0,0,0,0,0L416.1,293z"/>
</g>
</svg>
