<?xml version="1.0" encoding="utf-8"?>
<!-- Generator: Adobe Illustrator 24.3.0, SVG Export Plug-In . SVG Version: 6.00 Build 0)  -->
<svg version="1.1" id="瀧_1" xmlns="http://www.w3.org/2000/svg" xmlns:xlink="http://www.w3.org/1999/xlink" x="0px" y="0px"
	 viewBox="0 0 480 480" style="enable-background:new 0 0 480 480;" xml:space="preserve">
<style type="text/css">
	.st0{fill:#3E404F;}
	.st1{opacity:0.4;fill:#333333;}
	.st2{fill:#FFFFFF;}
	.st3{fill:#E6E6E6;}
	.st4{filter:url(#Adobe_OpacityMaskFilter);}
	.st5{fill:url(#SVGID_2_);}
	.st6{opacity:0.5;mask:url(#SVGID_1_);fill:url(#SVGID_3_);}
	.st7{filter:url(#Adobe_OpacityMaskFilter_1_);}
	.st8{fill:url(#SVGID_5_);}
	.st9{opacity:0.8;mask:url(#SVGID_4_);fill:url(#SVGID_6_);}
	.st10{fill:url(#SVGID_7_);}
	.st11{fill:#F2F2F2;}
	.st12{fill:url(#SVGID_8_);}
	.st13{fill:#CCCCCC;}
	.st14{fill:#98DAE6;}
	.st15{fill:#80CFDE;}
	.st16{fill:#75AC6C;}
	.st17{fill:#5C8755;}
	.st18{fill:#DEDEDE;}
	.st19{fill:#7D7260;}
	.st20{fill:#D1AF79;}
	.st21{fill:#F2EBDA;}
	.st22{fill:#D6D0C1;}
	.st23{fill:#706655;}
	.st24{fill:#79C3D1;}
</style>
<path class="st0" d="M3868.57-939.65l-912.15-0.16c-3.93,0-7.12,3.19-7.13,7.12l-0.21,1177.54c0,3.93,3.19,7.12,7.12,7.13
	l912.15,0.16c3.93,0,7.12-3.19,7.13-7.12l0.21-1177.54C3875.7-936.46,3872.51-939.65,3868.57-939.65z"/>
<polygon class="st1" points="3022.31,203.17 3692.06,203.29 3826.7,68.69 3826.87,-866.43 3022.51,-866.58 "/>
<polygon class="st2" points="3010.11,190.96 3679.85,191.08 3814.5,56.49 3814.67,-878.64 3010.3,-878.79 "/>
<polygon class="st3" points="3679.85,191.08 3814.5,56.49 3679.88,56.46 "/>
<defs>
	<filter id="Adobe_OpacityMaskFilter" filterUnits="userSpaceOnUse" x="3213.08" y="-851.03" width="395.7" height="31.48">
		<feColorMatrix  type="matrix" values="1 0 0 0 0  0 1 0 0 0  0 0 1 0 0  0 0 0 1 0"/>
	</filter>
</defs>
<mask maskUnits="userSpaceOnUse" x="3213.08" y="-851.03" width="395.7" height="31.48" id="SVGID_1_">
	<g class="st4">
		
			<radialGradient id="SVGID_2_" cx="-1786.111" cy="3546.0044" r="106.0948" gradientTransform="matrix(-1.8391 -4.000000e-04 1.000000e-04 -0.6088 131.8836 1308.8759)" gradientUnits="userSpaceOnUse">
			<stop  offset="0" style="stop-color:#FFFFFF"/>
			<stop  offset="0.1614" style="stop-color:#FCFCFC"/>
			<stop  offset="0.2917" style="stop-color:#F2F2F2"/>
			<stop  offset="0.4112" style="stop-color:#E1E1E1"/>
			<stop  offset="0.5243" style="stop-color:#C9C9C9"/>
			<stop  offset="0.6328" style="stop-color:#AAAAAA"/>
			<stop  offset="0.738" style="stop-color:#848484"/>
			<stop  offset="0.8405" style="stop-color:#575757"/>
			<stop  offset="0.9382" style="stop-color:#242424"/>
			<stop  offset="1" style="stop-color:#000000"/>
		</radialGradient>
		<rect x="3217.86" y="-857.8" class="st5" width="395.69" height="20.33"/>
	</g>
</mask>
<linearGradient id="SVGID_3_" gradientUnits="userSpaceOnUse" x1="3411.0088" y1="-854.6909" x2="3411.0088" y2="-819.5936" gradientTransform="matrix(1 2.000000e-04 -2.000000e-04 1 -0.2435 0.2493)">
	<stop  offset="0" style="stop-color:#71756F"/>
	<stop  offset="0.0317" style="stop-color:#828680"/>
	<stop  offset="0.1035" style="stop-color:#A3A6A2"/>
	<stop  offset="0.1833" style="stop-color:#C0C2BF"/>
	<stop  offset="0.2716" style="stop-color:#D7D8D7"/>
	<stop  offset="0.3722" style="stop-color:#E9EAE9"/>
	<stop  offset="0.4921" style="stop-color:#F6F6F6"/>
	<stop  offset="0.6505" style="stop-color:#FDFDFD"/>
	<stop  offset="1" style="stop-color:#FFFFFF"/>
</linearGradient>
<rect x="3213.09" y="-850.98" class="st6" width="395.69" height="31.39"/>
<defs>
	<filter id="Adobe_OpacityMaskFilter_1_" filterUnits="userSpaceOnUse" x="3615.39" y="-936.05" width="20.52" height="82.68">
		<feColorMatrix  type="matrix" values="1 0 0 0 0  0 1 0 0 0  0 0 1 0 0  0 0 0 1 0"/>
	</filter>
</defs>
<mask maskUnits="userSpaceOnUse" x="3615.39" y="-936.05" width="20.52" height="82.68" id="SVGID_4_">
	<g class="st7">
		
			<radialGradient id="SVGID_5_" cx="192.4054" cy="1107.9797" r="22.1664" gradientTransform="matrix(-4.000000e-04 1.8391 -1.903 -3.000000e-04 5725.1104 -1249.5212)" gradientUnits="userSpaceOnUse">
			<stop  offset="0" style="stop-color:#FFFFFF"/>
			<stop  offset="0.1614" style="stop-color:#FCFCFC"/>
			<stop  offset="0.2917" style="stop-color:#F2F2F2"/>
			<stop  offset="0.4112" style="stop-color:#E1E1E1"/>
			<stop  offset="0.5243" style="stop-color:#C9C9C9"/>
			<stop  offset="0.6328" style="stop-color:#AAAAAA"/>
			<stop  offset="0.738" style="stop-color:#848484"/>
			<stop  offset="0.8405" style="stop-color:#575757"/>
			<stop  offset="0.9382" style="stop-color:#242424"/>
			<stop  offset="1" style="stop-color:#000000"/>
		</radialGradient>
		<rect x="3610.94" y="-937.05" class="st8" width="13.28" height="82.67"/>
	</g>
</mask>
<linearGradient id="SVGID_6_" gradientUnits="userSpaceOnUse" x1="3625.7102" y1="-944.321" x2="3625.7102" y2="-851.9254" gradientTransform="matrix(1 2.000000e-04 -2.000000e-04 1 -0.2435 0.2493)">
	<stop  offset="0" style="stop-color:#71756F"/>
	<stop  offset="0.0317" style="stop-color:#828680"/>
	<stop  offset="0.1035" style="stop-color:#A3A6A2"/>
	<stop  offset="0.1833" style="stop-color:#C0C2BF"/>
	<stop  offset="0.2716" style="stop-color:#D7D8D7"/>
	<stop  offset="0.3722" style="stop-color:#E9EAE9"/>
	<stop  offset="0.4921" style="stop-color:#F6F6F6"/>
	<stop  offset="0.6505" style="stop-color:#FDFDFD"/>
	<stop  offset="1" style="stop-color:#FFFFFF"/>
</linearGradient>
<rect x="3615.4" y="-936.05" class="st9" width="20.5" height="82.67"/>
<linearGradient id="SVGID_7_" gradientUnits="userSpaceOnUse" x1="3337.1968" y1="-1096.6106" x2="3479.2112" y2="-740.4824">
	<stop  offset="0" style="stop-color:#E6E6E6"/>
	<stop  offset="1" style="stop-color:#B3B3B3"/>
</linearGradient>
<path class="st10" d="M3563.07-1005.28l-95.9-0.02c5.38-10.26,7.98-22.21,6.72-34.86c-2.94-29.68-27.35-53.27-57.1-55.28
	c-36-2.43-65.95,26.05-65.96,61.53c0,10.32,2.54,20.04,7.02,28.59l-95.9-0.02c-29.91-0.01-54.16,24.24-54.17,54.15l-0.02,95.47
	c0,4.83,3.91,8.74,8.74,8.74l391.96,0.07c4.83,0,8.74-3.91,8.74-8.74l0.02-95.47C3617.23-981.02,3592.98-1005.28,3563.07-1005.28z
	 M3438.85-1030.44c-1.49,11.84-11.05,21.39-22.89,22.88c-17.37,2.19-31.98-12.42-29.79-29.79c1.49-11.84,11.05-21.39,22.89-22.88
	C3426.44-1062.42,3441.04-1047.81,3438.85-1030.44z"/>
<g>
	<g>
		<g>
			<rect x="3078.08" y="-740.37" class="st11" width="668.99" height="32.1"/>
			<rect x="3078.07" y="-676.31" class="st11" width="551.38" height="32.1"/>
			<rect x="3076.99" y="-612.22" class="st11" width="617.03" height="32.11"/>
			<rect x="3076.98" y="-548.13" class="st11" width="425.62" height="32.11"/>
		</g>
	</g>
</g>
<g>
	<g>
		<g>
			<rect x="3078.08" y="-409.37" class="st11" width="668.99" height="32.1"/>
			<rect x="3078.07" y="-345.31" class="st11" width="551.38" height="32.1"/>
			<rect x="3076.99" y="-281.22" class="st11" width="617.03" height="32.11"/>
			<rect x="3076.98" y="-217.13" class="st11" width="425.62" height="32.11"/>
		</g>
	</g>
</g>
<g>
	<g>
		<linearGradient id="SVGID_8_" gradientUnits="userSpaceOnUse" x1="3608.3032" y1="-151.8864" x2="3830.8271" y2="309.5233">
			<stop  offset="0" style="stop-color:#A7D63F"/>
			<stop  offset="0.0738" style="stop-color:#9FD340"/>
			<stop  offset="1" style="stop-color:#39B54A"/>
		</linearGradient>
		<circle class="st12" cx="3716.22" cy="71.88" r="249.97"/>
	</g>
	<path class="st2" d="M3574.51,94.73l103.66,112.63c4.31,4.69,11.78,4.45,15.79-0.49l181.58-223.8c3.75-4.62,2.89-11.43-1.89-14.97
		l-44.57-33.01c-4.57-3.38-11-2.49-14.47,2L3695.31,91.17c-3.85,4.97-11.19,5.44-15.64,0.99l-51.41-51.41
		c-4.11-4.11-10.78-4.07-14.85,0.08l-38.69,39.52C3570.84,84.33,3570.75,90.65,3574.51,94.73z"/>
</g>
<g>
	<rect x="243" y="363" class="st13" width="121" height="7"/>
	<rect x="187.53" y="51" class="st11" width="224" height="312"/>
	<rect x="243" y="271" class="st14" width="111" height="92"/>
	<g>
		<g>
			<rect x="222.43" y="88.72" class="st14" width="35.2" height="24.42"/>
			<polygon class="st15" points="222.43,88.72 252.53,88.72 222.52,102 			"/>
		</g>
		<g>
			<rect x="282.43" y="88.72" class="st14" width="35.2" height="24.42"/>
			<polygon class="st15" points="282.43,88.72 312.53,88.72 282.52,102 			"/>
		</g>
		<g>
			<rect x="341.43" y="88.72" class="st14" width="35.2" height="24.42"/>
			<polygon class="st15" points="341.43,88.72 371.53,88.72 341.52,102 			"/>
		</g>
	</g>
	<g>
		<g>
			<rect x="222.43" y="132.72" class="st14" width="35.2" height="24.42"/>
			<polygon class="st15" points="222.43,132.72 252.53,132.72 222.52,146 			"/>
		</g>
		<g>
			<rect x="282.43" y="132.72" class="st14" width="35.2" height="24.42"/>
			<polygon class="st15" points="282.43,132.72 312.53,132.72 282.52,146 			"/>
		</g>
		<g>
			<rect x="341.43" y="132.72" class="st14" width="35.2" height="24.42"/>
			<polygon class="st15" points="341.43,132.72 371.53,132.72 341.52,146 			"/>
		</g>
	</g>
	<g>
		<g>
			<rect x="222.43" y="187.72" class="st14" width="35.2" height="24.42"/>
			<polygon class="st15" points="222.43,187.72 252.53,187.72 222.52,200 			"/>
		</g>
		<g>
			<rect x="282.43" y="187.72" class="st14" width="35.2" height="24.42"/>
			<polygon class="st15" points="282.43,187.72 312.53,187.72 282.52,200 			"/>
		</g>
		<g>
			<rect x="341.43" y="187.72" class="st14" width="35.2" height="24.42"/>
			<polygon class="st15" points="341.43,187.72 371.53,187.72 341.52,200 			"/>
			<polygon class="st15" points="278,271 354,271 278.24,302.01 			"/>
		</g>
	</g>
	<g>
		<circle class="st16" cx="353.5" cy="362.5" r="15.5"/>
		<circle class="st16" cx="410.94" cy="362.5" r="15.5"/>
		<circle class="st17" cx="382.68" cy="362.5" r="15.5"/>
	</g>
	<rect x="243" y="259" class="st18" width="121" height="7"/>
	<g>
		<rect x="184.3" y="278.75" class="st19" width="68.24" height="99.85"/>
		<polygon class="st20" points="189.33,172 60.08,301.24 80.27,301.32 115.32,266.27 164.67,216.92 189.33,192.26 213.99,216.92 
			263.31,266.24 298.39,301.32 318.57,301.24 		"/>
		<polygon class="st21" points="90.32,291.29 90.32,378.6 200.23,378.6 200.23,309.41 240.25,309.41 240.25,378.6 288.34,378.6 
			288.34,291.26 189.34,192.26 		"/>
		<polygon class="st22" points="90.19,291.25 90.19,314.74 202.75,205.67 189.33,192.11 		"/>
		<rect x="233.15" y="341.53" class="st20" width="2.16" height="7.18"/>
		<polygon class="st23" points="200.1,309.21 240.33,309.21 200.23,341.53 		"/>
		<g>
			<rect x="130.42" y="309.21" class="st14" width="35.2" height="24.42"/>
			<polygon class="st24" points="130.42,309.21 160.52,309.21 130.52,323 			"/>
		</g>
	</g>
	<rect x="58.5" y="321" class="st20" width="14" height="58"/>
	<polygon class="st16" points="65.5,247 40.5,343 90.5,343 	"/>
</g>
</svg>
