<?xml version="1.0" encoding="utf-8"?>
<!-- Generator: Adobe Illustrator 24.3.0, SVG Export Plug-In . SVG Version: 6.00 Build 0)  -->
<svg version="1.1" id="瀧_1" xmlns="http://www.w3.org/2000/svg" xmlns:xlink="http://www.w3.org/1999/xlink" x="0px" y="0px"
	 viewBox="0 0 480 480" style="enable-background:new 0 0 480 480;" xml:space="preserve">
<style type="text/css">
	.st0{fill:#3E404F;}
	.st1{opacity:0.4;fill:#333333;enable-background:new    ;}
	.st2{fill:#FFFFFF;}
	.st3{fill:#E6E6E6;}
	.st4{opacity:0.5;fill:url(#SVGID_1_);enable-background:new    ;}
	.st5{opacity:0.8;fill:url(#SVGID_2_);enable-background:new    ;}
	.st6{fill:url(#SVGID_3_);}
	.st7{fill:#F2F2F2;}
	.st8{fill:url(#SVGID_4_);}
	.st9{fill:#F2EBDA;}
	.st10{fill:#75AC6C;}
	.st11{fill:#998675;}
	.st12{fill:#E0D4B6;}
</style>
<path class="st0" d="M3868.6-288.6l-912.2-0.2c-3.9,0-7.1,3.2-7.1,7.1l-0.2,1177.5c0,3.9,3.2,7.1,7.1,7.1l912.1,0.2
	c3.9,0,7.1-3.2,7.1-7.1l0.2-1177.5C3875.7-285.5,3872.5-288.6,3868.6-288.6z"/>
<polygon class="st1" points="3022.3,854.2 3692.1,854.3 3826.7,719.7 3826.9,-215.4 3022.5,-215.6 "/>
<polygon class="st2" points="3010.1,842 3679.8,842.1 3814.5,707.5 3814.7,-227.6 3010.3,-227.8 "/>
<polygon class="st3" points="3679.8,842.1 3814.5,707.5 3679.9,707.5 "/>
<linearGradient id="SVGID_1_" gradientUnits="userSpaceOnUse" x1="3411.0239" y1="686.047" x2="3411.0239" y2="650.9496" gradientTransform="matrix(1 2.000000e-04 2.000000e-04 -1 -0.2228 482.6054)">
	<stop  offset="0" style="stop-color:#71756F"/>
	<stop  offset="3.170000e-02" style="stop-color:#828680"/>
	<stop  offset="0.1035" style="stop-color:#A3A6A2"/>
	<stop  offset="0.1833" style="stop-color:#C0C2BF"/>
	<stop  offset="0.2716" style="stop-color:#D7D8D7"/>
	<stop  offset="0.3722" style="stop-color:#E9EAE9"/>
	<stop  offset="0.4921" style="stop-color:#F6F6F6"/>
	<stop  offset="0.6505" style="stop-color:#FDFDFD"/>
	<stop  offset="1" style="stop-color:#FFFFFF"/>
</linearGradient>
<rect x="3213.1" y="-200" class="st4" width="395.7" height="31.4"/>
<linearGradient id="SVGID_2_" gradientUnits="userSpaceOnUse" x1="3625.7268" y1="775.6771" x2="3625.7268" y2="683.2815" gradientTransform="matrix(1 2.000000e-04 2.000000e-04 -1 -0.2228 482.6054)">
	<stop  offset="0" style="stop-color:#71756F"/>
	<stop  offset="3.170000e-02" style="stop-color:#828680"/>
	<stop  offset="0.1035" style="stop-color:#A3A6A2"/>
	<stop  offset="0.1833" style="stop-color:#C0C2BF"/>
	<stop  offset="0.2716" style="stop-color:#D7D8D7"/>
	<stop  offset="0.3722" style="stop-color:#E9EAE9"/>
	<stop  offset="0.4921" style="stop-color:#F6F6F6"/>
	<stop  offset="0.6505" style="stop-color:#FDFDFD"/>
	<stop  offset="1" style="stop-color:#FFFFFF"/>
</linearGradient>
<rect x="3615.4" y="-285" class="st5" width="20.5" height="82.7"/>
<linearGradient id="SVGID_3_" gradientUnits="userSpaceOnUse" x1="3337.1973" y1="927.8944" x2="3479.2117" y2="571.7661" gradientTransform="matrix(1 0 0 -1 0 482.2835)">
	<stop  offset="0" style="stop-color:#E6E6E6"/>
	<stop  offset="1" style="stop-color:#B3B3B3"/>
</linearGradient>
<path class="st6" d="M3563.1-354.3l-95.9,0c5.4-10.3,8-22.2,6.7-34.9c-2.9-29.7-27.4-53.3-57.1-55.3c-36-2.4-65.9,26-66,61.5
	c0,10.3,2.5,20,7,28.6l-95.9,0c-29.9,0-54.2,24.2-54.2,54.1l0,95.5c0,4.8,3.9,8.7,8.7,8.7l392,0.1c4.8,0,8.7-3.9,8.7-8.7l0-95.5
	C3617.2-330,3593-354.3,3563.1-354.3z M3438.8-379.4c-1.5,11.8-11.1,21.4-22.9,22.9c-17.4,2.2-32-12.4-29.8-29.8
	c1.5-11.8,11.1-21.4,22.9-22.9C3426.4-411.4,3441-396.8,3438.8-379.4z"/>
<g>
	<g>
		<g>
			<rect x="3078.1" y="-89.4" class="st7" width="669" height="32.1"/>
			<rect x="3078.1" y="-25.3" class="st7" width="551.4" height="32.1"/>
			<rect x="3077" y="38.8" class="st7" width="617" height="32.1"/>
			<rect x="3077" y="102.9" class="st7" width="425.6" height="32.1"/>
		</g>
	</g>
</g>
<g>
	<g>
		<g>
			<rect x="3078.1" y="241.6" class="st7" width="669" height="32.1"/>
			<rect x="3078.1" y="305.7" class="st7" width="551.4" height="32.1"/>
			<rect x="3077" y="369.8" class="st7" width="617" height="32.1"/>
			<rect x="3077" y="433.9" class="st7" width="425.6" height="32.1"/>
		</g>
	</g>
</g>
<g>
	<g>
		
			<linearGradient id="SVGID_4_" gradientUnits="userSpaceOnUse" x1="3608.3035" y1="-16.8297" x2="3830.8274" y2="-478.2394" gradientTransform="matrix(1 0 0 -1 0 482.2835)">
			<stop  offset="0" style="stop-color:#A7D63F"/>
			<stop  offset="7.380000e-02" style="stop-color:#9FD340"/>
			<stop  offset="1" style="stop-color:#39B54A"/>
		</linearGradient>
		<circle class="st8" cx="3716.2" cy="722.9" r="250"/>
	</g>
	<path class="st2" d="M3574.5,745.7l103.7,112.6c4.3,4.7,11.8,4.5,15.8-0.5l181.6-223.8c3.8-4.6,2.9-11.4-1.9-15l-44.6-33
		c-4.6-3.4-11-2.5-14.5,2l-119.3,154.1c-3.9,5-11.2,5.4-15.6,1l-51.4-51.4c-4.1-4.1-10.8-4.1-14.9,0.1l-38.7,39.5
		C3570.8,735.3,3570.7,741.7,3574.5,745.7z"/>
</g>
<path class="st9" d="M358.6,110.6H121.4c-15.1,0-27.4,12.3-27.4,27.4v237.3c0,15.1,12.3,27.4,27.4,27.4h237.2
	c15.1,0,27.4-12.3,27.4-27.4V138C386,122.9,373.7,110.6,358.6,110.6z M347.6,130.6c6,0,10.8,4.9,10.8,10.8c0,6-4.9,10.8-10.8,10.8
	s-10.8-4.9-10.8-10.8S341.6,130.6,347.6,130.6z M307.4,130.6c6,0,10.8,4.9,10.8,10.8c0,6-4.9,10.8-10.8,10.8s-10.8-4.9-10.8-10.8
	S301.4,130.6,307.4,130.6z M267.2,130.6c6,0,10.8,4.9,10.8,10.8c0,6-4.9,10.8-10.8,10.8s-10.8-4.9-10.8-10.8
	S261.2,130.6,267.2,130.6z"/>
<path class="st10" d="M358.6,110.6H121.4c-15.1,0-27.4,12.3-27.4,27.4V170h13.1h265.8H386V138C386,122.9,373.7,110.6,358.6,110.6z"
	/>
<path class="st10" d="M247.5,278.5l17.8,19.4c0.7,0.8,2,0.8,2.7-0.1l31.3-38.5c0.6-0.8,0.5-2-0.3-2.6l-7.7-5.7
	c-0.8-0.6-1.9-0.4-2.5,0.3l-20.5,26.5c-0.7,0.9-1.9,0.9-2.7,0.2l-8.9-8.9c-0.7-0.7-1.9-0.7-2.6,0l-6.7,6.8
	C246.9,276.7,246.9,277.8,247.5,278.5z"/>
<g>
	<g>
		<path class="st11" d="M309,138c-6.6,0-12-5-12-11.2V91.9c0-6.1,5.4-11.2,12-11.2c6.6,0,12,5,12,11.2v34.9
			C321,133,315.6,138,309,138z"/>
		<path class="st2" d="M309,83.7c5,0,9.1,3.7,9.1,8.3v34.9c0,4.6-4.1,8.3-9.1,8.3c-5,0-9.1-3.7-9.1-8.3V91.9
			C299.9,87.4,304,83.7,309,83.7 M309,77.9c-8.2,0-14.8,6.3-14.8,14v34.9c0,7.7,6.6,14,14.8,14c8.2,0,14.8-6.3,14.8-14V91.9
			C323.8,84.2,317.2,77.9,309,77.9L309,77.9z"/>
	</g>
	<g>
		<path class="st11" d="M171,138c-6.6,0-12-5-12-11.2V91.9c0-6.1,5.4-11.2,12-11.2c6.6,0,12,5,12,11.2v34.9
			C183,133,177.6,138,171,138z"/>
		<path class="st2" d="M171,83.7c5,0,9.1,3.7,9.1,8.3v34.9c0,4.6-4.1,8.3-9.1,8.3c-5,0-9.1-3.7-9.1-8.3V91.9
			C161.9,87.4,166,83.7,171,83.7 M171,77.9c-8.2,0-14.8,6.3-14.8,14v34.9c0,3.8,1.6,7.4,4.5,10.1c2.8,2.5,6.4,3.9,10.3,3.9
			c8.2,0,14.8-6.3,14.8-14V91.9C185.8,84.2,179.2,77.9,171,77.9L171,77.9z"/>
	</g>
</g>
<g>
	<rect x="134.9" y="205.6" class="st12" width="31.9" height="31.9"/>
</g>
<g>
	<rect x="194.5" y="205.6" class="st12" width="31.9" height="31.9"/>
</g>
<g>
	<rect x="254.2" y="205.6" class="st12" width="31.9" height="31.9"/>
</g>
<g>
	<rect x="313.9" y="205.6" class="st12" width="31.9" height="31.9"/>
</g>
<g>
	<rect x="134.9" y="264.6" class="st12" width="31.9" height="31.9"/>
</g>
<g>
	<rect x="194.5" y="264.6" class="st12" width="31.9" height="31.9"/>
</g>
<g>
	<rect x="313.9" y="264.6" class="st12" width="31.9" height="31.9"/>
</g>
<g>
	<rect x="134.9" y="323.6" class="st12" width="31.9" height="31.9"/>
</g>
<g>
	<rect x="194.5" y="323.6" class="st12" width="31.9" height="31.9"/>
</g>
<g>
	<rect x="254.2" y="323.6" class="st12" width="31.9" height="31.9"/>
</g>
<g>
	<rect x="313.9" y="323.6" class="st12" width="31.9" height="31.9"/>
</g>
</svg>
