<svg width="399" height="363" viewBox="0 0 399 363" fill="none" xmlns="http://www.w3.org/2000/svg">
<path opacity="0.6" d="M199.58 362.08C309.358 362.08 398.35 360.294 398.35 358.09C398.35 355.886 309.358 354.1 199.58 354.1C89.8024 354.1 0.810059 355.886 0.810059 358.09C0.810059 360.294 89.8024 362.08 199.58 362.08Z" fill="#DEDEDE"/>
<path d="M340.69 0.939941H96.21V202.9H340.69V0.939941Z" fill="#C6F1FF"/>
<path d="M237.91 152.65C231.68 158.87 231.68 168.97 237.91 175.2C241.02 178.31 245.11 179.87 249.19 179.87C253.27 179.87 257.34 178.32 260.46 175.2L330.06 105.6V60.5099L237.91 152.65Z" fill="#D5F4FF"/>
<path d="M350.12 218.31H86.77C85.52 218.31 84.51 217.3 84.51 216.05V205.69C84.51 204.44 85.52 203.43 86.77 203.43H350.11C351.36 203.43 352.37 204.44 352.37 205.69V216.05C352.38 217.3 351.36 218.31 350.12 218.31Z" fill="#C99C79"/>
<path opacity="0.3" d="M352.38 207.68V205.55C352.38 204.38 351.43 203.42 350.25 203.42H86.64C85.47 203.42 84.51 204.37 84.51 205.55V207.68H352.38Z" fill="#C5E6FA"/>
<path d="M223.76 5.18994H213.13V194.4H223.76V5.18994Z" fill="#F5F0E4"/>
<path d="M330.06 11.5699V192.27H106.83V11.5699H330.06ZM340.69 0.939941H96.21V202.9H340.69V0.939941Z" fill="#F5F0E4"/>
<path d="M298.95 120.05C301.93 122.66 303.4 127.41 301.53 130.24C300.12 132.32 298.28 133.55 296.66 135.03C295.04 136.51 293.65 138.23 291.46 139.45C288.47 141.06 283.88 139.17 281.54 135.96C275.38 127.73 268.48 120.17 260.83 113.3C257.85 110.69 256.38 105.94 258.25 103.11C261.07 98.95 263.93 96.3399 268.32 93.8999C271.31 92.2999 275.9 94.18 278.24 97.39C284.4 105.62 291.31 113.17 298.95 120.05Z" fill="white"/>
<path d="M283.88 135.53C277.72 127.3 270.82 119.74 263.17 112.87C260.19 110.26 258.72 105.51 260.59 102.68C263.41 98.52 266.27 95.91 270.66 93.47C270.76 93.42 270.87 93.37 270.98 93.33C270.03 93.3 269.12 93.48 268.33 93.9C263.94 96.33 261.08 98.95 258.26 103.11C256.39 105.94 257.86 110.69 260.84 113.3C268.49 120.17 275.39 127.72 281.55 135.96C283.81 139.05 288.17 140.91 291.15 139.59C288.53 139.52 285.59 137.88 283.88 135.53Z" fill="#C5E6FA"/>
<path d="M48.74 322.27C47.9 323.48 46.84 324.41 46.11 324.5C44.31 324.74 31.46 322 20.1 308.26C9.03001 294.87 0.340014 281.91 0.430014 266.96C0.430014 266.64 0.760016 266.47 1.01002 266.58C1.07002 266.6 1.12001 266.65 1.17001 266.71C4.44001 271.08 12.41 283.34 14.43 286.35C21.13 296.34 45.44 317.01 49.42 317.12C50.59 318.44 49.88 320.62 48.74 322.27Z" fill="#51A596"/>
<path d="M47.7 320.04C48.68 320.57 49.7201 320.79 50.2501 320.54C51.6301 319.87 59.2001 312.33 63.4701 297.84C67.7101 283.59 71.4901 270.98 68.9901 258.93C68.9301 258.67 68.6601 258.62 68.4901 258.79C68.4501 258.83 68.4101 258.88 68.3901 258.94C66.4901 263.43 62.9001 275.79 62.1601 278.86C58.9901 288.8 47.9101 314.38 45.5301 316.46C45.1401 317.98 46.36 319.31 47.7 320.04Z" fill="#51A596"/>
<path d="M44.66 317.7C43.36 318.44 41.81 318.84 40.05 318.72C37.3 318.52 30.99 309.2 29.63 301.05C28.27 292.89 17.62 267.06 10.71 262.53C12.26 262.34 14.77 263.23 17.57 264.99C18.24 265.41 20.32 264.96 21.02 265.47C21.75 266.01 21.1 267.52 21.84 268.16C23.29 269.41 24.73 270.84 26.08 272.41C26.6 273.02 28.24 272.75 28.73 273.39C29.3 274.15 28.72 275.83 29.24 276.64C30.46 278.56 31.52 280.62 32.32 282.79C32.59 283.54 34.2 283.85 34.51 284.6C34.82 285.36 33.84 286.55 34.19 287.31C35.56 290.31 37.15 293.27 38.78 296C39.22 296.73 40.99 296.37 41.42 297.07C41.93 297.88 41.11 299.74 41.61 300.49C44.76 305.2 47.63 308.58 48.78 309.19C49.5 312.02 47.87 315.88 44.66 317.7Z" fill="#51A596"/>
<path d="M50.75 312.31C51 311.82 52.14 312 52.41 311.46C53.7 308.88 55.27 305.73 57.28 301.98C57.52 301.53 56.81 300.35 57.06 299.88C57.44 299.18 58.74 299.19 59.09 298.43C59.92 296.59 60.66 294.55 61.34 292.4C61.49 291.92 60.6399 291.11 60.7899 290.62C60.9299 290.15 62.07 289.99 62.2 289.52C62.71 287.7 63.1799 285.83 63.6199 283.95C63.7399 283.45 62.74 282.6 62.85 282.1C62.95 281.66 64.1599 281.57 64.2599 281.13C64.6899 279.18 65.09 277.24 65.47 275.35C65.57 274.83 64.65 274.05 64.75 273.53C64.85 273.04 65.96 272.82 66.05 272.34C66.39 270.54 66.7099 268.82 67.0099 267.22C67.0799 266.84 66.42 266.11 66.49 265.74C66.57 265.3 67.37 265.22 67.45 264.8C67.91 262.25 68.27 260.16 68.5 258.78C68.67 258.61 68.95 258.66 69 258.92C71.5 270.97 67.7099 283.58 63.4799 297.83C59.1999 312.32 51.6399 319.86 50.2599 320.53C49.7299 320.78 48.69 320.56 47.71 320.03C48.46 319.15 49.3999 317.44 50.7599 314.77C51.0199 314.23 50.43 312.94 50.75 312.31Z" fill="#3D7C70"/>
<path d="M51.35 315.66C51.35 315.66 49.92 317.15 47.65 317.94C46.49 318.34 45.11 318.56 43.59 318.31C39.1 317.55 35.87 305.1 35.37 298.43C34.94 292.68 37.31 277.58 37.97 273.52C38 273.33 38.27 273.33 38.31 273.52C38.47 274.45 38.71 275.85 38.92 276.96C39.04 277.57 39.15 278.1 39.23 278.41C39.56 279.67 41.24 278.91 41.32 280.09C41.41 281.27 39.98 281.35 39.73 282.02C39.48 282.69 40.15 285.96 40.49 286.88C40.82 287.81 42.84 287.22 43.01 288.14C43.18 289.07 41.83 289.23 41.61 289.94C41.39 290.64 42.2 293.18 42.59 294.44C42.98 295.7 44.82 295.28 44.82 296.16C44.82 297.04 43.69 296.92 43.6 297.92C43.56 298.38 43.79 299.23 44.1 300.12C44.46 301.17 44.93 302.29 45.2 302.95C45.7 304.16 47.09 303.58 47.21 304.21C47.34 304.84 46.08 304.97 46.67 306.1C47.02 306.76 48.58 309.96 49.81 312.47C50.66 314.23 51.35 315.66 51.35 315.66Z" fill="#51A596"/>
<path d="M52.93 308.63C50.92 313.03 48.75 315.43 45.71 314.59C45.24 314.46 44.65 314.18 44.06 313.7C43.28 313.08 42.52 312.13 42.11 310.78C41.37 308.4 41.72 304.76 44.96 299.51C48.41 293.92 52.36 283.72 53.51 278.82C53.57 278.59 53.73 278.47 53.92 278.44C54.16 278.4 54.43 278.53 54.5 278.82C56.2 287.08 54.75 304.65 52.93 308.63Z" fill="#51A596"/>
<path d="M52.9301 308.63C50.9201 313.03 48.7501 315.43 45.7101 314.59C45.2401 314.46 44.6501 314.18 44.0601 313.7C45.1301 311.45 47.6301 306.17 47.9001 305.51C48.2201 304.67 46.9801 303.8 47.3801 303.15C47.7901 302.5 49.7001 302.82 50.1901 301.54C50.6801 300.25 51.2501 298.08 51.4601 297.37C51.6701 296.66 50.5701 296.16 50.6601 295.59C50.7501 295.01 52.3901 295.05 52.7801 294.02C53.1601 292.99 53.7201 290.81 53.6601 289.68C53.5901 288.55 52.5201 288.42 52.6101 287.85C52.7001 287.28 53.6001 287.48 53.9701 286.26C54.2901 285.21 54.5701 280.75 53.9301 278.45C54.1701 278.41 54.4401 278.54 54.5101 278.83C56.2001 287.08 54.7501 304.65 52.9301 308.63Z" fill="#3D7C70"/>
<path d="M47.65 317.94C46.49 318.34 45.11 318.56 43.59 318.31C39.1 317.55 35.87 305.1 35.37 298.43C34.94 292.68 37.31 277.58 37.97 273.52C38 273.33 38.27 273.33 38.31 273.52C38.47 274.45 38.71 275.85 38.92 276.96C38.37 279.78 37.68 282.73 37.72 283.7C37.8 285.71 38.56 284.96 38.64 285.55C38.73 286.13 37.7 286.89 37.71 287.64C37.72 288.4 38.22 291.5 38.56 292.59C38.9 293.68 39.65 292.59 39.9 293.43C40.15 294.27 39.06 294.02 39.23 295.19C39.4 296.37 39.4 299.14 40.07 301.15C40.74 303.16 41 303.58 41.16 303.92C41.33 304.25 42.25 303.58 42.5 304.17C42.75 304.75 41.66 304.84 42 305.85C42.31 306.78 43.99 314.43 47.65 317.94Z" fill="#3D7C70"/>
<path d="M41.45 316.22C40.93 315.86 39.71 316.79 39.14 316.39C36.43 314.48 33.15 312.1 29.16 309.21C28.69 308.87 29 307.15 28.5 306.8C27.76 306.27 26.23 307.04 25.51 306.4C23.75 304.86 22.04 303.03 20.37 301.02C20 300.57 20.69 299.2 20.32 298.73C19.97 298.28 18.56 298.74 18.22 298.28C16.92 296.53 15.65 294.69 14.45 292.81C14.13 292.31 15.02 290.83 14.7 290.33C14.43 289.89 12.95 290.42 12.68 289.97C11.49 288 10.36 286 9.30001 284.05C9.01001 283.51 9.87 282.17 9.59 281.64C9.32 281.13 7.92001 281.43 7.66001 280.93C6.69001 279.05 5.80001 277.25 5.00001 275.56C4.81001 275.16 5.40001 274.02 5.22001 273.63C5.00001 273.16 4.01 273.44 3.81 273C2.57 270.29 1.61001 268.05 1.00001 266.58C0.750006 266.47 0.430004 266.64 0.420004 266.96C0.330004 281.91 9.02 294.87 20.09 308.26C31.45 322 44.29 324.74 46.1 324.5C46.82 324.4 47.88 323.47 48.73 322.27C47.44 321.86 45.5 320.73 42.65 318.81C42.07 318.42 42.12 316.68 41.45 316.22Z" fill="#3D7C70"/>
<path d="M44.66 317.7C43.36 318.44 41.81 318.84 40.05 318.72C37.3 318.52 30.99 309.2 29.63 301.05C28.27 292.89 17.62 267.06 10.71 262.53C12.13 263.15 16.04 266.19 19.86 270.61C20.46 271.3 22.02 271.06 22.6 271.82C23.17 272.56 22.75 274.28 23.29 275.07C24.45 276.78 25.52 278.61 26.39 280.52C26.9 281.64 28.31 281.84 28.67 283C29.06 284.28 28.13 285.36 28.35 286.1C28.94 288.12 29.55 290.31 30.22 292.57C30.46 293.39 32.05 293.41 32.31 294.24C32.53 294.95 31.42 296.47 31.65 297.19C32.44 299.59 33.31 301.99 34.31 304.29C34.68 305.14 36.58 305.21 36.99 306.02C37.41 306.86 36.34 308.44 36.8 309.24C38.89 312.82 41.45 315.82 44.66 317.7Z" fill="#3D7C70"/>
<path d="M42.72 324.3C47.21 324.31 52.4 325.01 61.25 315.68C69.68 306.8 92.58 278.2 95.14 268.98C95.26 268.55 94.76 268.21 94.4 268.48C89.95 271.83 84.99 275.69 80.01 279.69C79.58 280.03 78.6 279.4 78.18 279.75C77.79 280.07 77.94 281.37 77.55 281.68C75.58 283.28 73.63 284.89 71.71 286.5C71.3 286.84 70.36 286.14 69.96 286.48C69.57 286.81 69.71 288.19 69.32 288.52C67.21 290.32 65.57 291.72 63.63 293.45C63.3 293.74 61.71 293.31 61.38 293.6C61.05 293.89 61.31 295.52 60.99 295.81C59.35 297.29 58.08 298.49 56.66 299.86C56.26 300.25 55.31 299.48 54.93 299.86C54.6 300.19 55.01 301.31 54.69 301.63C53.01 303.35 51.07 304.65 49.97 306.12C49.7 306.48 48.51 306.66 48.28 307.01C48.01 307.42 48.5 308.35 48.28 308.76C46.93 311.26 45.64 313.29 44.93 315.41C44.8 315.8 44.02 315.9 43.91 316.28C43.79 316.68 44.12 317.71 44.02 318.09C42.99 322.17 42.72 324.3 42.72 324.3Z" fill="#3D7C70"/>
<path d="M42.72 324.3C43.08 324.3 43.44 324.31 43.81 324.31C43.98 323.32 44.33 321.55 44.96 319.03C45.06 318.65 45.73 316.75 45.86 316.35C46.57 314.23 47.85 312.2 49.2 309.7C49.42 309.29 53.94 304.3 55.61 302.58C55.92 302.26 57.18 301.2 57.58 300.81C59 299.44 60.28 298.25 61.91 296.76C62.23 296.47 64.22 294.69 64.54 294.4C66.48 292.67 68.12 291.26 70.23 289.47C70.62 289.14 72.21 287.79 72.62 287.45C74.54 285.84 76.5 284.23 78.46 282.63C78.85 282.31 80.5 280.98 80.93 280.64C85.75 276.77 90.53 273.04 94.87 269.77C94.97 269.49 95.06 269.23 95.12 268.98C95.24 268.55 94.74 268.21 94.38 268.48C89.93 271.83 84.97 275.69 79.99 279.69C79.56 280.03 78.58 279.4 78.16 279.75C77.77 280.07 77.92 281.37 77.53 281.68C75.56 283.28 73.61 284.89 71.69 286.5C71.28 286.84 70.34 286.14 69.94 286.48C69.55 286.81 69.69 288.19 69.3 288.52C67.19 290.32 65.55 291.72 63.61 293.45C63.28 293.74 61.69 293.31 61.36 293.6C61.03 293.89 61.29 295.52 60.97 295.81C59.33 297.29 58.06 298.49 56.64 299.86C56.24 300.25 55.29 299.48 54.91 299.86C54.58 300.19 54.99 301.31 54.67 301.63C52.99 303.35 51.05 304.65 49.95 306.12C49.68 306.48 48.49 306.66 48.26 307.01C47.99 307.42 48.48 308.35 48.26 308.76C46.91 311.26 45.62 313.29 44.91 315.41C44.78 315.8 44 315.9 43.89 316.28C43.77 316.68 44.1 317.71 44 318.09C42.99 322.17 42.72 324.3 42.72 324.3Z" fill="#51A596"/>
<path d="M52.4101 357.56H37.2201C35.1001 357.56 33.2701 356.05 32.8701 353.96L25.6201 320.62C25.3501 319.36 26.3001 318.18 27.5901 318.18H62.0401C63.3201 318.18 64.2801 319.37 64.0101 320.62L56.7601 353.96C56.3601 356.05 54.5301 357.56 52.4101 357.56Z" fill="#93BED9"/>
<path opacity="0.3" d="M35.46 357.19C36 357.43 36.6 357.56 37.22 357.56H52.41C54.53 357.56 56.36 356.05 56.76 353.96L62.91 325.71C52.84 346.56 42.02 354.31 35.46 357.19Z" fill="#93BED9"/>
<path opacity="0.3" d="M25.7399 321.21H63.88L64.0099 320.63C64.2799 319.37 63.3299 318.19 62.0399 318.19H27.5899C26.3099 318.19 25.35 319.38 25.62 320.63L25.7399 321.21Z" fill="#93BED9"/>
<path d="M299.88 152.61C303.18 151.84 305.65 148.71 305.65 144.97C305.65 144.08 305.25 142.42 305.25 142.42L309.32 143.87C309.32 143.87 309.45 147.49 308.56 149.23C306.83 152.57 303.18 154.21 299.89 153.36C299.38 153.22 299.41 152.72 299.88 152.61Z" fill="#182F3D"/>
<path d="M323.92 201.03C323.92 198.13 323.92 192.22 323.92 183.17C323.92 171.81 320.3 157.57 319.16 153.36C318.98 152.68 318.25 152.13 317.54 152.13H312.86C312.16 152.13 311.54 152.7 311.48 153.4C311.2 156.55 310.33 164.79 308.36 169.43C306.57 173.65 302.12 178.99 299.83 181.6C299.05 182.48 298.4 184.13 298.4 185.3V201.03C298.4 202.2 299.35 203.16 300.53 203.16H321.79C322.97 203.16 323.92 202.21 323.92 201.03Z" fill="#88CC88"/>
<path d="M311.88 152.56C311.73 152.35 311.64 152.09 311.64 151.82V149.27C311.64 148.57 312.21 147.99 312.92 147.99H317.6C318.3 147.99 318.88 148.56 318.88 149.27V151.82C318.88 152.1 318.79 152.35 318.64 152.56H311.88Z" fill="#182F3D"/>
<path d="M300.19 141.42L303.66 141.85V137.98L300.19 138.41V141.42Z" fill="#182F3D"/>
<path d="M303.88 142.29C305.29 142.74 308.14 143.28 309.31 144.07C310.9 145.14 312.56 147.99 312.56 147.99H317.94C317.94 147.99 318.25 146.64 318.99 145.21C319.74 143.77 320.92 142.27 320.92 142.03V138.63C320.92 138.16 320.54 137.78 320.07 137.78H303.91C303.44 137.78 303.06 138.16 303.06 138.63V141.18C303.07 141.66 303.44 142.15 303.88 142.29Z" fill="#182F3D"/>
<path d="M333.57 357.38H300.86C298.23 357.38 295.98 355.46 295.58 352.85L288.24 305.11C288 303.53 289.22 302.1 290.82 302.1H343.61C345.21 302.1 346.43 303.53 346.19 305.11L338.85 352.85C338.44 355.46 336.2 357.38 333.57 357.38Z" fill="#6EAFB8"/>
<path opacity="0.3" d="M288.26 305.3H346.16L346.19 305.12C346.43 303.54 345.21 302.11 343.61 302.11H290.82C289.22 302.11 288 303.54 288.24 305.12L288.26 305.3Z" fill="#80DFFF"/>
<path d="M317.46 329.1C303.53 329.1 291.32 321.08 286.33 308.63C286 307.81 286.4 306.89 287.22 306.56C288.03 306.23 288.97 306.63 289.29 307.45C293.8 318.68 304.85 325.92 317.47 325.92C317.52 325.92 317.57 325.92 317.62 325.92C330.17 325.86 340.72 318.79 345.14 307.47C345.46 306.65 346.38 306.25 347.21 306.56C348.03 306.88 348.43 307.81 348.12 308.63C343.21 321.2 331.53 329.05 317.64 329.11C317.57 329.1 317.51 329.1 317.46 329.1Z" fill="#36757D"/>
<path d="M326.42 336.83C315.99 345.11 304.77 349.41 295.39 351.62L295.58 352.86C295.98 355.46 298.22 357.39 300.86 357.39H333.57C336.2 357.39 338.44 355.47 338.85 352.86L344.16 318.32C338.89 325.13 332.92 331.68 326.42 336.83Z" fill="#51A596"/>
<path d="M176.59 33.1299C169.33 25.8699 157.55 25.8699 150.29 33.1299L106.84 76.1699V128.78L176.59 59.4399C183.86 52.1799 183.86 40.3999 176.59 33.1299Z" fill="#D5F4FF"/>
<path d="M223.76 107.46L319.92 11.2999C301.93 11.2999 259.51 11.5699 259.51 11.5699L223.76 47.3199V107.46Z" fill="#D5F4FF"/>
<path d="M213.13 57.9399L106.83 164.2V192.23H138.95L213.13 118.09V57.9399Z" fill="#D5F4FF"/>
<path d="M187.26 138.34C183.89 138.34 181.08 135.7 180.9 132.3L179.96 114.48C179.77 110.96 182.47 107.96 185.99 107.77C189.5 107.59 192.51 110.28 192.7 113.8L193.64 131.62C193.83 135.14 191.13 138.14 187.61 138.33C187.48 138.34 187.37 138.34 187.26 138.34Z" fill="#FFC699"/>
<path d="M191.85 85.85H186.97C183.86 85.85 181.34 88.37 181.34 91.48V111.67C181.34 114.15 189.9 117.74 194.52 117.74C196.07 117.74 198.92 115.13 200.78 109.33C202.6 103.66 201.84 95.87 201.84 95.87C201.85 90.33 197.37 85.85 191.85 85.85Z" fill="#FFC699"/>
<path d="M267.42 122.05L245.73 139.84C243.93 141.4 241.39 141.79 239.21 140.83L215.58 130.45L214.16 146.29L242.7 155.03C244.39 155.66 246.28 155.27 247.58 154.01L273.82 129.14L267.42 122.05Z" fill="#FFC699"/>
<path d="M161.68 133.67L140.24 153.74C138.91 155.08 136.72 155.01 135.5 153.57C130.29 147.46 119.49 135.08 117.63 132.78L109.46 138.59L134.35 168.46C135.66 170.18 138.09 170.55 139.86 169.3L162.61 153.6L161.68 133.67Z" fill="#FFC699"/>
<path d="M200.3 90.62C195.3 94.47 197.6 115.1 182.6 115.85C167.6 116.6 164.6 98.85 167.85 92.6C171.1 86.35 172.37 83.94 174.04 82.58C177.23 79.99 180.01 79.24 184.34 78.99C188.66 78.75 202.29 82.83 200.3 90.62Z" fill="#183C3D"/>
<path d="M215.22 147.65C215.22 147.65 210.18 182.44 207.79 190.14C213.9 201.83 222.67 239.57 222.41 244.09C222.15 248.61 221.08 252.06 218.69 252.59C216.3 253.12 198.23 194.92 199.03 188.02C199.83 181.11 209.66 147.89 211.79 146.03C213.9 144.17 215.22 147.65 215.22 147.65Z" fill="#5C995C"/>
<path d="M227.76 135.09L223.94 148.27C223.74 148.96 223.08 149.42 222.37 149.36L214.65 147.51C214.02 147.35 213.38 147.75 213.24 148.39C213.24 148.39 207.13 172.18 205.8 177.3C204.48 182.43 203.86 190.88 203.86 190.88C203.83 191.06 203.67 191.19 203.49 191.19C190.03 194.9 177.74 195.28 166.96 191.19C166.61 191.19 166.3 190.92 166.27 190.56L162.79 156.58C162.72 155.78 161.79 155.37 161.14 155.84L156.36 158.58C155.9 158.85 155.32 158.73 154.99 158.31L145.9 147.57C145.73 147.37 145.75 147.07 145.94 146.9L161.81 131.93L169.48 127.89L171.39 126.89L176.58 124.16C177.12 123.87 177.78 123.96 178.26 124.35C182.9 128.17 187.87 127.97 193.09 124.32C193.65 123.93 194.35 123.76 195.02 123.87L197.41 124.31L199.52 124.69L208.58 126.34L227.25 134.01C227.66 134.21 227.88 134.67 227.76 135.09Z" fill="#F7F7F7"/>
<path d="M199.52 124.72C199.52 124.75 199.51 124.79 199.5 124.83C199.39 125.18 196.84 133.62 184.86 133.84C184.69 133.85 184.53 133.85 184.38 133.85C174.77 133.85 169.83 128.37 169.61 128.13C169.56 128.07 169.5 127.99 169.47 127.92L171.38 126.92C172.32 127.82 176.88 131.87 184.81 131.71C194.6 131.53 197.09 125.27 197.41 124.33L199.52 124.72Z" fill="#5C995C"/>
<path d="M179.35 115.74C175.68 115.1 172.18 117.07 171.11 122.38C170.05 127.69 174.3 144.17 171.11 146.83C176.69 148.96 185.73 142.58 186.52 133.28C187.32 123.97 185.46 116.8 179.35 115.74Z" fill="#183C3D"/>
<path d="M182.18 117.57C178.99 117.57 176.59 116.39 176.48 116.34C175.95 116.08 175.74 115.44 176 114.91C176.26 114.39 176.9 114.17 177.42 114.43C177.46 114.45 180.05 115.7 183.22 115.39C183.8 115.33 184.33 115.76 184.38 116.34C184.44 116.92 184.01 117.44 183.43 117.5C183.01 117.55 182.59 117.57 182.18 117.57Z" fill="#5C995C"/>
<path d="M200.11 206.14C204.47 220.42 216.35 265.52 217.18 280.5C217.53 286.88 217.39 303.7 217.62 305.38C218.79 314.1 223.44 350.3 223.44 350.3C223.44 350.3 215.78 350.92 215.25 351.16C215.12 351.22 203.34 320.04 201.95 312.39C199.82 300.7 201.29 295.14 199.73 285.09C198.16 274.95 188.03 256.26 183.88 246.49C180.16 237.72 175.49 219.7 172.98 211.15C178.6 210.46 194.48 206.81 200.11 206.14Z" fill="#FFC699"/>
<path d="M193.79 208.21C195.65 221.5 187.29 235.02 183.13 247.42C178.07 262.48 174.02 278.07 169.52 293.25C165.37 306.94 161.81 320.48 160.68 334.71C160.43 337.69 160.25 349.07 160.25 349.07L150.13 351.15L149.25 348.38C149.25 348.38 146 319.37 147.21 308.4C148.65 295.37 154.3 289.29 157.67 276.64C160.95 264.31 160.92 251.74 161.82 239.04C162.6 228.09 163.81 216.83 164.3 205.89C170.26 206.73 187.82 207.37 193.79 208.21Z" fill="#FFC699"/>
<path d="M166.15 189.47C166.15 189.47 158.7 200.42 155.52 213.89C153.64 221.83 157.64 242.76 155.57 265.43C154.13 281.2 147.71 294.53 147.1 308.01C146.46 322.14 148.25 338.96 148.24 341.37C151.82 340.04 153.8 339.73 160.45 339.66C161.7 339.65 162.9 309.53 172.24 291.52C178.65 280 183.56 249.33 184.26 250.01C186.04 254.6 191.97 263.74 195.72 274.12C198.27 281.17 200.2 290.61 200.25 299.08C200.37 317.77 211.25 343.54 212.1 342.93C216.86 339.55 218.43 339.84 222.05 339.67C222.51 339.65 221.51 318.23 221.46 317.77C219.2 297.88 220.97 280.55 218.43 268.38C210.34 229.69 204.26 190.31 203.96 189.56C190.44 192.13 177.67 191.86 166.15 189.47Z" fill="#182F3D"/>
<path d="M185.8 193.19C191.43 193.19 197.95 192.88 204.8 191.69L204.28 189.51C198.44 190.52 192.68 191.02 187.83 191.13C188.88 190.44 189.71 189.52 190 188.29C190.34 186.82 190.01 185.35 189.06 184.16C188.1 182.95 186.63 182.2 185.23 182.2C184.47 182.2 183.78 182.43 183.23 182.86C182.29 183.59 181.61 185.27 181.13 186.99C179.97 184.51 178.05 182.61 176.13 182.41C175.34 182.32 173.43 182.47 172.69 185.43C172.33 186.88 172.54 188.22 173.34 189.41C173.63 189.85 174 190.24 174.4 190.59C169.24 190.04 166.19 189.3 166.11 189.28L165.03 191.36C165.13 191.38 170.58 192.6 178.74 193.02C176.38 196.7 172.07 204.02 171.08 209.97L173.18 210.32C174.13 204.62 178.55 197.25 180.76 193.82C182.43 197.1 187.43 208.18 185.12 218.68L187.2 219.14C189.62 208.15 184.75 196.99 182.82 193.16C183.77 193.17 184.76 193.19 185.8 193.19ZM184.54 184.53C184.71 184.39 184.94 184.33 185.23 184.33C185.97 184.33 186.84 184.8 187.4 185.49C187.78 185.96 188.17 186.75 187.93 187.82C187.53 189.55 184.52 190.45 182.49 190.81C182.9 188.28 183.69 185.19 184.54 184.53ZM174.74 185.94C174.98 184.99 175.34 184.51 175.83 184.51C177.39 184.66 179.76 187.58 180.06 190.99C178.42 190.57 176.07 189.69 175.09 188.22C174.64 187.55 174.52 186.8 174.74 185.94Z" fill="#5C995C"/>
<path d="M149.06 349.25C149.06 350.71 147.79 353.19 147.79 354.59C147.79 356.77 149.06 359.02 151.58 358.69C152.62 358.55 172.46 358.27 178.41 358.55C179.22 358.59 179.83 357.82 179.62 357.04L179.45 356.41C179.02 354.79 177.73 353.55 176.09 353.19C176.09 353.19 165.13 350.46 163.8 349.93C162.64 349.46 161.37 346.08 160.54 346.87C155.72 351.52 149.06 347.79 149.06 349.25Z" fill="#5C995C"/>
<path d="M214.08 349.11C214.08 350.51 212.64 353.24 212.64 354.37C212.64 355.5 212.91 357.56 214.57 358.62C216.17 359.64 227.69 358.45 242.25 358.72C243.09 358.74 243.71 357.95 243.49 357.14L243.35 356.63C242.88 354.88 241.47 353.54 239.7 353.17C239.7 353.17 227.44 351.05 226.38 350.39C225.32 349.73 223.72 347.87 223.22 346.97C222.22 348.95 219.46 351.02 214.08 349.11Z" fill="#5C995C"/>
<path d="M265.38 138.46L257.34 128.49C257.34 128.49 264.28 121.02 265.15 119.79C266.01 118.56 266.12 108.51 266.45 107.37C266.88 105.84 269.44 104.81 269.61 106.47C269.78 108.13 269.34 113.05 270.04 113.28C270.74 113.51 276.68 104.24 277.21 103.58C277.74 102.92 278.97 102.68 279.47 102.92C279.97 103.15 280 104.18 279.67 104.85C279.34 105.51 277.51 109.53 277.15 110.23C276.78 110.93 276.68 111.99 277.22 111.76C277.75 111.53 283.53 103.39 283.93 102.79C284.33 102.19 285.59 101.66 286.06 101.93C286.52 102.2 287.09 103.16 286.66 103.92C286.23 104.68 280.81 112.82 280.42 113.35C280.02 113.88 279.72 115.04 280.29 114.68C280.85 114.31 285.94 109.27 286.47 108.7C287 108.14 288 107.77 288.33 108.1C288.66 108.43 289.33 109.69 288.8 110.43C288.27 111.16 283.39 116.01 282.82 116.61C282.26 117.21 282.19 118.01 282.62 117.81C283.05 117.61 288.43 113.06 289.13 112.69C289.83 112.32 290.49 114.12 289.6 115.15C288.67 116.17 265.38 138.46 265.38 138.46Z" fill="#FFBB26"/>
<path d="M116.22 147.64L124.42 138.8C124.42 138.8 118.38 131.32 117.65 130.11C116.92 128.9 117.47 119.45 117.24 118.35C116.93 116.89 114.6 115.75 114.33 117.3C114.07 118.85 114.15 123.5 113.48 123.67C112.81 123.84 107.82 114.75 107.37 114.09C106.91 113.43 105.77 113.13 105.29 113.32C104.81 113.51 104.71 114.47 104.98 115.12C105.25 115.77 106.71 119.66 107 120.34C107.3 121.02 107.32 122.03 106.84 121.77C106.36 121.52 101.45 113.49 101.12 112.9C100.78 112.31 99.63 111.73 99.18 111.95C98.73 112.17 98.13 113.04 98.49 113.78C98.85 114.53 103.41 122.53 103.75 123.05C104.09 123.58 104.3 124.69 103.79 124.31C103.28 123.93 98.83 118.85 98.37 118.29C97.91 117.72 96.99 117.32 96.66 117.61C96.33 117.9 95.62 119.04 96.07 119.77C96.52 120.49 100.8 125.37 101.29 125.97C101.78 126.57 101.79 127.32 101.4 127.11C101.01 126.89 96.24 122.27 95.61 121.88C94.98 121.49 94.24 123.13 95.01 124.16C95.78 125.18 116.22 147.64 116.22 147.64Z" fill="#FFBB26"/>
<path d="M201.8 100.99L203.28 106.79C203.35 107.05 203.22 107.32 202.97 107.43L200.73 108.44L201.8 100.99Z" fill="#FFC699"/>
<path d="M184.1 250.02C184.1 250.02 183.55 244.79 181.66 245.15C173.35 246.73 163.46 235.97 163.6 237.41C164.17 243.3 172.3 268.69 170.97 275.84C165.63 304.54 172.62 290.64 172.62 290.64C172.62 290.64 174.19 287.93 177.85 275.62C181.5 263.31 184.1 250.02 184.1 250.02Z" fill="#18153D"/>
</svg>
